<svg width="512" height="380" viewBox="0 0 512 380" fill="none" xmlns="http://www.w3.org/2000/svg">
<g clip-path="url(#clip0_6003_197226)">
<rect width="538.417" height="350.055" rx="6.66771" transform="matrix(0.978148 -0.207912 0.646257 0.76312 -108 111.943)" fill="#FEFDFB"/>
<rect x="0.33847" y="0.115686" width="76.2619" height="76.2619" transform="matrix(0.978148 -0.207912 0.646257 0.76312 99.5772 148.212)" fill="#FAF8F6" stroke="#EFECEB" stroke-width="0.416732"/>
<rect width="40.0062" height="6.66771" rx="3.33385" transform="matrix(0.978148 -0.207912 0.646257 0.76312 115.893 153.667)" fill="#EFECEB"/>
<rect x="0.33847" y="0.115686" width="76.2619" height="76.2619" transform="matrix(0.978148 -0.207912 0.646257 0.76312 15.6045 166.061)" fill="#FAF8F6" stroke="#EFECEB" stroke-width="0.416732"/>
<rect width="40.0062" height="6.66771" rx="3.33385" transform="matrix(0.978148 -0.207912 0.646257 0.76312 31.9199 171.516)" fill="#EFECEB"/>
<rect x="0.33847" y="0.115686" width="59.5926" height="27.921" rx="13.9605" transform="matrix(0.978148 -0.207912 0.646257 0.76312 309.222 125.415)" fill="#FAF8F6" stroke="#EFECEB" stroke-width="0.416732"/>
<rect x="0.33847" y="0.115686" width="59.5926" height="27.921" rx="13.9605" transform="matrix(0.978148 -0.207912 0.646257 0.76312 226.155 87.5323)" fill="#FAF8F6" stroke="#EFECEB" stroke-width="0.416732"/>
<rect x="0.33847" y="0.115686" width="66.2603" height="27.921" rx="13.9605" transform="matrix(0.978148 -0.207912 0.646257 0.76312 389.565 164.626)" fill="#FAF8F6" stroke="#EFECEB" stroke-width="0.416732"/>
<rect x="0.33847" y="0.115686" width="66.2603" height="27.921" rx="13.9605" transform="matrix(0.978148 -0.207912 0.646257 0.76312 303.966 182.821)" fill="#FAF8F6" stroke="#EFECEB" stroke-width="0.416732"/>
<g opacity="0.5">
<rect x="0.169235" y="0.0578432" width="193.155" height="24.7955" rx="6.56352" transform="matrix(0.978148 -0.207912 0.646257 0.76312 253.554 303.822)" fill="#FEFDFB" stroke="#514C49" stroke-width="0.208366"/>
<line y1="-0.104183" x2="25.0039" y2="-0.104183" transform="matrix(0.646257 0.76312 -0.978148 0.207912 309.025 291.989)" stroke="#514C49" stroke-width="0.208366"/>
<g clip-path="url(#clip1_6003_197226)">
<g filter="url(#filter0_d_6003_197226)">
<mask id="mask0_6003_197226" style="mask-type:alpha" maskUnits="userSpaceOnUse" x="319" y="290" width="25" height="17">
<rect width="12.2145" height="17.7111" transform="matrix(0.978148 -0.207912 0.646257 0.76312 319.941 292.952)" fill="#D9D9D9"/>
</mask>
<g mask="url(#mask0_6003_197226)">
<path d="M331.559 295.666L331.559 295.666L331.548 295.659C331.207 295.428 330.816 295.236 330.403 295.095C329.163 294.672 327.953 294.929 327.698 295.67C327.613 295.916 327.618 296.191 327.712 296.474L327.711 296.474L327.716 296.483L329.936 301.003C329.989 301.161 330.083 301.321 330.213 301.475L339.373 312.291C339.69 312.666 340.306 312.914 340.835 312.881C342.74 312.76 344.482 312.39 345.978 311.788C346.394 311.62 346.465 311.226 346.148 310.851L336.988 300.035C336.858 299.881 336.694 299.736 336.503 299.607L331.559 295.666Z" fill="url(#paint0_linear_6003_197226)" stroke="#C2BDBA" stroke-width="0.208366"/>
<path d="M329.834 296.306C329.492 296.378 329.166 296.388 328.886 296.37C328.844 296.368 328.823 296.366 328.627 296.307C328.435 296.249 328.038 296.016 327.921 295.892C327.801 295.766 327.776 295.705 327.725 295.583C327.349 294.678 326.963 293.992 327.073 293.809C327.231 293.546 327.682 293.45 328.169 293.576C328.508 293.664 329.225 294.279 330.263 295.044C330.403 295.147 330.472 295.198 330.571 295.329C330.667 295.457 330.726 295.763 330.675 295.872C330.624 295.984 330.611 295.992 330.586 296.009C330.417 296.123 330.176 296.233 329.834 296.306Z" fill="#01111A"/>
<path d="M332.785 301.874C332.525 301.567 332.686 301.26 333.12 301.234C333.677 301.2 334.185 301.092 334.619 300.915C334.958 300.777 335.512 300.932 335.771 301.239L343.757 310.669C343.941 310.885 344.032 310.994 344.086 311.089C344.305 311.478 344.179 311.846 343.767 312.02C343.667 312.063 343.528 312.092 343.251 312.151C342.973 312.21 342.834 312.24 342.704 312.247C342.167 312.274 341.552 312.063 341.145 311.714C341.045 311.629 340.954 311.52 340.77 311.304L332.785 301.874Z" fill="black"/>
</g>
</g>
</g>
<g clip-path="url(#clip2_6003_197226)">
<g clip-path="url(#clip3_6003_197226)">
<path fill-rule="evenodd" clip-rule="evenodd" d="M300.007 301.788C299.842 301.823 299.807 301.949 299.901 302.06L301.846 304.357C301.995 304.533 301.933 304.714 301.708 304.762C301.483 304.809 301.18 304.706 301.031 304.53L299.385 302.587C299.291 302.476 299.085 302.4 298.92 302.435C298.755 302.471 298.72 302.597 298.814 302.708L301.358 305.712C301.507 305.887 301.445 306.068 301.22 306.116C300.994 306.164 300.691 306.061 300.543 305.885L299.794 305.002C299.7 304.89 299.495 304.815 299.33 304.85C299.164 304.885 299.13 305.012 299.224 305.123L299.822 305.83C300.908 307.112 303.158 307.872 304.854 307.512C306.551 307.151 307.022 305.812 305.937 304.53L304.44 302.763C304.346 302.652 304.141 302.577 303.976 302.612C303.81 302.647 303.776 302.773 303.87 302.884L304.618 303.768C304.767 303.943 304.705 304.125 304.48 304.172C304.254 304.22 303.951 304.117 303.803 303.941L302.157 301.998C302.063 301.886 301.857 301.811 301.692 301.846C301.527 301.881 301.492 302.008 301.586 302.119L303.232 304.062C303.381 304.238 303.319 304.419 303.094 304.467C302.869 304.515 302.565 304.411 302.417 304.236L300.472 301.939C300.377 301.828 300.172 301.752 300.007 301.788ZM300.778 301.371C300.371 301.158 299.871 301.066 299.468 301.151C299.066 301.237 298.85 301.481 298.873 301.776C298.702 301.76 298.535 301.767 298.381 301.799C297.781 301.927 297.597 302.407 297.999 302.881L299.101 304.182C298.994 304.183 298.889 304.193 298.791 304.214C298.191 304.342 298.007 304.822 298.409 305.296L299.007 306.003C300.4 307.648 303.262 308.601 305.393 308.148C307.524 307.695 308.145 306.002 306.752 304.357L305.256 302.59C304.854 302.116 304.037 301.848 303.437 301.976C303.339 301.997 303.251 302.027 303.176 302.065L302.972 301.824C302.57 301.35 301.753 301.083 301.153 301.21C301 301.243 300.874 301.298 300.778 301.371Z" fill="black"/>
</g>
</g>
<g clip-path="url(#clip4_6003_197226)">
<rect width="16.6693" height="16.6693" rx="3.33385" transform="matrix(0.978148 -0.207912 0.646257 0.76312 262.803 305.567)" fill="#3C9AF1" fill-opacity="0.32"/>
<g clip-path="url(#clip5_6003_197226)">
<path fill-rule="evenodd" clip-rule="evenodd" d="M270.924 307.827C270.93 307.828 270.936 307.828 270.941 307.828L278.973 308.266C279.114 308.274 279.249 308.281 279.359 308.294C279.452 308.304 279.658 308.329 279.853 308.437C280.066 308.555 280.21 308.721 280.237 308.88C280.262 309.026 280.16 309.12 280.112 309.162C280.056 309.212 279.975 309.268 279.891 309.326L277.883 310.721L278.618 313.053C278.648 313.151 278.678 313.244 278.692 313.318C278.704 313.381 278.727 313.517 278.618 313.618C278.499 313.728 278.284 313.771 278.043 313.733C277.822 313.699 277.645 313.593 277.565 313.544C277.47 313.487 277.359 313.41 277.242 313.329L270.623 308.76C270.618 308.757 270.614 308.753 270.609 308.75C270.515 308.686 270.42 308.62 270.348 308.563C270.279 308.509 270.152 308.403 270.103 308.271C270.047 308.12 270.095 307.982 270.231 307.896C270.35 307.822 270.516 307.816 270.603 307.816C270.695 307.815 270.811 307.821 270.924 307.827ZM277.863 310.658C277.863 310.658 277.863 310.658 277.863 310.658ZM277.829 310.759C277.828 310.759 277.828 310.759 277.829 310.759ZM271.374 308.496L277.603 312.796L276.919 310.623C276.918 310.621 276.917 310.618 276.916 310.615C276.906 310.584 276.886 310.521 276.889 310.46C276.892 310.409 276.908 310.361 276.937 310.319C276.972 310.269 277.027 310.231 277.053 310.213C277.056 310.211 277.058 310.21 277.06 310.208L278.932 308.909L271.374 308.496Z" fill="black"/>
</g>
</g>
<g clip-path="url(#clip6_6003_197226)">
<rect width="13.3354" height="11.6685" rx="3.33385" transform="matrix(0.978148 -0.207912 0.646257 0.76312 347.572 289.8)" fill="#F27B2F"/>
</g>
<g clip-path="url(#clip7_6003_197226)">
<path d="M374.074 284.168C373.925 283.992 373.987 283.811 374.212 283.763L385.626 281.337C385.851 281.29 386.154 281.393 386.303 281.569L392.4 288.769C392.474 288.856 392.499 288.948 392.469 289.026L391.627 291.216C391.599 291.288 391.525 291.341 391.42 291.364L382.292 293.304C382.067 293.352 381.764 293.248 381.615 293.073L374.074 284.168Z" fill="#F5B103" fill-opacity="0.4"/>
<path d="M390.234 289.13C390.108 288.777 390.407 288.508 390.911 288.521L392.221 288.555L392.366 288.727C392.515 288.903 392.564 289.09 392.502 289.246L391.758 291.089C391.701 291.232 391.554 291.336 391.347 291.38L391.058 291.441L390.234 289.13Z" fill="#F4D179"/>
</g>
<g clip-path="url(#clip8_6003_197226)">
<path fill-rule="evenodd" clip-rule="evenodd" d="M407.737 277.387L412.918 278.285L410.606 280.775L409.457 279.418C408.707 279.773 408.576 280.541 409.21 281.289L410.8 283.168C411.816 284.367 411.398 285.603 409.867 285.929L408.348 286.252C408.141 286.296 407.862 286.2 407.724 286.038C407.587 285.876 407.644 285.709 407.851 285.665L409.37 285.342C410.487 285.104 410.792 284.202 410.051 283.327L408.46 281.449C407.551 280.375 407.791 279.272 408.949 278.819L407.737 277.387Z" fill="black"/>
<path d="M413.523 277.325C413.413 277.195 413.458 277.062 413.624 277.027V277.027C413.789 276.991 414.013 277.068 414.122 277.198L415.315 278.606C415.425 278.736 415.38 278.87 415.215 278.905V278.905C415.049 278.94 414.826 278.863 414.716 278.734L413.523 277.325Z" fill="#A6A19E"/>
<path d="M405.408 285.699C405.298 285.569 405.343 285.436 405.509 285.401V285.401C405.674 285.365 405.897 285.442 406.007 285.572L407.2 286.98C407.31 287.11 407.265 287.244 407.099 287.279V287.279C406.934 287.314 406.711 287.238 406.601 287.108L405.408 285.699Z" fill="#A6A19E"/>
</g>
<g clip-path="url(#clip9_6003_197226)">
<g clip-path="url(#clip10_6003_197226)">
<path fill-rule="evenodd" clip-rule="evenodd" d="M431.817 273.822L435.681 273.001C435.85 272.965 435.995 272.934 436.12 272.915C436.253 272.894 436.391 272.882 436.55 272.894C436.906 272.922 437.274 273.043 437.571 273.231C437.702 273.314 437.802 273.405 437.891 273.499C437.976 273.588 438.069 273.697 438.176 273.824L438.184 273.833C438.319 273.993 438.257 274.159 438.045 274.204C437.833 274.249 437.551 274.156 437.416 273.996C437.299 273.858 437.223 273.768 437.159 273.701C437.097 273.637 437.065 273.614 437.048 273.603C436.949 273.54 436.827 273.5 436.708 273.491C436.688 273.489 436.648 273.488 436.557 273.503C436.462 273.517 436.343 273.542 436.159 273.582L434.623 273.908L438.05 277.955L438.818 277.792C439.03 277.747 439.312 277.84 439.447 278C439.582 278.159 439.52 278.325 439.308 278.37L437.004 278.86C436.792 278.905 436.51 278.812 436.375 278.653C436.24 278.493 436.302 278.327 436.514 278.282L437.282 278.119L433.855 274.071L432.319 274.398C432.134 274.437 432.016 274.462 431.929 274.486C431.845 274.509 431.818 274.524 431.806 274.533C431.737 274.582 431.71 274.654 431.731 274.733C431.735 274.747 431.746 274.774 431.795 274.841C431.847 274.911 431.923 275.001 432.04 275.139C432.176 275.299 432.113 275.465 431.901 275.51C431.689 275.555 431.408 275.462 431.272 275.302L431.264 275.293C431.157 275.166 431.064 275.057 430.996 274.965C430.924 274.867 430.862 274.768 430.834 274.663C430.771 274.425 430.852 274.209 431.06 274.061C431.152 273.995 431.267 273.954 431.388 273.921C431.503 273.889 431.648 273.858 431.817 273.822Z" fill="black"/>
</g>
<path fill-rule="evenodd" clip-rule="evenodd" d="M428.43 272.75C428.156 272.809 427.93 272.905 427.756 273.029C427.648 273.107 427.435 273.09 427.28 272.992C427.126 272.895 427.088 272.753 427.196 272.676C427.421 272.515 427.712 272.391 428.063 272.317L429.071 272.102C429.23 272.069 429.441 272.138 429.542 272.258C429.644 272.378 429.597 272.502 429.438 272.536L428.43 272.75ZM430.982 271.952C430.881 271.832 430.928 271.708 431.087 271.674L433.103 271.245C433.262 271.212 433.473 271.281 433.574 271.401C433.676 271.521 433.629 271.645 433.47 271.679L431.454 272.108C431.295 272.141 431.084 272.072 430.982 271.952ZM435.014 271.095C434.913 270.975 434.96 270.851 435.119 270.817L436.127 270.603C436.477 270.528 436.857 270.509 437.244 270.54C437.43 270.555 437.607 270.667 437.64 270.79C437.673 270.914 437.549 271.002 437.363 270.987C437.063 270.964 436.768 270.978 436.494 271.036L435.486 271.251C435.327 271.284 435.116 271.215 435.014 271.095ZM426.965 273.833C427.15 273.848 427.327 273.96 427.36 274.083C427.413 274.283 427.525 274.491 427.699 274.697L428.296 275.401C428.398 275.521 428.351 275.646 428.192 275.679C428.033 275.713 427.822 275.644 427.72 275.524L427.123 274.819C426.9 274.555 426.756 274.288 426.687 274.03C426.655 273.907 426.779 273.818 426.965 273.833ZM439.066 271.261C439.174 271.184 439.387 271.2 439.542 271.298C439.864 271.501 440.147 271.739 440.371 272.003L440.968 272.708C441.069 272.828 441.023 272.952 440.864 272.986C440.704 273.02 440.493 272.95 440.392 272.83L439.795 272.126C439.621 271.919 439.4 271.735 439.15 271.577C438.996 271.48 438.958 271.338 439.066 271.261ZM429.018 276.655C429.177 276.621 429.388 276.691 429.49 276.811L430.683 278.22C430.785 278.34 430.738 278.464 430.579 278.498C430.42 278.532 430.209 278.462 430.107 278.343L428.914 276.933C428.812 276.813 428.859 276.689 429.018 276.655ZM441.69 273.962C441.849 273.928 442.06 273.998 442.161 274.117L443.355 275.527C443.456 275.646 443.41 275.771 443.251 275.805C443.092 275.839 442.88 275.769 442.779 275.649L441.585 274.24C441.484 274.12 441.531 273.996 441.69 273.962ZM431.405 279.474C431.564 279.44 431.775 279.51 431.877 279.63L432.474 280.334C432.648 280.54 432.869 280.725 433.118 280.883C433.273 280.98 433.311 281.122 433.203 281.199C433.095 281.276 432.882 281.26 432.727 281.162C432.405 280.959 432.121 280.721 431.898 280.457L431.301 279.752C431.199 279.632 431.246 279.508 431.405 279.474ZM444.077 276.78C444.236 276.747 444.447 276.816 444.549 276.936L445.145 277.641C445.369 277.905 445.513 278.172 445.581 278.43C445.614 278.553 445.49 278.642 445.304 278.627C445.118 278.612 444.941 278.5 444.908 278.377C444.856 278.177 444.744 277.969 444.569 277.763L443.973 277.059C443.871 276.939 443.918 276.814 444.077 276.78ZM434.629 281.67C434.596 281.546 434.72 281.458 434.906 281.472C435.206 281.496 435.501 281.482 435.775 281.424L436.783 281.209C436.942 281.175 437.153 281.245 437.254 281.365C437.356 281.485 437.309 281.609 437.15 281.643L436.142 281.857C435.791 281.932 435.411 281.95 435.024 281.92C434.839 281.905 434.662 281.793 434.629 281.67ZM444.989 279.468C445.143 279.565 445.181 279.707 445.073 279.784C444.848 279.945 444.557 280.069 444.206 280.143L443.198 280.357C443.039 280.391 442.828 280.322 442.726 280.202C442.625 280.082 442.672 279.958 442.831 279.924L443.839 279.71C444.113 279.651 444.338 279.555 444.513 279.43C444.621 279.353 444.834 279.37 444.989 279.468ZM438.694 281.059C438.593 280.939 438.64 280.815 438.799 280.781L440.815 280.352C440.974 280.318 441.185 280.388 441.286 280.508C441.388 280.628 441.341 280.752 441.182 280.786L439.166 281.214C439.007 281.248 438.796 281.179 438.694 281.059Z" fill="#B7B7B7"/>
</g>
<rect width="232" height="30" transform="matrix(0.978148 -0.207912 0.646257 0.76312 253.588 303.773)" fill="black" style="mix-blend-mode:saturation"/>
</g>
<rect width="140.855" height="13.3354" rx="3.33385" transform="matrix(0.978148 -0.207912 0.646257 0.76312 346.645 223.951)" fill="#F5F3F1"/>
<rect width="66.6771" height="13.3354" rx="3.33385" transform="matrix(0.978148 -0.207912 0.646257 0.76312 43.0254 132.379)" fill="#F5F3F1"/>
<rect x="0.33847" y="0.115686" width="76.2619" height="76.2619" transform="matrix(0.978148 -0.207912 0.646257 0.76312 156.669 215.631)" fill="#FAF8F6" stroke="#EFECEB" stroke-width="0.416732"/>
<rect width="56.6755" height="6.66771" rx="3.33385" transform="matrix(0.978148 -0.207912 0.646257 0.76312 172.984 221.086)" fill="#EFECEB"/>
<rect width="37.5058" height="6.66771" rx="3.33385" transform="matrix(0.978148 -0.207912 0.646257 0.76312 181.602 231.263)" fill="#EFECEB"/>
<rect x="0.33847" y="0.115686" width="76.2619" height="76.2619" transform="matrix(0.978148 -0.207912 0.646257 0.76312 72.6963 233.48)" fill="#FAF8F6" stroke="#EFECEB" stroke-width="0.416732"/>
<rect width="56.6755" height="6.66771" rx="3.33385" transform="matrix(0.978148 -0.207912 0.646257 0.76312 89.0117 238.935)" fill="#EFECEB"/>
<rect width="37.5058" height="6.66771" rx="3.33385" transform="matrix(0.978148 -0.207912 0.646257 0.76312 97.6289 249.112)" fill="#EFECEB"/>
<path d="M325.602 162.753L325.195 162.84L325.602 162.753ZM334.931 174.17C335.195 174.26 335.453 174.205 335.507 174.047L336.387 171.472C336.441 171.314 336.271 171.113 336.006 171.022C335.742 170.932 335.484 170.987 335.43 171.145L334.648 173.434L330.818 172.125C330.554 172.035 330.296 172.09 330.242 172.248C330.188 172.406 330.358 172.607 330.623 172.697L334.931 174.17ZM366.656 151.025L367.064 150.938L367.064 150.938L366.656 151.025ZM366.103 152.644L366.372 152.962L366.372 152.962L366.103 152.644ZM326.156 161.135L325.886 160.817L326.156 161.135ZM325.195 162.84L334.621 173.97L335.436 173.797L326.01 162.667L325.195 162.84ZM357.361 140.617L366.248 151.112L367.064 150.938L358.176 140.444L357.361 140.617ZM365.833 152.325L325.886 160.817L326.425 161.453L366.372 152.962L365.833 152.325ZM366.248 151.112C366.695 151.638 366.509 152.182 365.833 152.325L366.372 152.962C367.498 152.722 367.807 151.816 367.064 150.938L366.248 151.112ZM326.01 162.667C325.564 162.14 325.749 161.596 326.425 161.453L325.886 160.817C324.761 161.056 324.451 161.962 325.195 162.84L326.01 162.667Z" fill="#E2DEDB"/>
<path d="M411.74 144.443L411.332 144.53L411.332 144.53L411.74 144.443ZM421.068 155.86C421.332 155.95 421.59 155.896 421.644 155.738L422.525 153.162C422.579 153.004 422.408 152.803 422.144 152.713C421.879 152.622 421.621 152.677 421.567 152.835L420.785 155.124L416.955 153.815C416.691 153.725 416.433 153.78 416.379 153.938C416.325 154.096 416.496 154.297 416.76 154.388L421.068 155.86ZM366.654 151.025L366.247 151.111L366.654 151.025ZM369.362 151.95L369.093 151.632L369.362 151.95ZM409.032 143.518L409.301 143.836L409.032 143.518ZM411.332 144.53L420.758 155.661L421.573 155.487L412.147 144.357L411.332 144.53ZM357.359 140.617L366.247 151.111L367.062 150.938L358.175 140.443L357.359 140.617ZM369.631 152.268L409.301 143.836L408.762 143.2L369.093 151.632L369.631 152.268ZM366.247 151.111C366.99 151.989 368.506 152.507 369.631 152.268L369.093 151.632C368.417 151.776 367.508 151.465 367.062 150.938L366.247 151.111ZM412.147 144.357C411.403 143.479 409.888 142.961 408.762 143.2L409.301 143.836C409.976 143.692 410.886 144.003 411.332 144.53L412.147 144.357Z" fill="#E2DEDB"/>
<path d="M328.675 106.562L328.267 106.648L328.267 106.648L328.675 106.562ZM338.003 117.978C338.268 118.069 338.526 118.014 338.58 117.856L339.46 115.28C339.514 115.122 339.344 114.921 339.079 114.831C338.815 114.74 338.557 114.795 338.503 114.953L337.72 117.242L333.891 115.934C333.627 115.843 333.369 115.898 333.315 116.056C333.261 116.214 333.431 116.415 333.695 116.506L338.003 117.978ZM283.59 113.143L283.182 113.229L283.59 113.143ZM286.298 114.068L286.028 113.75L286.298 114.068ZM325.967 105.636L326.237 105.954L325.967 105.636ZM328.267 106.648L337.694 117.779L338.509 117.605L329.083 106.475L328.267 106.648ZM274.295 102.735L283.182 113.229L283.997 113.056L275.11 102.562L274.295 102.735ZM286.567 114.386L326.237 105.954L325.698 105.318L286.028 113.75L286.567 114.386ZM283.182 113.229C283.926 114.108 285.441 114.626 286.567 114.386L286.028 113.75C285.353 113.894 284.444 113.583 283.997 113.056L283.182 113.229ZM329.083 106.475C328.339 105.597 326.824 105.079 325.698 105.318L326.237 105.954C326.912 105.811 327.821 106.121 328.267 106.648L329.083 106.475Z" fill="#E2DEDB"/>
<path d="M379.305 100.076C379.854 100.724 380.402 101.372 380.951 102.02C381.891 103.13 382.704 103.828 384.565 104.113C385.504 104.256 386.978 104.03 387.56 103.695C388.44 103.189 388.43 102.146 387.912 101.22C387.336 100.192 387.002 99.2996 386.109 98.2866C385.156 97.2051 382.764 97.106 381.631 97.3468C380.451 97.5977 379.641 97.8098 379.143 98.5968C378.797 99.1448 378.914 99.6144 379.458 100.256" stroke="#E2DEDB" stroke-width="1.66693" stroke-linecap="round"/>
<path d="M385.604 93.2322C385.98 93.6756 386.355 94.1189 386.73 94.5622C387.417 95.3733 387.904 96.1231 389.059 96.7209C390.437 97.4343 391.616 97.6348 393.018 97.6893" stroke="#E2DEDB" stroke-width="1.66693" stroke-linecap="round"/>
<path d="M388.908 90.4722C388.982 91.1362 388.986 91.7935 388.985 92.4432C388.984 93.2361 388.906 94.1655 389.289 95.0046C389.447 95.3505 389.928 95.2497 390.257 95.2405C390.781 95.2257 391.239 95.087 391.702 94.9886C392.51 94.8167 393.348 94.668 394.123 94.4581C394.75 94.2884 395.315 94.0635 395.925 93.882C396.07 93.8388 396.152 93.7588 396.304 93.7266" stroke="#E2DEDB" stroke-width="1.66693" stroke-linecap="round"/>
<path d="M391.004 87.6841C391.553 87.6567 393.005 88.5688 393.392 88.8445C393.951 89.2439 394.75 89.7446 395.145 90.2107" stroke="#E2DEDB" stroke-width="1.66693" stroke-linecap="round"/>
<path d="M397.441 92.0649L397.747 92.4258" stroke="#E2DEDB" stroke-width="1.66693" stroke-linecap="round"/>
</g>
<g filter="url(#filter1_d_6003_197226)">
<path d="M120.32 271.234C120.997 270.971 121.335 270.839 121.43 270.653C121.513 270.492 121.51 270.3 121.424 270.141C121.324 269.958 120.982 269.835 120.299 269.59L102.869 263.333C102.31 263.133 102.031 263.032 101.848 263.096C101.689 263.151 101.564 263.275 101.509 263.434C101.446 263.617 101.546 263.897 101.747 264.456L108.004 281.885C108.249 282.568 108.371 282.91 108.555 283.01C108.714 283.097 108.905 283.099 109.067 283.017C109.253 282.922 109.384 282.583 109.647 281.907L112.496 274.582C112.547 274.449 112.573 274.383 112.613 274.327C112.648 274.278 112.691 274.235 112.741 274.199C112.797 274.16 112.863 274.134 112.996 274.082L120.32 271.234Z" fill="url(#paint1_linear_6003_197226)" stroke="#FEFDFB" stroke-width="0.5" stroke-linecap="round" stroke-linejoin="round"/>
<rect x="121.49" y="283.077" width="37" height="24" rx="2" fill="url(#paint2_linear_6003_197226)"/>
<path d="M129.936 291.706L132.584 291.706L132.584 299.077L133.873 299.077L133.873 291.706L136.51 291.706L136.51 290.592L129.936 290.592L129.936 291.706ZM137.717 299.077L138.971 299.077L138.971 292.713L137.717 292.713L137.717 299.077ZM137.553 290.991C137.559 291.401 137.916 291.735 138.35 291.729C138.777 291.735 139.135 291.401 139.135 290.991C139.135 290.581 138.777 290.252 138.35 290.252C137.916 290.252 137.559 290.581 137.553 290.991ZM140.494 299.077L141.748 299.077L141.748 295.151C141.748 294.295 142.346 293.709 143.049 293.709C143.734 293.709 144.209 294.161 144.209 294.858L144.209 299.077L145.451 299.077L145.451 295.022C145.451 294.26 145.914 293.709 146.717 293.709C147.373 293.709 147.912 294.067 147.912 294.928L147.912 299.077L149.166 299.077L149.166 294.811C149.16 293.352 148.346 292.631 147.197 292.631C146.277 292.631 145.586 293.071 145.287 293.756L145.217 293.756C144.947 293.047 144.355 292.631 143.506 292.631C142.668 292.631 142.041 293.047 141.771 293.756L141.701 293.756L141.701 292.713L140.494 292.713L140.494 299.077Z" fill="#FEFDFB"/>
</g>
<path d="M171.749 151.39L254.133 187.034C259.342 189.288 265.764 188.675 268.475 185.667C269.056 185.021 269.435 184.296 269.593 183.523L281.223 126.529C282.694 119.321 274.439 111.743 262.787 109.604C258.476 108.812 254.102 108.856 250.253 109.73L171.695 127.57C161.291 129.933 157.277 137.635 162.729 144.773C164.747 147.413 167.895 149.722 171.749 151.39Z" fill="#807B78"/>
<path d="M308.908 222.272C313.25 222.821 317.537 222.521 321.19 221.414L403.114 196.563C409.696 194.567 411.59 189.221 407.347 184.622C407.124 184.38 406.885 184.142 406.631 183.91C396.495 174.608 384.152 166.26 370.162 159.244C356.172 152.228 340.75 146.65 324.594 142.764C316.94 140.923 309.393 143.21 307.739 147.874C307.651 148.119 307.582 148.369 307.529 148.623L295.322 208.44C294.779 211.107 295.568 213.952 297.585 216.593L297.462 216.432C298.591 217.91 300.256 219.238 302.296 220.287C304.373 221.302 306.741 221.998 309.173 222.305" fill="#807B78"/>
<path d="M283.095 221.996C283.172 223.799 282.393 225.485 280.86 226.838L281.047 226.673C278.703 228.74 275.293 230.188 271.279 230.822L181.223 245.026C180.841 245.086 180.453 245.135 180.059 245.172C172.59 245.883 164.627 242.437 162.273 237.474C157.303 226.998 155.13 216.342 155.849 205.985C156.567 195.627 160.171 185.731 166.493 176.739C166.651 176.515 166.825 176.297 167.016 176.084C170.632 172.072 179.193 171.257 186.141 174.262L272.61 211.672C276.464 213.34 279.612 215.649 281.629 218.29L281.468 218.079C282.788 219.806 283.32 221.666 282.996 223.417" fill="#807B78"/>
<path d="M171.747 137.018L254.131 172.662C259.34 174.916 265.762 174.304 268.473 171.295C269.054 170.65 269.433 169.924 269.591 169.151L281.221 112.158C282.692 104.949 274.437 97.3716 262.785 95.2321C258.474 94.4408 254.1 94.4846 250.251 95.3587L171.693 113.199C161.289 115.561 157.275 123.263 162.727 130.401C164.745 133.041 167.893 135.35 171.747 137.018Z" fill="#514C49"/>
<path d="M308.908 207.9C313.25 208.449 317.537 208.15 321.19 207.042L403.114 182.191C409.696 180.195 411.59 174.849 407.347 170.251C407.124 170.008 406.885 169.77 406.631 169.538C396.495 160.236 384.152 151.889 370.162 144.872C356.172 137.856 340.75 132.278 324.594 128.392C316.94 126.551 309.393 128.839 307.739 133.502C307.651 133.747 307.582 133.998 307.529 134.252L295.322 194.068C294.779 196.735 295.568 199.58 297.585 202.221L297.462 202.061C298.591 203.539 300.256 204.867 302.296 205.916C304.373 206.931 306.741 207.626 309.173 207.933" fill="#FDC433"/>
<path d="M283.095 207.624C283.172 209.427 282.393 211.114 280.86 212.466L281.047 212.301C278.703 214.369 275.293 215.817 271.279 216.45L181.223 230.654C180.841 230.715 180.453 230.764 180.059 230.801C172.59 231.511 164.627 228.065 162.273 223.103C157.303 212.627 155.13 201.971 155.849 191.613C156.567 181.256 160.171 171.36 166.493 162.368C166.651 162.144 166.825 161.925 167.016 161.713C170.632 157.701 179.193 156.885 186.141 159.89L272.61 197.3C276.464 198.968 279.612 201.277 281.629 203.919L281.468 203.708C282.788 205.435 283.32 207.295 282.996 209.045" fill="#FDC433"/>
<rect x="366.49" y="298.077" width="16" height="46" rx="4" fill="#FC8539"/>
<rect x="398.49" y="310.077" width="16" height="34" rx="4" fill="#FC8539"/>
<rect x="430.49" y="284.077" width="16" height="60" rx="4" fill="#FC8539"/>
<rect x="462.49" y="258.077" width="16" height="86" rx="4" fill="#FC8539"/>
<rect width="90" height="22" transform="translate(60.4902 17.0767)" fill="#A385FB" fill-opacity="0.24"/>
<path d="M61.584 33.0767H62.8145V28.6606H68.0508V33.0767H69.2949V23.1782H68.0508V27.5806H62.8145V23.1782H61.584V33.0767ZM74.3535 33.2271C76.3701 33.2339 77.7236 31.7026 77.7168 29.3989C77.7236 27.0815 76.3701 25.5571 74.3535 25.5571C72.3301 25.5571 70.9629 27.0815 70.9629 29.3989C70.9629 31.7026 72.3301 33.2339 74.3535 33.2271ZM72.1387 29.3989C72.1455 27.9224 72.8428 26.5962 74.3535 26.5962C75.8506 26.5962 76.541 27.9224 76.541 29.3989C76.541 30.8823 75.8506 32.188 74.3535 32.188C72.8428 32.188 72.1455 30.8823 72.1387 29.3989ZM80.6836 33.0767H81.8594L83.459 27.4165H83.5684L85.1816 33.0767H86.3438L88.5996 25.6528H87.3691L85.7832 31.2856H85.7012L84.1562 25.6528H82.8984L81.3262 31.313H81.2578L79.6719 25.6528H78.4277L80.6836 33.0767ZM93.4121 33.0767H94.5879V28.4419C94.5879 27.3618 95.3672 26.6099 96.2559 26.6099C97.1104 26.6099 97.7119 27.1704 97.7051 28.0044V33.0767H98.8945V28.2505C98.9014 27.3071 99.4893 26.6099 100.521 26.6099C101.335 26.6099 102.019 27.0337 102.025 28.1274V33.0767H103.201V28.1138C103.201 26.3638 102.251 25.5571 100.932 25.5571C99.8652 25.5571 99.0791 26.0493 98.7031 26.8149H98.6211C98.2725 26.022 97.6094 25.5571 96.6387 25.5571C95.668 25.5571 94.9502 26.022 94.6426 26.8149H94.5469V25.6528H93.4121V33.0767ZM105.088 33.0767H106.264V25.6528H105.088V33.0767ZM104.855 23.6431C104.849 24.0737 105.225 24.4224 105.676 24.4224C106.127 24.4224 106.503 24.0737 106.51 23.6431C106.503 23.2056 106.127 22.8569 105.676 22.8638C105.225 22.8569 104.849 23.2056 104.855 23.6431ZM111.145 36.0161C112.956 36.0161 114.364 35.1958 114.371 33.2817V25.6528H113.223V26.8286H113.127C112.86 26.4321 112.396 25.5571 110.953 25.5571C109.087 25.5571 107.781 26.979 107.781 29.2622C107.781 31.6001 109.135 32.9604 110.939 32.9673C112.375 32.9604 112.847 32.1196 113.1 31.7095H113.195V33.2134C113.195 34.437 112.416 34.9907 111.145 34.9907C110.092 34.9907 109.388 34.6147 109.23 33.856H108C108.13 35.23 109.347 36.0161 111.145 36.0161ZM108.971 29.3032C108.971 27.8062 109.675 26.6099 111.104 26.6099C112.484 26.6099 113.216 27.7104 113.223 29.3032C113.216 30.937 112.464 31.9146 111.104 31.9146C109.695 31.9146 108.971 30.8413 108.971 29.3032ZM117.42 28.6196C117.42 27.3345 118.24 26.6099 119.348 26.6099C120.414 26.6099 121.057 27.2729 121.057 28.4419V33.0767H122.232V28.3599C122.232 26.4526 121.221 25.5571 119.703 25.5571C118.527 25.5571 117.864 26.0493 117.516 26.8149H117.42V23.1782H116.244V33.0767H117.42V28.6196ZM127.359 25.6528H125.801V23.8755H124.611V25.6528H123.49V26.6372H124.611V31.2446C124.618 32.5571 125.657 33.1724 126.648 33.1724C126.997 33.1724 127.284 33.145 127.469 33.1177V32.0239C127.298 32.0308 126.983 32.0513 126.771 32.0513C126.272 32.0513 125.794 31.894 125.801 30.9438V26.6372H127.359V25.6528ZM134.059 33.0767H135.234L136.834 27.4165H136.943L138.557 33.0767H139.719L141.975 25.6528H140.744L139.158 31.2856H139.076L137.531 25.6528H136.273L134.701 31.313H134.633L133.047 25.6528H131.803L134.059 33.0767ZM146.145 33.2271C147.676 33.2339 148.776 32.4683 149.125 31.3403H147.867C147.594 31.7983 147.033 32.188 146.145 32.188C144.825 32.188 143.909 31.3267 143.848 29.7544H149.234V29.2622C149.241 26.5142 147.594 25.5571 146.035 25.5571C144.019 25.5571 142.672 27.1431 142.672 29.4263C142.672 31.7026 143.998 33.2339 146.145 33.2271ZM143.854 28.7563C143.937 27.6079 144.75 26.5962 146.035 26.5962C147.259 26.5962 148.038 27.519 148.045 28.7563H143.854Z" fill="#764AF3"/>
<g filter="url(#filter2_d_6003_197226)">
<rect x="150.24" y="17.8267" width="1.5" height="20.5" rx="0.75" fill="url(#paint3_linear_6003_197226)" stroke="#FEFDFB" stroke-width="0.5"/>
<rect x="161.49" y="38.0767" width="41" height="24" rx="2" fill="url(#paint4_linear_6003_197226)"/>
<path d="M169.701 45.5923L172.771 50.7485L172.771 54.0767L174.061 54.0767L174.061 50.7485L177.143 45.5923L175.678 45.5923L173.463 49.436L173.369 49.436L171.166 45.5923L169.701 45.5923ZM179.756 54.2056C181.549 54.2056 182.721 52.8931 182.721 50.9243C182.721 48.9438 181.549 47.6313 179.756 47.6313C177.951 47.6313 176.773 48.9438 176.779 50.9243C176.773 52.8931 177.951 54.2056 179.756 54.2056ZM178.033 50.9243C178.033 49.7056 178.59 48.6685 179.756 48.6626C180.904 48.6685 181.455 49.7056 181.455 50.9243C181.455 52.1372 180.904 53.1626 179.756 53.1626C178.59 53.1626 178.033 52.1372 178.033 50.9243ZM183.951 54.0767L185.205 54.0767L185.205 50.1978C185.205 49.3657 185.85 48.7622 186.717 48.7681C186.975 48.7622 187.268 48.8149 187.373 48.8384L187.373 47.6431C187.244 47.6313 186.998 47.6138 186.846 47.6196C186.102 47.6138 185.463 48.0415 185.229 48.7212L185.158 48.7212L185.158 47.7134L183.951 47.7134L183.951 54.0767ZM188.311 54.0767L189.564 54.0767L189.564 51.8149L190.168 51.2173L192.33 54.0767L193.865 54.0767L191.117 50.4438L193.689 47.7134L192.189 47.7134L189.67 50.397L189.564 50.397L189.564 45.5923L188.311 45.5923L188.311 54.0767Z" fill="#FEFDFB"/>
</g>
<path d="M371.13 87.3251C379.121 80.7105 389.918 58.6825 399.438 48.4639C408.957 38.2453 416.522 39.9411 415.792 46.1807C415.061 52.4203 399.366 67.6895 393.882 77.3669C388.397 87.0443 394.018 92.7627 401.068 85.944C408.118 79.1252 419.029 70.2676 420.629 77.7333C422.229 85.199 410.039 90.2067 417.891 90.9113C425.743 91.616 424.211 94.877 424.726 98.8467" stroke="#5AD198" stroke-width="4" stroke-linecap="round"/>
<g filter="url(#filter3_d_6003_197226)">
<g clip-path="url(#clip11_6003_197226)">
<g filter="url(#filter4_d_6003_197226)">
<path d="M425.326 96.0488L425.575 96.0721L425.326 96.0488C425.175 97.667 426.361 99.1025 427.979 99.2579L428.003 99.009L427.979 99.2579C428.514 99.3093 429.054 99.2452 429.563 99.0701L435.024 97.1877L435.024 97.1877C435.315 97.0874 435.586 96.9356 435.823 96.7394L444.872 89.2587C445.459 88.7729 445.615 87.9366 445.243 87.2716C443.979 85.0183 442.32 83.0112 440.344 81.3468L440.183 81.538L440.344 81.3468C439.761 80.8556 438.91 80.8517 438.323 81.3374L429.274 88.8182C429.037 89.0143 428.837 89.2515 428.684 89.5186L425.808 94.529L426.025 94.6534L425.808 94.529C425.541 94.9952 425.376 95.5135 425.326 96.0488Z" fill="url(#paint5_linear_6003_197226)" stroke="#FEFDFB" stroke-width="0.5"/>
<path d="M428.47 99.0321L428.47 99.0321C428.258 99.232 428.12 99.2887 427.904 99.3778L427.809 99.1466L427.904 99.3778L427.895 99.3818C427.132 99.6962 426.548 99.9371 426.103 100.087C425.67 100.233 425.313 100.315 425.03 100.251L425.03 100.251C424.327 100.093 423.819 99.4788 423.796 98.758L423.796 98.758C423.786 98.469 423.934 98.1328 424.159 97.7351C424.39 97.3266 424.736 96.7982 425.188 96.1084L425.194 96.0995C425.322 95.904 425.404 95.7797 425.64 95.6088L425.64 95.6088C425.779 95.5079 426.008 95.4304 426.207 95.3827C426.406 95.335 426.645 95.3007 426.815 95.3275C426.936 95.3466 427.015 95.3613 427.071 95.3767L428.47 99.0321ZM428.47 99.0321C428.595 98.9142 428.714 98.7046 428.799 98.5178C428.883 98.331 428.962 98.1031 428.967 97.9311C428.971 97.8087 428.972 97.7286 428.967 97.6701C428.962 97.5976 428.948 97.5564 428.936 97.5206M428.47 99.0321L428.936 97.5206M428.936 97.5206C428.811 97.1566 428.601 96.744 428.257 96.327M428.936 97.5206L428.257 96.327M428.257 96.327C427.912 95.9101 427.546 95.6271 427.212 95.4356L428.257 96.327Z" fill="url(#paint6_linear_6003_197226)" stroke="#FEFDFB" stroke-width="0.5"/>
<path d="M435.145 93.5172C434.694 93.8901 434.015 93.7618 433.731 93.25C433.367 92.5941 432.885 92.0111 432.31 91.5306C431.86 91.1556 431.862 90.4647 432.313 90.0918L439.324 84.2958C439.642 84.0326 439.801 83.9011 439.955 83.818C440.588 83.4767 441.364 83.5503 441.922 84.0045C442.058 84.1151 442.189 84.2743 442.452 84.5926C442.715 84.9109 442.847 85.0701 442.93 85.2242C443.271 85.8571 443.198 86.6332 442.744 87.1907C442.633 87.3265 442.474 87.458 442.156 87.7212L435.145 93.5172Z" fill="#FEFDFB"/>
</g>
</g>
<rect x="443.49" y="101.077" width="38" height="24" rx="2" fill="url(#paint7_linear_6003_197226)"/>
<path d="M453.084 117.077L453.857 114.838L457.162 114.838L457.936 117.077L459.307 117.077L456.248 108.592L454.76 108.592L451.713 117.077L453.084 117.077ZM454.227 113.76L455.475 110.139L455.533 110.139L456.787 113.76L454.227 113.76ZM461.533 108.592L460.279 108.592L460.279 117.077L461.533 117.077L461.533 108.592ZM466.033 110.713L464.732 110.713L464.732 109.19L463.49 109.19L463.49 110.713L462.553 110.713L462.553 111.709L463.49 111.709L463.49 115.459C463.479 116.62 464.363 117.159 465.342 117.159C465.687 117.159 465.957 117.135 466.127 117.112L466.127 116.022C465.951 116.04 465.676 116.057 465.494 116.057C465.09 116.051 464.738 115.922 464.732 115.202L464.732 111.709L466.033 111.709L466.033 110.713ZM469.877 117.206C471.67 117.206 472.842 115.893 472.842 113.924C472.842 111.944 471.67 110.631 469.877 110.631C468.072 110.631 466.895 111.944 466.9 113.924C466.895 115.893 468.072 117.206 469.877 117.206ZM468.154 113.924C468.154 112.706 468.711 111.668 469.877 111.663C471.025 111.668 471.576 112.706 471.576 113.924C471.576 115.137 471.025 116.163 469.877 116.163C468.711 116.163 468.154 115.137 468.154 113.924Z" fill="#FEFDFB"/>
</g>
<defs>
<filter id="filter0_d_6003_197226" x="327.055" y="293.521" width="16.2793" height="16.2806" filterUnits="userSpaceOnUse" color-interpolation-filters="sRGB">
<feFlood flood-opacity="0" result="BackgroundImageFix"/>
<feColorMatrix in="SourceAlpha" type="matrix" values="0 0 0 0 0 0 0 0 0 0 0 0 0 0 0 0 0 0 127 0" result="hardAlpha"/>
<feMorphology radius="3.33385" operator="erode" in="SourceAlpha" result="effect1_dropShadow_6003_197226"/>
<feOffset dy="3.33385"/>
<feGaussianBlur stdDeviation="1.66693"/>
<feColorMatrix type="matrix" values="0 0 0 0 0 0 0 0 0 0 0 0 0 0 0 0 0 0 0.2 0"/>
<feBlend mode="multiply" in2="BackgroundImageFix" result="effect1_dropShadow_6003_197226"/>
<feBlend mode="normal" in="SourceGraphic" in2="effect1_dropShadow_6003_197226" result="shape"/>
</filter>
<filter id="filter1_d_6003_197226" x="93.2402" y="262.827" width="73.25" height="60.25" filterUnits="userSpaceOnUse" color-interpolation-filters="sRGB">
<feFlood flood-opacity="0" result="BackgroundImageFix"/>
<feColorMatrix in="SourceAlpha" type="matrix" values="0 0 0 0 0 0 0 0 0 0 0 0 0 0 0 0 0 0 127 0" result="hardAlpha"/>
<feOffset dy="8"/>
<feGaussianBlur stdDeviation="4"/>
<feComposite in2="hardAlpha" operator="out"/>
<feColorMatrix type="matrix" values="0 0 0 0 0 0 0 0 0 0 0 0 0 0 0 0 0 0 0.08 0"/>
<feBlend mode="normal" in2="BackgroundImageFix" result="effect1_dropShadow_6003_197226"/>
<feBlend mode="normal" in="SourceGraphic" in2="effect1_dropShadow_6003_197226" result="shape"/>
</filter>
<filter id="filter2_d_6003_197226" x="133.49" y="17.5767" width="77" height="60.5" filterUnits="userSpaceOnUse" color-interpolation-filters="sRGB">
<feFlood flood-opacity="0" result="BackgroundImageFix"/>
<feColorMatrix in="SourceAlpha" type="matrix" values="0 0 0 0 0 0 0 0 0 0 0 0 0 0 0 0 0 0 127 0" result="hardAlpha"/>
<feOffset dy="8"/>
<feGaussianBlur stdDeviation="4"/>
<feComposite in2="hardAlpha" operator="out"/>
<feColorMatrix type="matrix" values="0 0 0 0 0 0 0 0 0 0 0 0 0 0 0 0 0 0 0.08 0"/>
<feBlend mode="normal" in2="BackgroundImageFix" result="effect1_dropShadow_6003_197226"/>
<feBlend mode="normal" in="SourceGraphic" in2="effect1_dropShadow_6003_197226" result="shape"/>
</filter>
<filter id="filter3_d_6003_197226" x="407.834" y="75.2524" width="81.6562" height="65.8242" filterUnits="userSpaceOnUse" color-interpolation-filters="sRGB">
<feFlood flood-opacity="0" result="BackgroundImageFix"/>
<feColorMatrix in="SourceAlpha" type="matrix" values="0 0 0 0 0 0 0 0 0 0 0 0 0 0 0 0 0 0 127 0" result="hardAlpha"/>
<feOffset dy="8"/>
<feGaussianBlur stdDeviation="4"/>
<feComposite in2="hardAlpha" operator="out"/>
<feColorMatrix type="matrix" values="0 0 0 0 0 0 0 0 0 0 0 0 0 0 0 0 0 0 0.08 0"/>
<feBlend mode="normal" in2="BackgroundImageFix" result="effect1_dropShadow_6003_197226"/>
<feBlend mode="normal" in="SourceGraphic" in2="effect1_dropShadow_6003_197226" result="shape"/>
</filter>
<filter id="filter4_d_6003_197226" x="421.545" y="79.7256" width="26.1484" height="23.7974" filterUnits="userSpaceOnUse" color-interpolation-filters="sRGB">
<feFlood flood-opacity="0" result="BackgroundImageFix"/>
<feColorMatrix in="SourceAlpha" type="matrix" values="0 0 0 0 0 0 0 0 0 0 0 0 0 0 0 0 0 0 127 0" result="hardAlpha"/>
<feOffset dy="1"/>
<feGaussianBlur stdDeviation="1"/>
<feComposite in2="hardAlpha" operator="out"/>
<feColorMatrix type="matrix" values="0 0 0 0 0 0 0 0 0 0 0 0 0 0 0 0 0 0 0.4 0"/>
<feBlend mode="normal" in2="BackgroundImageFix" result="effect1_dropShadow_6003_197226"/>
<feBlend mode="normal" in="SourceGraphic" in2="effect1_dropShadow_6003_197226" result="shape"/>
</filter>
<linearGradient id="paint0_linear_6003_197226" x1="333.898" y1="304.103" x2="336.524" y2="301.88" gradientUnits="userSpaceOnUse">
<stop stop-color="#EFEFEF"/>
<stop offset="0.526042" stop-color="#E6E6E6"/>
<stop offset="1" stop-color="#EFEFEF"/>
</linearGradient>
<linearGradient id="paint1_linear_6003_197226" x1="111.49" y1="263.077" x2="111.49" y2="283.077" gradientUnits="userSpaceOnUse">
<stop stop-color="#FC94D8"/>
<stop offset="1" stop-color="#F44954"/>
</linearGradient>
<linearGradient id="paint2_linear_6003_197226" x1="139.99" y1="283.077" x2="139.99" y2="307.077" gradientUnits="userSpaceOnUse">
<stop stop-color="#FC94D8"/>
<stop offset="1" stop-color="#F44954"/>
</linearGradient>
<linearGradient id="paint3_linear_6003_197226" x1="150.99" y1="18.0767" x2="150.99" y2="38.0767" gradientUnits="userSpaceOnUse">
<stop stop-color="#84B5FF"/>
<stop offset="1" stop-color="#855CF9"/>
</linearGradient>
<linearGradient id="paint4_linear_6003_197226" x1="181.99" y1="38.0767" x2="181.99" y2="62.0767" gradientUnits="userSpaceOnUse">
<stop stop-color="#84B5FF"/>
<stop offset="1" stop-color="#855CF9"/>
</linearGradient>
<linearGradient id="paint5_linear_6003_197226" x1="426.182" y1="98.0426" x2="442.868" y2="84.2477" gradientUnits="userSpaceOnUse">
<stop stop-color="#D7E38B"/>
<stop offset="1" stop-color="#23C176"/>
</linearGradient>
<linearGradient id="paint6_linear_6003_197226" x1="424.351" y1="99.5562" x2="428.064" y2="96.4863" gradientUnits="userSpaceOnUse">
<stop stop-color="#D7E38B"/>
<stop offset="1" stop-color="#23C176"/>
</linearGradient>
<linearGradient id="paint7_linear_6003_197226" x1="462.49" y1="101.077" x2="462.49" y2="125.077" gradientUnits="userSpaceOnUse">
<stop stop-color="#D7E38B"/>
<stop offset="1" stop-color="#23C176"/>
</linearGradient>
<clipPath id="clip0_6003_197226">
<rect width="538.417" height="350.055" rx="6.66771" transform="matrix(0.978148 -0.207912 0.646257 0.76312 -108 111.943)" fill="white"/>
</clipPath>
<clipPath id="clip1_6003_197226">
<rect width="16.6693" height="16.6693" rx="3.33385" transform="matrix(0.978148 -0.207912 0.646257 0.76312 318.238 293.783)" fill="white"/>
</clipPath>
<clipPath id="clip2_6003_197226">
<rect width="16.6693" height="16.6693" rx="3.33385" transform="matrix(0.978148 -0.207912 0.646257 0.76312 288.893 300.021)" fill="white"/>
</clipPath>
<clipPath id="clip3_6003_197226">
<rect width="10.0016" height="10.0016" fill="white" transform="matrix(0.978148 -0.207912 0.646257 0.76312 294.307 301.873)"/>
</clipPath>
<clipPath id="clip4_6003_197226">
<rect width="16.6693" height="16.6693" rx="3.33385" transform="matrix(0.978148 -0.207912 0.646257 0.76312 262.803 305.567)" fill="white"/>
</clipPath>
<clipPath id="clip5_6003_197226">
<rect width="10.0016" height="10.0016" fill="white" transform="matrix(0.978148 -0.207912 0.646257 0.76312 268.221 307.418)"/>
</clipPath>
<clipPath id="clip6_6003_197226">
<rect width="16.6693" height="16.6693" rx="3.33385" transform="matrix(0.978148 -0.207912 0.646257 0.76312 344.326 288.238)" fill="white"/>
</clipPath>
<clipPath id="clip7_6003_197226">
<rect width="16.6693" height="16.6693" rx="3.33385" transform="matrix(0.978148 -0.207912 0.646257 0.76312 370.414 282.693)" fill="white"/>
</clipPath>
<clipPath id="clip8_6003_197226">
<rect width="16.6693" height="16.6693" rx="3.33385" transform="matrix(0.978148 -0.207912 0.646257 0.76312 396.504 277.148)" fill="white"/>
</clipPath>
<clipPath id="clip9_6003_197226">
<rect width="16.6693" height="16.6693" rx="3.33385" transform="matrix(0.978148 -0.207912 0.646257 0.76312 422.592 271.603)" fill="white"/>
</clipPath>
<clipPath id="clip10_6003_197226">
<rect width="9.42176" height="9.09233" fill="white" transform="matrix(0.978148 -0.207912 0.646257 0.76312 428.406 273.523)"/>
</clipPath>
<clipPath id="clip11_6003_197226">
<rect width="16.8889" height="32" fill="white" transform="translate(426.596 108.659) rotate(-129.582)"/>
</clipPath>
</defs>
</svg>
