<svg width="362" height="430" viewBox="0 0 362 430" fill="none" xmlns="http://www.w3.org/2000/svg">
<g clip-path="url(#clip0_6004_235921)">
<path d="M310.682 391.645H323.633V423.336C323.633 426.905 320.734 429.797 317.157 429.797C313.58 429.797 310.682 426.905 310.682 423.336V391.645Z" fill="#C2BDBA"/>
<path d="M149.715 248.269H162.666V279.96C162.666 283.529 159.768 286.421 156.191 286.421C152.613 286.421 149.715 283.529 149.715 279.96V248.269Z" fill="#C2BDBA"/>
<path d="M344.971 423.73L146.217 248.829C140.519 243.814 137.25 236.59 137.25 229.008V10.2455C137.25 1.43989 147.66 -3.24908 154.278 2.57828L353.032 177.479C358.73 182.494 361.999 189.718 361.999 197.299V416.056C361.999 424.862 351.589 429.551 344.971 423.723V423.73Z" fill="#C2BDBA"/>
<path d="M335.721 427.421L136.967 252.521C131.269 247.506 128 240.281 128 232.7V13.9374C128 5.13178 138.41 0.442818 145.028 6.27018L343.782 181.171C349.48 186.186 352.749 193.41 352.749 200.991V419.748C352.749 428.554 342.339 433.243 335.721 427.415V427.421Z" fill="#EFECEB"/>
<path d="M335.831 410.961L148.518 246.121C143.788 241.962 141.08 235.968 141.08 229.679V30.6076C141.08 28.6262 143.424 27.5678 144.91 28.8785L332.23 193.724C336.96 197.884 339.667 203.878 339.667 210.167V409.238C339.667 411.22 337.324 412.278 335.837 410.967L335.831 410.961Z" fill="#FAF8F6"/>
<path d="M225.628 244.294L169.425 195.552C166.872 193.336 165.41 190.13 165.41 186.758V117.052C165.41 114.849 168.007 113.673 169.672 115.113L225.874 163.855C228.428 166.07 229.889 169.276 229.889 172.648V242.355C229.889 244.558 227.293 245.733 225.628 244.294Z" stroke="#C2BDBA" stroke-miterlimit="10"/>
<path d="M302.102 342.135L245.9 293.393C243.346 291.177 241.885 287.971 241.885 284.599V208.739C241.885 206.536 244.481 205.361 246.146 206.801L302.349 255.543C304.902 257.758 306.364 260.964 306.364 264.336V340.196C306.364 342.399 303.768 343.574 302.102 342.135Z" stroke="#C2BDBA" stroke-miterlimit="10"/>
<path d="M295.88 293.682L249.625 253.555V222.794L295.88 262.921V293.682Z" stroke="#C2BDBA" stroke-miterlimit="10"/>
<path d="M182.709 178.119C185.604 178.119 187.951 174.813 187.951 170.735C187.951 166.657 185.604 163.351 182.709 163.351C179.814 163.351 177.467 166.657 177.467 170.735C177.467 174.813 179.814 178.119 182.709 178.119Z" stroke="#C2BDBA" stroke-miterlimit="10"/>
<path d="M206.145 196.58C209.04 196.58 211.387 193.274 211.387 189.196C211.387 185.118 209.04 181.812 206.145 181.812C203.249 181.812 200.902 185.118 200.902 189.196C200.902 193.274 203.249 196.58 206.145 196.58Z" stroke="#C2BDBA" stroke-miterlimit="10"/>
<path d="M174.846 179.7L187.951 190.475" stroke="#C2BDBA" stroke-miterlimit="10"/>
<path d="M197.666 196.315L210.772 207.09" stroke="#C2BDBA" stroke-miterlimit="10"/>
<path d="M174.846 185.238L187.951 196.013" stroke="#C2BDBA" stroke-miterlimit="10"/>
<path d="M197.666 201.853L210.772 212.628" stroke="#C2BDBA" stroke-miterlimit="10"/>
<g filter="url(#filter0_d_6004_235921)">
<path d="M288.318 202.386C288.833 202.563 289.09 202.651 289.163 202.526C289.225 202.419 289.223 202.226 289.157 202.01C289.081 201.762 288.822 201.418 288.302 200.728L275.049 183.152C274.623 182.588 274.411 182.307 274.272 182.251C274.151 182.203 274.056 182.247 274.014 182.37C273.966 182.512 274.043 182.856 274.195 183.546L278.953 205.038C279.139 205.881 279.233 206.303 279.372 206.522C279.493 206.711 279.638 206.838 279.761 206.86C279.903 206.886 280.003 206.633 280.203 206.128L282.369 200.653C282.408 200.554 282.427 200.504 282.458 200.474C282.485 200.448 282.517 200.433 282.555 200.429C282.598 200.426 282.648 200.443 282.749 200.478L288.318 202.386Z" fill="url(#paint0_linear_6004_235921)" stroke="#FEFDFB" stroke-width="0.5" stroke-linecap="round" stroke-linejoin="round"/>
<rect width="37" height="24" rx="2" transform="matrix(0.760406 0.649448 0 1 289.209 214.989)" fill="url(#paint1_linear_6004_235921)"/>
<path d="M295.632 229.103L297.645 230.823V238.194L298.626 239.031V231.66L300.631 233.372V232.259L295.632 227.989V229.103ZM301.548 241.527L302.502 242.342V235.978L301.548 235.164V241.527ZM301.424 233.335C301.428 233.749 301.7 234.315 302.03 234.591C302.355 234.874 302.627 234.772 302.627 234.362C302.627 233.952 302.355 233.392 302.03 233.114C301.7 232.832 301.428 232.928 301.424 233.335ZM303.66 243.331L304.614 244.145V240.22C304.614 239.364 305.068 239.166 305.603 239.623C306.124 240.068 306.485 240.828 306.485 241.525V245.744L307.43 246.55V242.496C307.43 241.734 307.782 241.484 308.392 242.005C308.891 242.431 309.301 243.139 309.301 244V248.149L310.255 248.963V244.697C310.25 243.235 309.631 241.985 308.758 241.239C308.058 240.642 307.532 240.632 307.305 241.124L307.252 241.078C307.047 240.194 306.597 239.393 305.951 238.842C305.313 238.298 304.837 238.306 304.632 238.84L304.578 238.795V237.752L303.66 236.968V243.331Z" fill="#FEFDFB"/>
</g>
<path d="M247.56 274.541C253.238 273.209 260.91 259.178 267.674 255.407C274.437 251.635 279.813 257.811 279.294 263.198C278.775 268.585 267.623 273.328 263.726 279.042C259.829 284.757 263.823 293.511 268.832 291.418C273.841 289.325 281.594 287.67 282.731 295.617C283.868 303.564 275.206 300.846 280.786 306.269C286.365 311.693 285.276 313.81 285.642 317.832" stroke="#5AD198" stroke-width="4" stroke-linecap="round"/>
<g clip-path="url(#clip1_6004_235921)">
<g filter="url(#filter1_d_6004_235921)">
<path d="M286.057 315.572L286.246 315.757L286.057 315.572C285.949 317 286.797 319.074 287.953 320.208L287.971 319.974L287.953 320.208C288.335 320.582 288.721 320.851 289.083 320.997L289.022 320.708L289.083 320.997L292.964 322.552L292.964 322.552C293.172 322.636 293.366 322.658 293.536 322.619L299.965 321.12C300.387 321.021 300.499 320.327 300.232 319.47C299.333 316.595 298.153 313.711 296.748 310.954C296.329 310.132 295.718 309.607 295.296 309.705L288.867 311.204C288.697 311.244 288.554 311.345 288.444 311.502L286.401 314.439L286.566 314.704L286.401 314.439C286.21 314.713 286.093 315.1 286.057 315.572Z" fill="url(#paint2_linear_6004_235921)" stroke="#FEFDFB" stroke-width="0.5"/>
<path d="M288.313 320.299L288.313 320.299C288.16 320.357 288.061 320.326 287.907 320.278L287.834 319.985L287.907 320.278L287.899 320.276C287.358 320.107 286.943 319.978 286.626 319.848C286.319 319.721 286.062 319.58 285.857 319.345L285.857 319.345C285.352 318.763 284.987 317.872 284.97 317.176L284.97 317.176C284.964 316.895 285.07 316.669 285.23 316.434C285.394 316.192 285.641 315.908 285.962 315.538L285.966 315.533L285.966 315.533C286.057 315.428 286.116 315.36 286.286 315.343L286.286 315.343C286.387 315.334 286.551 315.401 286.693 315.477C286.835 315.554 287.007 315.668 287.13 315.799C287.216 315.89 287.272 315.952 287.313 316.002L288.313 320.299ZM288.313 320.299C288.404 320.264 288.489 320.138 288.549 320.015C288.609 319.891 288.666 319.724 288.67 319.563C288.673 319.452 288.673 319.376 288.67 319.318C288.666 319.244 288.656 319.196 288.647 319.154M288.313 320.299L288.647 319.154M288.647 319.154C288.557 318.736 288.408 318.221 288.162 317.62M288.647 319.154L288.162 317.62M288.162 317.62C287.916 317.019 287.655 316.53 287.416 316.146L288.162 317.62Z" fill="url(#paint3_linear_6004_235921)" stroke="#FEFDFB" stroke-width="0.5"/>
<path d="M293.046 319.176C292.725 319.251 292.243 318.719 292.041 318.068C291.783 317.235 291.44 316.398 291.031 315.599C290.712 314.976 290.713 314.331 291.033 314.257L296.015 313.095C296.241 313.043 296.354 313.016 296.463 313.032C296.913 313.097 297.465 313.637 297.861 314.4C297.957 314.585 298.051 314.814 298.238 315.271C298.425 315.728 298.518 315.957 298.577 316.151C298.82 316.95 298.767 317.63 298.445 317.876C298.366 317.935 298.253 317.962 298.027 318.015L293.046 319.176Z" fill="#FEFDFB"/>
</g>
</g>
<rect width="35.508" height="22.4261" rx="2" transform="matrix(0.760406 0.649448 -1.77382e-08 1 298.975 331.303)" fill="url(#paint4_linear_6004_235921)"/>
<path d="M306.27 352.747L306.859 351.011L309.372 353.157L309.96 355.898L311.002 356.788L308.676 346.317L307.545 345.351L305.228 351.857L306.27 352.747ZM307.139 350.173L308.088 347.362L308.133 347.4L309.086 351.836L307.139 350.173ZM312.695 349.75L311.742 348.936L311.742 357.42L312.695 358.234L312.695 349.75ZM316.117 354.794L315.128 353.949L315.128 352.425L314.183 351.619L314.183 353.142L313.471 352.533L313.471 353.529L314.183 354.138L314.183 357.888C314.175 359.041 314.847 360.154 315.591 360.79C315.854 361.014 316.059 361.166 316.188 361.253L316.188 360.163C316.055 360.066 315.845 359.905 315.707 359.787C315.4 359.519 315.132 359.162 315.128 358.437L315.128 354.945L316.117 355.79L316.117 354.794ZM319.04 363.782C320.403 364.946 321.294 364.395 321.294 362.426C321.294 360.446 320.403 358.372 319.04 357.208C317.668 356.036 316.772 356.583 316.777 358.568C316.772 360.533 317.668 362.61 319.04 363.782ZM317.73 359.382C317.73 358.163 318.153 357.488 319.04 358.239C319.913 358.991 320.332 360.386 320.332 361.604C320.332 362.817 319.913 363.485 319.04 362.739C318.153 361.982 317.73 360.595 317.73 359.382Z" fill="#FEFDFB"/>
<rect width="25.1911" height="25.1911" rx="12.5956" transform="matrix(0.760406 0.649448 0 1 183.264 84.7251)" fill="url(#paint5_linear_6004_235921)"/>
<g clip-path="url(#clip2_6004_235921)">
<path fill-rule="evenodd" clip-rule="evenodd" d="M192.843 101.022C192.02 100.32 191.353 100.627 191.353 101.709C191.353 102.791 192.02 104.238 192.843 104.941C193.666 105.644 194.333 105.336 194.333 104.254C194.333 103.172 193.666 101.725 192.843 101.022ZM190.501 100.982C190.501 99.2816 191.55 98.7984 192.843 99.9027C194.136 101.007 195.184 103.281 195.184 104.981C195.184 106.682 194.136 107.165 192.843 106.061C191.55 104.956 190.501 102.682 190.501 100.982ZM192.843 108.3C191.484 107.14 190.243 106.857 189.321 107.356C189.16 107.443 188.891 107.223 188.72 106.865C188.549 106.507 188.541 106.146 188.702 106.059C189.769 105.482 191.227 105.801 192.843 107.18C194.458 108.56 195.917 110.733 196.984 113.132C197.145 113.494 197.137 113.842 196.966 113.908C196.795 113.974 196.525 113.733 196.364 113.371C195.442 111.297 194.201 109.46 192.843 108.3Z" fill="white"/>
</g>
<rect width="25.1911" height="25.1911" rx="12.5956" transform="matrix(0.760406 0.649448 0 1 159 64.0024)" fill="url(#paint6_linear_6004_235921)"/>
<g clip-path="url(#clip3_6004_235921)">
<path fill-rule="evenodd" clip-rule="evenodd" d="M168.577 80.2992C167.754 79.5964 167.087 79.9039 167.087 80.986C167.087 82.0681 167.754 83.515 168.577 84.2178C169.4 84.9206 170.067 84.6131 170.067 83.531C170.067 82.4489 169.4 81.0019 168.577 80.2992ZM166.236 80.2589C166.236 78.5585 167.284 78.0752 168.577 79.1796C169.87 80.2839 170.918 82.5577 170.918 84.2581C170.918 85.9585 169.87 86.4418 168.577 85.3374C167.284 84.2331 166.236 81.9593 166.236 80.2589ZM168.577 87.5766C167.219 86.4164 165.978 86.134 165.056 86.6325C164.894 86.7197 164.625 86.5001 164.454 86.1419C164.283 85.7837 164.275 85.4226 164.436 85.3354C165.503 84.7586 166.962 85.0774 168.577 86.457C170.192 87.8367 171.651 90.0097 172.718 92.4086C172.879 92.7713 172.871 93.1188 172.7 93.1848C172.529 93.2508 172.26 93.0103 172.098 92.6476C171.177 90.5743 169.936 88.7368 168.577 87.5766Z" fill="white"/>
</g>
<rect width="25.1911" height="25.1911" rx="12.5956" transform="matrix(0.760406 0.649448 0 1 217.387 113.868)" fill="url(#paint7_linear_6004_235921)"/>
<g clip-path="url(#clip4_6004_235921)">
<path fill-rule="evenodd" clip-rule="evenodd" d="M226.964 130.166C226.141 129.463 225.474 129.771 225.474 130.853C225.474 131.935 226.141 133.382 226.964 134.085C227.787 134.787 228.454 134.48 228.454 133.398C228.454 132.316 227.787 130.869 226.964 130.166ZM224.623 130.126C224.623 128.425 225.671 127.942 226.964 129.046C228.257 130.151 229.305 132.424 229.305 134.125C229.305 135.825 228.257 136.308 226.964 135.204C225.671 134.1 224.623 131.826 224.623 130.126ZM226.964 137.443C225.605 136.283 224.364 136.001 223.442 136.499C223.281 136.586 223.012 136.367 222.841 136.009C222.67 135.65 222.662 135.289 222.823 135.202C223.89 134.625 225.348 134.944 226.964 136.324C228.579 137.703 230.038 139.876 231.105 142.275C231.266 142.638 231.258 142.986 231.087 143.052C230.916 143.118 230.646 142.877 230.485 142.514C229.563 140.441 228.322 138.604 226.964 137.443Z" fill="white"/>
</g>
</g>
<g clip-path="url(#clip5_6004_235921)">
<path d="M100.29 316.245C100.137 308.062 95.7978 297.594 90.4446 292.496C88.7395 290.87 87.1151 289.945 85.6747 289.667C84.4856 289.433 83.1753 288.522 81.91 287.116V250.81C81.91 249.058 80.9676 246.804 79.801 245.771L55.8528 224.546C55.3099 226.491 55.3637 229.208 56.0906 232.208C56.7547 234.961 57.0958 237.7 57.0195 240.197C56.7861 248.034 52.3752 250.644 47.022 246.126C41.1886 241.208 36.4053 229.94 36.4053 221.231C36.4053 218.999 36.7194 217.158 37.2848 215.743C38.0072 213.938 38.1149 211.306 37.5765 208.347L13.7809 187.261C12.6142 186.228 11.6719 186.812 11.6719 188.559V281.78C11.6719 286.833 14.4001 293.35 17.761 296.327L69.6644 357.069C70.8311 358.102 81.9144 351.765 81.9144 350.018V313.744C83.2202 314.633 84.5709 316.119 85.8138 318.051C87.0882 320.027 80.4112 329.332 82.2285 330.127C89.4081 333.271 100.46 325.164 100.294 316.254L100.29 316.245Z" fill="#764AF3"/>
<path d="M47.0939 246.642C52.4516 251.16 56.858 248.551 57.0914 240.714C57.1676 238.217 56.8266 235.477 56.1625 232.724C55.6151 230.447 55.449 228.341 55.6375 226.603L68.3138 253.32C69.4805 254.353 81.91 248.466 81.91 246.719V210.736C80.2946 208.49 78.5222 206.999 76.9517 206.694C75.5113 206.411 73.8914 205.49 72.1818 203.865C66.8286 198.767 62.4895 188.298 62.3369 180.116C62.1709 171.201 60.2773 167.797 66.0702 172.934C67.5555 174.25 70.1087 188.653 70.1087 188.653C70.1087 188.653 80.2587 182.617 81.91 183.268V147.519C81.91 145.768 80.9677 143.513 79.8011 142.48L17.7566 87.4868C14.3957 84.5092 2.80078 86.1395 2.80078 91.1919L11.6675 184.463C11.6675 186.215 12.6098 188.469 13.7765 189.502L37.9176 210.898C38.0971 213.017 37.9041 214.877 37.3522 216.255C36.7868 217.67 36.4727 219.512 36.4727 221.744C36.4727 230.452 41.2561 241.72 47.0894 246.638L47.0939 246.642Z" fill="#10B366"/>
<path d="M174.103 320.696L150.267 299.57C149.607 296.386 149.688 293.547 150.451 291.629C151.016 290.215 151.33 288.373 151.33 286.141C151.33 277.433 146.547 266.165 140.714 261.247C135.356 256.729 123.057 259.608 120.813 267.692C120.144 270.099 130.976 272.412 131.641 275.165C132.408 278.354 132.426 281.219 131.766 283.182L108.074 262.186C106.907 261.153 94.7827 265.496 94.7827 267.247L105.965 299.107C107.692 301.712 109.653 303.464 111.372 303.796C112.812 304.079 114.432 304.999 116.142 306.625C121.495 311.723 125.834 322.191 125.987 330.374C126.153 339.289 121.473 342.325 115.68 337.187C114.194 335.871 112.785 334.151 111.511 332.171C109.734 329.413 107.737 327.549 105.965 327.069L94.334 332.813C94.334 334.564 106.907 366.689 108.074 367.722L161.642 429.371C165.007 432.353 176.207 424.009 176.207 418.957V325.735C176.207 323.983 175.265 321.729 174.098 320.696H174.103Z" fill="#F5B103"/>
<path d="M99.2739 126.222L110.752 156.573C109.02 156.025 107.086 154.193 105.359 151.516C104.084 149.54 102.671 147.815 101.19 146.5C95.3925 141.362 80.7104 146.5 80.8764 155.414C81.029 163.597 95.37 171.964 100.723 177.061C102.428 178.687 104.053 179.612 105.493 179.891C107.162 180.214 109.06 181.876 110.752 184.359V219.956C110.752 221.707 123.684 250.486 124.851 251.519L136.571 246.004C137.289 244.042 137.294 241.1 136.504 237.817C135.84 235.064 135.499 232.324 135.575 229.827C135.809 221.99 140.22 219.381 145.573 223.899C151.406 228.817 156.189 240.085 156.189 248.793C156.189 251.025 155.875 252.867 155.31 254.281C154.525 256.253 154.462 259.204 155.184 262.5L167.031 288.795C168.197 289.828 180.999 283.959 180.999 282.207V188.994C180.999 183.942 178.271 177.425 174.91 174.448L112.866 119.459C111.699 118.426 99.7271 123.078 99.2784 126.222H99.2739Z" fill="#F27B2F"/>
<path d="M88.6221 321.634C88.4695 313.452 84.1304 302.983 78.7772 297.885C77.0721 296.26 75.4477 295.335 74.0073 295.056C72.8182 294.823 71.5079 293.911 70.2426 292.505V256.199C70.2426 254.448 69.3002 252.193 68.1336 251.16L44.1854 229.935C43.6425 231.88 43.6963 234.597 44.4232 237.597C45.0873 240.35 45.4284 243.09 45.3521 245.587C45.1187 253.424 40.7078 256.033 35.3546 251.515C29.5213 246.597 24.7379 235.329 24.7379 226.621C24.7379 224.389 25.052 222.547 25.6174 221.133C26.3398 219.327 26.4475 216.695 25.9091 213.736L2.10898 192.646C0.942311 191.613 0 192.196 0 193.944V287.165C0 292.218 2.72821 298.734 6.08912 301.712L68.1336 356.701C69.3002 357.734 70.2426 357.15 70.2426 355.403V319.128C71.5483 320.018 72.899 321.504 74.1419 323.435C75.4163 325.411 76.8298 327.136 78.3105 328.452C84.108 333.59 88.7836 330.549 88.6176 321.639L88.6221 321.634Z" fill="#A385FB"/>
<path d="M35.4264 252.032C40.7841 256.55 45.1905 253.94 45.4239 246.103C45.5002 243.606 45.1591 240.867 44.495 238.114C43.9476 235.837 43.7816 233.73 43.97 231.992L68.1336 253.406C69.3002 254.439 70.2426 253.855 70.2426 252.108V216.125C68.6272 213.88 66.8547 212.389 65.2842 212.083C63.8438 211.8 62.2239 210.88 60.5143 209.254C55.1611 204.156 50.822 193.688 50.6694 185.505C50.5034 176.59 55.1835 173.554 60.9765 178.692C62.4618 180.008 63.8707 181.728 65.1451 183.709C66.7739 186.237 68.5868 188.007 70.2426 188.662V152.913C70.2426 151.162 69.3002 148.907 68.1336 147.874L6.08912 92.8761C2.72821 89.8985 0 91.5782 0 96.6307V189.852C0 191.604 0.942311 193.858 2.10898 194.891L26.2501 216.287C26.4296 218.407 26.2366 220.266 25.6847 221.645C25.1193 223.06 24.8052 224.901 24.8052 227.133C24.8052 235.841 29.5886 247.109 35.4219 252.027L35.4264 252.032Z" fill="#5AD198"/>
<path d="M162.436 326.085L138.6 304.959C137.941 301.775 138.021 298.936 138.784 297.019C139.35 295.604 139.664 293.763 139.664 291.531C139.664 282.822 134.88 271.554 129.047 266.636C123.689 262.118 119.283 264.728 119.05 272.565C118.973 275.062 119.314 277.801 119.978 280.554C120.746 283.743 120.764 286.608 120.104 288.571L96.4117 267.575C95.245 266.542 94.3027 267.126 94.3027 268.873V304.492C96.0303 307.097 97.9912 308.848 99.7098 309.181C101.15 309.464 102.77 310.384 104.48 312.01C109.833 317.107 114.172 327.576 114.325 335.759C114.491 344.674 109.81 347.71 104.018 342.572C102.532 341.256 101.123 339.536 99.8489 337.555C98.072 334.798 96.0752 332.934 94.3027 332.454V368.068C94.3027 369.819 95.245 372.074 96.4117 373.107L158.456 428.096C161.822 431.078 164.545 429.398 164.545 424.341V331.12C164.545 329.368 163.603 327.114 162.436 326.081V326.085Z" fill="#FED366"/>
<path d="M99.0904 126.146V161.962C97.3583 161.414 95.4243 159.582 93.6968 156.905C92.4224 154.929 91.0089 153.205 89.5282 151.889C83.7307 146.751 79.0551 149.791 79.2211 158.702C79.3737 166.884 83.7128 177.353 89.066 182.451C90.7711 184.076 92.3955 185.001 93.8359 185.28C95.5051 185.603 97.4032 187.265 99.0949 189.749V225.345C99.0949 227.097 100.037 229.351 101.204 230.384L124.91 251.393C125.628 249.431 125.632 246.489 124.842 243.206C124.178 240.453 123.837 237.713 123.914 235.216C124.147 227.379 128.558 224.77 133.911 229.288C139.744 234.206 144.528 245.474 144.528 254.182C144.528 256.414 144.214 258.256 143.648 259.67C142.863 261.642 142.8 264.593 143.523 267.889L167.228 288.898C168.395 289.931 169.337 289.348 169.337 287.601V194.383C169.337 189.331 166.609 182.814 163.248 179.837L101.199 124.848C100.033 123.815 99.0904 124.399 99.0904 126.146Z" fill="#FDA36A"/>
</g>
<defs>
<filter id="filter0_d_6004_235921" x="265.811" y="181.934" width="59.5332" height="97.0845" filterUnits="userSpaceOnUse" color-interpolation-filters="sRGB">
<feFlood flood-opacity="0" result="BackgroundImageFix"/>
<feColorMatrix in="SourceAlpha" type="matrix" values="0 0 0 0 0 0 0 0 0 0 0 0 0 0 0 0 0 0 127 0" result="hardAlpha"/>
<feOffset dy="8"/>
<feGaussianBlur stdDeviation="4"/>
<feComposite in2="hardAlpha" operator="out"/>
<feColorMatrix type="matrix" values="0 0 0 0 0 0 0 0 0 0 0 0 0 0 0 0 0 0 0.08 0"/>
<feBlend mode="normal" in2="BackgroundImageFix" result="effect1_dropShadow_6004_235921"/>
<feBlend mode="normal" in="SourceGraphic" in2="effect1_dropShadow_6004_235921" result="shape"/>
</filter>
<filter id="filter1_d_6004_235921" x="282.779" y="308.395" width="19.7871" height="17.541" filterUnits="userSpaceOnUse" color-interpolation-filters="sRGB">
<feFlood flood-opacity="0" result="BackgroundImageFix"/>
<feColorMatrix in="SourceAlpha" type="matrix" values="0 0 0 0 0 0 0 0 0 0 0 0 0 0 0 0 0 0 127 0" result="hardAlpha"/>
<feOffset dy="1"/>
<feGaussianBlur stdDeviation="1"/>
<feComposite in2="hardAlpha" operator="out"/>
<feColorMatrix type="matrix" values="0 0 0 0 0 0 0 0 0 0 0 0 0 0 0 0 0 0 0.4 0"/>
<feBlend mode="normal" in2="BackgroundImageFix" result="effect1_dropShadow_6004_235921"/>
<feBlend mode="normal" in="SourceGraphic" in2="effect1_dropShadow_6004_235921" result="shape"/>
</filter>
<linearGradient id="paint0_linear_6004_235921" x1="281.604" y1="188.494" x2="271.727" y2="200.059" gradientUnits="userSpaceOnUse">
<stop stop-color="#FC94D8"/>
<stop offset="1" stop-color="#F44954"/>
</linearGradient>
<linearGradient id="paint1_linear_6004_235921" x1="18.5" y1="0" x2="18.5" y2="24" gradientUnits="userSpaceOnUse">
<stop stop-color="#FC94D8"/>
<stop offset="1" stop-color="#F44954"/>
</linearGradient>
<linearGradient id="paint2_linear_6004_235921" x1="286.677" y1="317.966" x2="297.803" y2="313.416" gradientUnits="userSpaceOnUse">
<stop stop-color="#D7E38B"/>
<stop offset="1" stop-color="#23C176"/>
</linearGradient>
<linearGradient id="paint3_linear_6004_235921" x1="285.377" y1="318.269" x2="287.853" y2="317.257" gradientUnits="userSpaceOnUse">
<stop stop-color="#D7E38B"/>
<stop offset="1" stop-color="#23C176"/>
</linearGradient>
<linearGradient id="paint4_linear_6004_235921" x1="17.754" y1="0" x2="17.754" y2="22.4261" gradientUnits="userSpaceOnUse">
<stop stop-color="#D7E38B"/>
<stop offset="1" stop-color="#23C176"/>
</linearGradient>
<linearGradient id="paint5_linear_6004_235921" x1="12.5956" y1="0" x2="12.5956" y2="25.1911" gradientUnits="userSpaceOnUse">
<stop stop-color="#FC94D8"/>
<stop offset="1" stop-color="#F44954"/>
</linearGradient>
<linearGradient id="paint6_linear_6004_235921" x1="12.5956" y1="0" x2="12.5956" y2="25.1911" gradientUnits="userSpaceOnUse">
<stop stop-color="#D7E38B"/>
<stop offset="1" stop-color="#23C176"/>
</linearGradient>
<linearGradient id="paint7_linear_6004_235921" x1="12.5956" y1="0" x2="12.5956" y2="25.1911" gradientUnits="userSpaceOnUse">
<stop stop-color="#84B5FF"/>
<stop offset="1" stop-color="#855CF9"/>
</linearGradient>
<clipPath id="clip0_6004_235921">
<rect width="234" height="430" fill="white" transform="translate(128)"/>
</clipPath>
<clipPath id="clip1_6004_235921">
<rect width="15.7813" height="29.9014" fill="white" transform="matrix(-0.484514 -1.18453 0.586058 -0.136637 286.971 328.136)"/>
</clipPath>
<clipPath id="clip2_6004_235921">
<rect width="13.4353" height="13.4353" fill="white" transform="matrix(0.760406 0.649448 0 1 187.734 94.4204)"/>
</clipPath>
<clipPath id="clip3_6004_235921">
<rect width="13.4353" height="13.4353" fill="white" transform="matrix(0.760406 0.649448 0 1 163.469 73.6973)"/>
</clipPath>
<clipPath id="clip4_6004_235921">
<rect width="13.4353" height="13.4353" fill="white" transform="matrix(0.760406 0.649448 0 1 221.855 123.564)"/>
</clipPath>
<clipPath id="clip5_6004_235921">
<rect width="181" height="344" fill="white" transform="translate(0 86)"/>
</clipPath>
</defs>
</svg>
