<svg width="1040" height="480" viewBox="0 0 1040 480" fill="none" xmlns="http://www.w3.org/2000/svg">
<g clip-path="url(#clip0_6003_196852)">
<rect width="1040" height="480" fill="white"/>
<rect x="0" y="0" width="1040" height="480" rx="7" fill="#FEFDFB" stroke="#C2BDBA" stroke-width="0.5"/>
<rect x="87.25" y="97.25" width="239.5" height="159.5" rx="3.75" fill="#F7777E" fill-opacity="0.24" stroke="#F44954" stroke-width="0.5"/>
<path d="M87.25 101C87.25 98.9289 88.9289 97.25 91 97.25H323C325.071 97.25 326.75 98.9289 326.75 101V111.75H87.25V101Z" fill="url(#paint0_linear_6003_196852)" stroke="#F44954" stroke-width="0.5"/>
<circle cx="96.5" cy="104.5" r="2.5" fill="#FEFDFB"/>
<circle cx="104.5" cy="104.5" r="2.5" fill="#FEFDFB"/>
<circle cx="112.5" cy="104.5" r="2.5" fill="#FEFDFB"/>
<circle cx="169" cy="180" r="20" fill="#F5B103"/>
<rect x="189" y="162" width="36" height="36" fill="#764AF3"/>
<circle cx="245" cy="180" r="20" fill="#F5B103"/>
<path d="M190.717 270.438H192.508C192.2 268.236 190.512 266.965 188.324 266.965C185.733 266.965 183.792 268.852 183.799 272.051C183.792 275.243 185.713 277.137 188.324 277.137C190.669 277.137 192.234 275.619 192.508 273.719H190.717C190.478 274.881 189.527 275.537 188.352 275.537C186.738 275.537 185.583 274.327 185.59 272.051C185.583 269.809 186.731 268.564 188.352 268.564C189.555 268.564 190.505 269.248 190.717 270.438ZM195.707 267.102H193.957V277H195.707V267.102ZM197.375 277H199.125V269.576H197.375V277ZM197.252 267.566C197.252 268.093 197.71 268.517 198.264 268.523C198.817 268.517 199.275 268.093 199.275 267.566C199.275 267.047 198.817 266.623 198.264 266.623C197.71 266.623 197.252 267.047 197.252 267.566ZM204.088 277.15C205.811 277.15 207 276.303 207.314 275.018H205.605C205.38 275.462 204.867 275.79 204.102 275.783C202.974 275.79 202.229 275.038 202.201 273.773H207.383V273.227C207.383 270.622 205.811 269.48 203.992 269.48C201.873 269.48 200.479 271.039 200.479 273.336C200.479 275.66 201.853 277.15 204.088 277.15ZM202.208 272.584C202.27 271.641 202.974 270.834 204.02 270.834C205.024 270.834 205.708 271.572 205.715 272.584H202.208ZM210.486 272.652C210.486 271.572 211.136 270.95 212.059 270.957C212.968 270.95 213.508 271.545 213.508 272.543V277H215.244V272.27C215.251 270.492 214.239 269.48 212.701 269.48C211.594 269.48 210.835 270.007 210.5 270.834H210.404V269.576H208.736V277H210.486V272.652ZM220.617 269.576H219.154V267.799H217.418V269.576H216.352V270.916H217.418V275.059C217.404 276.453 218.416 277.103 219.729 277.096C220.173 277.103 220.508 277.062 220.713 277.027V275.605C220.494 275.619 220.152 275.64 219.947 275.633C219.51 275.626 219.154 275.482 219.154 274.771V270.916H220.617V269.576ZM229.285 267.102H227.576L225.129 268.688V270.314L227.439 268.838H227.494V277H229.285V267.102Z" fill="#514C49"/>
<rect x="703.25" y="97.25" width="239.5" height="159.5" rx="3.75" fill="#5AD198" fill-opacity="0.24" stroke="#23C176" stroke-width="0.5"/>
<path d="M703.25 101C703.25 98.9289 704.929 97.25 707 97.25H939C941.071 97.25 942.75 98.9289 942.75 101V111.75H703.25V101Z" fill="url(#paint1_linear_6003_196852)" stroke="#23C176" stroke-width="0.5"/>
<circle cx="712.5" cy="104.5" r="2.5" fill="#FEFDFB"/>
<circle cx="720.5" cy="104.5" r="2.5" fill="#FEFDFB"/>
<circle cx="728.5" cy="104.5" r="2.5" fill="#FEFDFB"/>
<circle cx="785" cy="180" r="20" fill="#F5B103"/>
<rect x="805" y="162" width="36" height="36" fill="#764AF3"/>
<circle cx="861" cy="180" r="20" fill="#F5B103"/>
<path d="M805.712 270.438H807.503C807.195 268.236 805.507 266.965 803.319 266.965C800.729 266.965 798.787 268.852 798.794 272.051C798.787 275.243 800.708 277.137 803.319 277.137C805.664 277.137 807.229 275.619 807.503 273.719H805.712C805.473 274.881 804.522 275.537 803.347 275.537C801.733 275.537 800.578 274.327 800.585 272.051C800.578 269.809 801.727 268.564 803.347 268.564C804.55 268.564 805.5 269.248 805.712 270.438ZM810.702 267.102H808.952V277H810.702V267.102ZM812.37 277H814.12V269.576H812.37V277ZM812.247 267.566C812.247 268.093 812.705 268.517 813.259 268.523C813.812 268.517 814.271 268.093 814.271 267.566C814.271 267.047 813.812 266.623 813.259 266.623C812.705 266.623 812.247 267.047 812.247 267.566ZM819.083 277.15C820.806 277.15 821.995 276.303 822.31 275.018H820.601C820.375 275.462 819.862 275.79 819.097 275.783C817.969 275.79 817.224 275.038 817.196 273.773H822.378V273.227C822.378 270.622 820.806 269.48 818.987 269.48C816.868 269.48 815.474 271.039 815.474 273.336C815.474 275.66 816.848 277.15 819.083 277.15ZM817.203 272.584C817.265 271.641 817.969 270.834 819.015 270.834C820.02 270.834 820.703 271.572 820.71 272.584H817.203ZM825.481 272.652C825.481 271.572 826.131 270.95 827.054 270.957C827.963 270.95 828.503 271.545 828.503 272.543V277H830.239V272.27C830.246 270.492 829.234 269.48 827.696 269.48C826.589 269.48 825.83 270.007 825.495 270.834H825.399V269.576H823.731V277H825.481V272.652ZM835.612 269.576H834.149V267.799H832.413V269.576H831.347V270.916H832.413V275.059C832.399 276.453 833.411 277.103 834.724 277.096C835.168 277.103 835.503 277.062 835.708 277.027V275.605C835.489 275.619 835.147 275.64 834.942 275.633C834.505 275.626 834.149 275.482 834.149 274.771V270.916H835.612V269.576ZM840.261 277H847.138V275.51H842.735V275.441L844.499 273.691C846.447 271.853 846.98 270.95 846.987 269.836C846.98 268.175 845.62 266.965 843.597 266.965C841.621 266.965 840.213 268.182 840.22 270.055H841.915C841.908 269.05 842.564 268.414 843.583 268.414C844.547 268.414 845.278 268.995 845.278 269.918C845.278 270.752 844.759 271.34 843.761 272.338L840.261 275.715V277Z" fill="#514C49"/>
<rect x="395.25" y="228.25" width="239.5" height="159.5" rx="3.75" fill="#FDA36A" fill-opacity="0.24" stroke="#FC8539" stroke-width="0.5"/>
<path d="M495.491 398.102L499.101 404.295V408H500.878V404.295L504.474 398.102H502.464L500.03 402.477H499.935L497.501 398.102H495.491ZM507.413 408.15C509.587 408.15 510.975 406.612 510.968 404.322C510.975 402.012 509.587 400.48 507.413 400.48C505.246 400.48 503.858 402.012 503.858 404.322C503.858 406.612 505.246 408.15 507.413 408.15ZM505.622 404.309C505.622 402.948 506.217 401.854 507.427 401.861C508.616 401.854 509.211 402.948 509.204 404.309C509.211 405.669 508.616 406.756 507.427 406.756C506.217 406.756 505.622 405.669 505.622 404.309ZM512.321 408H514.071V403.625C514.071 402.688 514.782 402.019 515.753 402.012C516.04 402.019 516.402 402.066 516.56 402.121V400.508C516.396 400.487 516.122 400.467 515.931 400.467C515.076 400.467 514.365 400.952 514.099 401.807H514.017V400.576H512.321V408ZM517.599 408H519.349V405.498L519.991 404.814L522.274 408H524.353L521.297 403.775L524.175 400.576H522.138L519.472 403.557H519.349V398.102H517.599V408ZM525.214 408H526.964V400.576H525.214V408ZM525.091 398.566C525.091 399.093 525.549 399.517 526.103 399.523C526.656 399.517 527.114 399.093 527.114 398.566C527.114 398.047 526.656 397.623 526.103 397.623C525.549 397.623 525.091 398.047 525.091 398.566ZM531.927 408.15C533.649 408.15 534.839 407.303 535.153 406.018H533.444C533.219 406.462 532.706 406.79 531.94 406.783C530.812 406.79 530.067 406.038 530.04 404.773H535.222V404.227C535.222 401.622 533.649 400.48 531.831 400.48C529.712 400.48 528.317 402.039 528.317 404.336C528.317 406.66 529.691 408.15 531.927 408.15ZM530.047 403.584C530.108 402.641 530.812 401.834 531.858 401.834C532.863 401.834 533.547 402.572 533.554 403.584H530.047Z" fill="#514C49"/>
<circle cx="477" cy="308" r="20" fill="#F5B103"/>
<rect x="497" y="290" width="36" height="36" fill="#764AF3"/>
<circle cx="553" cy="308" r="20" fill="#F5B103"/>
</g>
<defs>
<linearGradient id="paint0_linear_6003_196852" x1="207" y1="97" x2="207" y2="112" gradientUnits="userSpaceOnUse">
<stop stop-color="#FC94D8"/>
<stop offset="1" stop-color="#F44954"/>
</linearGradient>
<linearGradient id="paint1_linear_6003_196852" x1="823" y1="97" x2="823" y2="112" gradientUnits="userSpaceOnUse">
<stop stop-color="#D7E38B"/>
<stop offset="1" stop-color="#23C176"/>
</linearGradient>
<clipPath id="clip0_6003_196852">
<rect width="1040" height="480" fill="white"/>
</clipPath>
</defs>
</svg>
