<svg width="328" height="280" viewBox="0 0 328 280" fill="none" xmlns="http://www.w3.org/2000/svg">
<rect x="0.25" y="0.25" width="327.5" height="279.5" rx="3.75" fill="#FEFDFB" stroke="#C2BDBA" stroke-width="0.5"/>
<g filter="url(#filter0_d_6003_198032)">
<path d="M158.128 127.051C159.211 126.63 159.752 126.42 159.904 126.122C160.036 125.864 160.032 125.558 159.893 125.304C159.733 125.01 159.187 124.814 158.093 124.421L130.206 114.411C129.312 114.089 128.865 113.929 128.572 114.03C128.318 114.118 128.118 114.318 128.03 114.572C127.929 114.865 128.089 115.312 128.411 116.206L138.421 144.093C138.814 145.187 139.01 145.734 139.304 145.893C139.558 146.032 139.864 146.036 140.122 145.904C140.42 145.752 140.63 145.211 141.051 144.128L145.609 132.409C145.691 132.196 145.733 132.09 145.796 132.001C145.853 131.922 145.922 131.853 146.001 131.796C146.09 131.733 146.196 131.691 146.408 131.609L158.128 127.051Z" fill="url(#paint0_linear_6003_198032)" stroke="#FEFDFB" stroke-width="0.5" stroke-linecap="round" stroke-linejoin="round"/>
<rect x="160" y="146" width="37" height="24" rx="2" fill="url(#paint1_linear_6003_198032)"/>
<path d="M168.445 154.629L171.094 154.629L171.094 162L172.383 162L172.383 154.629L175.02 154.629L175.02 153.516L168.445 153.516L168.445 154.629ZM176.227 162L177.48 162L177.48 155.637L176.227 155.637L176.227 162ZM176.062 153.914C176.068 154.324 176.426 154.658 176.859 154.652C177.287 154.658 177.645 154.324 177.645 153.914C177.645 153.504 177.287 153.176 176.859 153.176C176.426 153.176 176.068 153.504 176.062 153.914ZM179.004 162L180.258 162L180.258 158.074C180.258 157.219 180.855 156.633 181.559 156.633C182.244 156.633 182.719 157.084 182.719 157.781L182.719 162L183.961 162L183.961 157.945C183.961 157.184 184.424 156.633 185.227 156.633C185.883 156.633 186.422 156.99 186.422 157.852L186.422 162L187.676 162L187.676 157.734C187.67 156.275 186.855 155.555 185.707 155.555C184.787 155.555 184.096 155.994 183.797 156.68L183.727 156.68C183.457 155.971 182.865 155.555 182.016 155.555C181.178 155.555 180.551 155.971 180.281 156.68L180.211 156.68L180.211 155.637L179.004 155.637L179.004 162Z" fill="#FEFDFB"/>
</g>
<path d="M90 137.266V142.655C96.3768 142.695 98.4094 144.953 98.4493 151.135V163.814C98.4094 173.562 102.076 177.96 112 178V173.404C105.663 173.404 103.471 170.432 103.471 163.735V149.55C103.471 144.795 102.036 141.585 96.5362 140.278V139.683C102.036 138.415 103.471 135.206 103.471 130.451V116.186C103.471 109.489 105.663 106.557 112 106.517V102C102.076 101.961 98.4094 106.359 98.4493 116.107V128.866C98.4094 135.047 96.3768 137.266 90 137.266Z" fill="black"/>
<path d="M238 142.655V137.266C231.623 137.266 229.591 135.047 229.551 128.866V116.107C229.591 106.359 225.924 101.961 216 102V106.517C222.337 106.557 224.529 109.489 224.529 116.186V130.451C224.529 135.206 225.964 138.415 231.464 139.683V140.278C225.964 141.585 224.529 144.795 224.529 149.55V163.735C224.529 170.432 222.337 173.404 216 173.404V178C225.924 177.96 229.591 173.562 229.551 163.814V151.135C229.591 144.953 231.623 142.695 238 142.655Z" fill="black"/>
<defs>
<filter id="filter0_d_6003_198032" x="119" y="113.75" width="86" height="72.25" filterUnits="userSpaceOnUse" color-interpolation-filters="sRGB">
<feFlood flood-opacity="0" result="BackgroundImageFix"/>
<feColorMatrix in="SourceAlpha" type="matrix" values="0 0 0 0 0 0 0 0 0 0 0 0 0 0 0 0 0 0 127 0" result="hardAlpha"/>
<feOffset dy="8"/>
<feGaussianBlur stdDeviation="4"/>
<feComposite in2="hardAlpha" operator="out"/>
<feColorMatrix type="matrix" values="0 0 0 0 0 0 0 0 0 0 0 0 0 0 0 0 0 0 0.08 0"/>
<feBlend mode="normal" in2="BackgroundImageFix" result="effect1_dropShadow_6003_198032"/>
<feBlend mode="normal" in="SourceGraphic" in2="effect1_dropShadow_6003_198032" result="shape"/>
</filter>
<linearGradient id="paint0_linear_6003_198032" x1="144" y1="114" x2="144" y2="146" gradientUnits="userSpaceOnUse">
<stop stop-color="#FC94D8"/>
<stop offset="1" stop-color="#F44954"/>
</linearGradient>
<linearGradient id="paint1_linear_6003_198032" x1="178.5" y1="146" x2="178.5" y2="170" gradientUnits="userSpaceOnUse">
<stop stop-color="#FC94D8"/>
<stop offset="1" stop-color="#F44954"/>
</linearGradient>
</defs>
</svg>
