<svg width="512" height="415" viewBox="0 0 512 415" fill="none" xmlns="http://www.w3.org/2000/svg">
<mask id="mask0_5343_192204" style="mask-type:alpha" maskUnits="userSpaceOnUse" x="0" y="0" width="512" height="415">
<rect width="512" height="415" fill="#D9D9D9"/>
</mask>
<g mask="url(#mask0_5343_192204)">
<g clip-path="url(#clip0_5343_192204)">
<rect width="538.417" height="350.055" rx="6.66771" transform="matrix(0.978148 -0.207912 0.646257 0.76312 -108 131.943)" fill="#FEFDFB"/>
<rect x="0.33847" y="0.115686" width="76.2619" height="76.2619" transform="matrix(0.978148 -0.207912 0.646257 0.76312 99.5774 168.212)" fill="#FAF8F6" stroke="#EFECEB" stroke-width="0.416732"/>
<rect width="40.0062" height="6.66771" rx="3.33385" transform="matrix(0.978148 -0.207912 0.646257 0.76312 115.893 173.667)" fill="#EFECEB"/>
<rect x="0.33847" y="0.115686" width="76.2619" height="76.2619" transform="matrix(0.978148 -0.207912 0.646257 0.76312 15.604 186.06)" fill="#FAF8F6" stroke="#EFECEB" stroke-width="0.416732"/>
<rect width="40.0062" height="6.66771" rx="3.33385" transform="matrix(0.978148 -0.207912 0.646257 0.76312 31.9197 191.516)" fill="#EFECEB"/>
<rect x="0.33847" y="0.115686" width="59.5926" height="27.921" rx="13.9605" transform="matrix(0.978148 -0.207912 0.646257 0.76312 309.222 145.415)" fill="#FAF8F6" stroke="#EFECEB" stroke-width="0.416732"/>
<rect x="0.33847" y="0.115686" width="59.5926" height="27.921" rx="13.9605" transform="matrix(0.978148 -0.207912 0.646257 0.76312 226.156 107.533)" fill="#FAF8F6" stroke="#EFECEB" stroke-width="0.416732"/>
<rect x="0.33847" y="0.115686" width="66.2603" height="27.921" rx="13.9605" transform="matrix(0.978148 -0.207912 0.646257 0.76312 389.566 184.626)" fill="#FAF8F6" stroke="#EFECEB" stroke-width="0.416732"/>
<rect x="0.33847" y="0.115686" width="66.2603" height="27.921" rx="13.9605" transform="matrix(0.978148 -0.207912 0.646257 0.76312 303.967 202.821)" fill="#FAF8F6" stroke="#EFECEB" stroke-width="0.416732"/>
<g opacity="0.5">
<rect x="0.169235" y="0.0578432" width="193.155" height="24.7955" rx="6.56352" transform="matrix(0.978148 -0.207912 0.646257 0.76312 253.555 323.822)" fill="#FEFDFB" stroke="#514C49" stroke-width="0.208366"/>
<line y1="-0.104183" x2="25.0039" y2="-0.104183" transform="matrix(0.646257 0.76312 -0.978148 0.207912 309.025 311.989)" stroke="#514C49" stroke-width="0.208366"/>
<g clip-path="url(#clip1_5343_192204)">
<g filter="url(#filter0_d_5343_192204)">
<mask id="mask1_5343_192204" style="mask-type:alpha" maskUnits="userSpaceOnUse" x="319" y="310" width="25" height="17">
<rect width="12.2145" height="17.7111" transform="matrix(0.978148 -0.207912 0.646257 0.76312 319.943 312.952)" fill="#D9D9D9"/>
</mask>
<g mask="url(#mask1_5343_192204)">
<path d="M331.562 315.666L331.562 315.666L331.551 315.658C331.21 315.427 330.819 315.235 330.406 315.094L330.382 315.166L330.406 315.094C329.166 314.671 327.956 314.928 327.701 315.669C327.616 315.916 327.621 316.19 327.715 316.473L327.714 316.473L327.719 316.483L329.938 321.002C329.992 321.161 330.086 321.321 330.216 321.474L339.376 332.291C339.693 332.665 340.309 332.914 340.838 332.88C342.743 332.76 344.485 332.39 345.981 331.787C346.397 331.62 346.468 331.225 346.151 330.851L336.991 320.034C336.861 319.881 336.697 319.736 336.506 319.606L331.562 315.666Z" fill="url(#paint0_linear_5343_192204)" stroke="#C2BDBA" stroke-width="0.208366"/>
<path d="M329.837 316.305C329.495 316.378 329.169 316.388 328.889 316.37C328.847 316.367 328.826 316.366 328.63 316.307C328.438 316.249 328.041 316.016 327.924 315.892C327.804 315.766 327.779 315.705 327.728 315.583C327.352 314.677 326.966 313.992 327.076 313.809C327.234 313.545 327.684 313.449 328.172 313.576C328.511 313.663 329.227 314.279 330.266 315.044C330.405 315.146 330.475 315.198 330.573 315.329C330.67 315.457 330.728 315.762 330.678 315.872C330.626 315.983 330.614 315.992 330.589 316.008C330.42 316.122 330.179 316.232 329.837 316.305Z" fill="#01111A"/>
<path d="M332.788 321.874C332.528 321.567 332.689 321.259 333.123 321.233C333.68 321.2 334.188 321.092 334.623 320.915C334.962 320.776 335.515 320.932 335.775 321.239L343.76 330.669C343.944 330.885 344.036 330.993 344.089 331.088C344.308 331.478 344.182 331.846 343.77 332.02C343.67 332.063 343.531 332.092 343.254 332.151C342.976 332.21 342.837 332.24 342.707 332.246C342.171 332.273 341.555 332.063 341.148 331.713C341.049 331.628 340.957 331.52 340.774 331.303L332.788 321.874Z" fill="black"/>
</g>
</g>
</g>
<g clip-path="url(#clip2_5343_192204)">
<g clip-path="url(#clip3_5343_192204)">
<path fill-rule="evenodd" clip-rule="evenodd" d="M300.006 321.787C299.841 321.822 299.806 321.949 299.9 322.06L301.846 324.356C301.994 324.532 301.932 324.713 301.707 324.761C301.482 324.809 301.179 324.705 301.03 324.53L299.384 322.586C299.29 322.475 299.085 322.4 298.92 322.435C298.754 322.47 298.72 322.596 298.814 322.708L301.357 325.711C301.506 325.887 301.444 326.068 301.219 326.116C300.994 326.164 300.691 326.06 300.542 325.884L299.794 325.001C299.7 324.89 299.494 324.815 299.329 324.85C299.164 324.885 299.129 325.011 299.223 325.122L299.822 325.829C300.908 327.111 303.158 327.872 304.854 327.511C306.55 327.151 307.022 325.811 305.936 324.529L304.44 322.763C304.346 322.651 304.14 322.576 303.975 322.611C303.81 322.646 303.775 322.773 303.869 322.884L304.617 323.767C304.766 323.943 304.704 324.124 304.479 324.172C304.254 324.22 303.951 324.116 303.802 323.941L302.156 321.997C302.062 321.886 301.857 321.811 301.691 321.846C301.526 321.881 301.491 322.007 301.586 322.118L303.231 324.062C303.38 324.238 303.318 324.419 303.093 324.467C302.868 324.514 302.565 324.411 302.416 324.235L300.471 321.938C300.377 321.827 300.172 321.752 300.006 321.787ZM300.777 321.371C300.37 321.158 299.87 321.065 299.468 321.151C299.065 321.237 298.85 321.481 298.873 321.775C298.702 321.76 298.534 321.766 298.381 321.799C297.781 321.927 297.597 322.407 297.999 322.881L299.1 324.182C298.993 324.182 298.889 324.193 298.79 324.214C298.19 324.341 298.006 324.821 298.408 325.296L299.007 326.002C300.4 327.647 303.262 328.6 305.393 328.147C307.524 327.694 308.145 326.001 306.751 324.356L305.255 322.589C304.854 322.115 304.037 321.848 303.436 321.975C303.338 321.996 303.251 322.027 303.176 322.065L302.972 321.824C302.57 321.35 301.753 321.082 301.153 321.21C300.999 321.242 300.873 321.298 300.777 321.371Z" fill="black"/>
</g>
</g>
<g clip-path="url(#clip4_5343_192204)">
<rect width="16.6693" height="16.6693" rx="3.33385" transform="matrix(0.978148 -0.207912 0.646257 0.76312 262.803 325.567)" fill="#3C9AF1" fill-opacity="0.32"/>
<g clip-path="url(#clip5_5343_192204)">
<path fill-rule="evenodd" clip-rule="evenodd" d="M270.924 327.827C270.93 327.827 270.935 327.827 270.941 327.828L278.972 328.266C279.114 328.274 279.249 328.281 279.359 328.293C279.452 328.304 279.657 328.329 279.853 328.436C280.066 328.554 280.21 328.72 280.237 328.88C280.262 329.026 280.159 329.12 280.112 329.162C280.056 329.212 279.975 329.268 279.891 329.326L277.882 330.721L278.617 333.053C278.648 333.15 278.677 333.244 278.691 333.318C278.703 333.38 278.727 333.517 278.618 333.617C278.499 333.727 278.283 333.77 278.042 333.733C277.822 333.698 277.644 333.592 277.565 333.544C277.47 333.486 277.358 333.409 277.242 333.329L270.622 328.759C270.618 328.756 270.613 328.753 270.608 328.75C270.515 328.685 270.42 328.619 270.347 328.562C270.279 328.508 270.151 328.403 270.103 328.271C270.047 328.12 270.094 327.981 270.231 327.896C270.35 327.821 270.515 327.816 270.603 327.815C270.695 327.814 270.81 327.821 270.924 327.827ZM277.863 330.657C277.863 330.657 277.863 330.657 277.863 330.657V330.657ZM277.828 330.759C277.828 330.759 277.828 330.759 277.828 330.759V330.759ZM271.374 328.496L277.603 332.796L276.918 330.623C276.918 330.62 276.917 330.617 276.916 330.614C276.906 330.584 276.885 330.521 276.889 330.46C276.892 330.409 276.908 330.361 276.937 330.318C276.972 330.268 277.026 330.231 277.053 330.213C277.056 330.211 277.058 330.209 277.06 330.208L278.932 328.908L271.374 328.496Z" fill="black"/>
</g>
</g>
<g clip-path="url(#clip6_5343_192204)">
<rect width="13.3354" height="11.6685" rx="3.33385" transform="matrix(0.978148 -0.207912 0.646257 0.76312 347.573 309.8)" fill="#F27B2F"/>
</g>
<g clip-path="url(#clip7_5343_192204)">
<path d="M374.074 304.168C373.925 303.992 373.987 303.811 374.212 303.763L385.625 301.337C385.85 301.289 386.154 301.393 386.302 301.568L392.4 308.768C392.473 308.855 392.498 308.948 392.469 309.025L391.627 311.215C391.599 311.288 391.525 311.341 391.42 311.363L382.291 313.303C382.066 313.351 381.763 313.248 381.614 313.072L374.074 304.168Z" fill="#F5B103" fill-opacity="0.4"/>
<path d="M390.233 309.13C390.107 308.776 390.407 308.507 390.911 308.521L392.221 308.554L392.366 308.726C392.515 308.902 392.564 309.09 392.501 309.245L391.758 311.088C391.701 311.231 391.553 311.335 391.346 311.379L391.057 311.44L390.233 309.13Z" fill="#F4D179"/>
</g>
<g clip-path="url(#clip8_5343_192204)">
<path fill-rule="evenodd" clip-rule="evenodd" d="M407.737 297.386L412.919 298.284L410.607 300.775L409.457 299.417C408.708 299.773 408.577 300.541 409.211 301.289L410.801 303.167C411.817 304.367 411.399 305.603 409.868 305.928L408.348 306.251C408.142 306.295 407.863 306.2 407.725 306.037C407.588 305.875 407.644 305.708 407.851 305.664L409.371 305.341C410.488 305.104 410.793 304.202 410.052 303.327L408.461 301.448C407.552 300.375 407.792 299.271 408.95 298.818L407.737 297.386Z" fill="black"/>
<path d="M413.522 297.325C413.413 297.195 413.458 297.062 413.623 297.026C413.789 296.991 414.012 297.068 414.122 297.197L415.315 298.606C415.425 298.736 415.379 298.869 415.214 298.905C415.048 298.94 414.825 298.863 414.715 298.734L413.522 297.325Z" fill="#A6A19E"/>
<path d="M405.407 305.699C405.298 305.57 405.343 305.436 405.508 305.401C405.674 305.366 405.897 305.442 406.007 305.572L407.2 306.981C407.31 307.11 407.264 307.244 407.099 307.279C406.933 307.314 406.71 307.238 406.6 307.108L405.407 305.699Z" fill="#A6A19E"/>
</g>
<g clip-path="url(#clip9_5343_192204)">
<g clip-path="url(#clip10_5343_192204)">
<path fill-rule="evenodd" clip-rule="evenodd" d="M431.817 293.822L435.682 293C435.85 292.965 435.995 292.934 436.121 292.914C436.253 292.894 436.392 292.881 436.55 292.894C436.907 292.922 437.274 293.043 437.571 293.231C437.703 293.314 437.802 293.405 437.892 293.499C437.977 293.588 438.069 293.697 438.177 293.824L438.185 293.833C438.32 293.993 438.257 294.159 438.045 294.204C437.833 294.249 437.552 294.156 437.417 293.996C437.299 293.858 437.223 293.768 437.159 293.701C437.097 293.636 437.066 293.613 437.049 293.603C436.95 293.54 436.827 293.5 436.709 293.49C436.688 293.489 436.648 293.488 436.557 293.502C436.462 293.517 436.343 293.542 436.159 293.581L434.623 293.908L438.051 297.955L438.819 297.792C439.031 297.747 439.312 297.84 439.447 297.999C439.583 298.159 439.52 298.325 439.308 298.37L437.004 298.86C436.792 298.905 436.511 298.812 436.375 298.652C436.24 298.493 436.303 298.327 436.515 298.282L437.283 298.118L433.855 294.071L432.319 294.397C432.135 294.437 432.016 294.462 431.929 294.486C431.845 294.509 431.818 294.524 431.807 294.532C431.737 294.582 431.71 294.654 431.731 294.733C431.735 294.746 431.746 294.774 431.796 294.841C431.848 294.911 431.923 295 432.041 295.139C432.176 295.299 432.114 295.465 431.901 295.51C431.689 295.555 431.408 295.462 431.273 295.302L431.265 295.293C431.157 295.166 431.065 295.057 430.996 294.964C430.924 294.867 430.862 294.768 430.834 294.663C430.771 294.425 430.853 294.209 431.06 294.061C431.152 293.995 431.267 293.954 431.388 293.92C431.503 293.889 431.649 293.858 431.817 293.822Z" fill="black"/>
</g>
<path fill-rule="evenodd" clip-rule="evenodd" d="M428.43 292.75C428.156 292.808 427.93 292.905 427.756 293.029C427.647 293.106 427.434 293.09 427.28 292.992C427.125 292.894 427.088 292.753 427.196 292.676C427.421 292.515 427.712 292.391 428.062 292.316L429.07 292.102C429.229 292.068 429.441 292.138 429.542 292.258C429.643 292.378 429.597 292.502 429.438 292.536L428.43 292.75ZM430.982 291.952C430.881 291.832 430.927 291.708 431.086 291.674L433.102 291.245C433.261 291.211 433.473 291.281 433.574 291.401C433.675 291.521 433.629 291.645 433.47 291.679L431.454 292.107C431.295 292.141 431.083 292.072 430.982 291.952ZM435.014 291.095C434.913 290.975 434.959 290.851 435.118 290.817L436.126 290.602C436.477 290.528 436.857 290.509 437.244 290.54C437.43 290.554 437.607 290.666 437.64 290.79C437.672 290.914 437.548 291.002 437.363 290.987C437.063 290.964 436.767 290.978 436.494 291.036L435.486 291.25C435.327 291.284 435.115 291.215 435.014 291.095ZM426.964 293.833C427.15 293.847 427.327 293.959 427.36 294.083C427.413 294.283 427.524 294.49 427.699 294.696L428.296 295.401C428.397 295.521 428.351 295.645 428.191 295.679C428.032 295.713 427.821 295.643 427.72 295.524L427.123 294.819C426.899 294.555 426.755 294.287 426.687 294.03C426.654 293.906 426.779 293.818 426.964 293.833ZM439.066 291.261C439.174 291.183 439.387 291.2 439.541 291.298C439.863 291.501 440.147 291.739 440.371 292.003L440.968 292.708C441.069 292.827 441.022 292.952 440.863 292.986C440.704 293.02 440.493 292.95 440.392 292.83L439.795 292.125C439.62 291.919 439.4 291.735 439.15 291.577C438.995 291.479 438.958 291.338 439.066 291.261ZM429.018 296.655C429.177 296.621 429.388 296.691 429.489 296.811L430.683 298.22C430.784 298.34 430.738 298.464 430.579 298.498C430.42 298.532 430.208 298.462 430.107 298.342L428.913 296.933C428.812 296.813 428.859 296.689 429.018 296.655ZM441.69 293.961C441.849 293.928 442.06 293.997 442.161 294.117L443.355 295.526C443.456 295.646 443.409 295.771 443.25 295.805C443.091 295.838 442.88 295.769 442.779 295.649L441.585 294.239C441.484 294.12 441.531 293.995 441.69 293.961ZM431.405 299.474C431.564 299.44 431.775 299.51 431.877 299.629L432.473 300.334C432.648 300.54 432.868 300.725 433.118 300.882C433.273 300.98 433.31 301.122 433.202 301.199C433.094 301.276 432.881 301.259 432.727 301.162C432.405 300.958 432.121 300.721 431.897 300.456L431.301 299.752C431.199 299.632 431.246 299.508 431.405 299.474ZM444.077 296.78C444.236 296.746 444.447 296.816 444.548 296.936L445.145 297.641C445.369 297.905 445.513 298.172 445.581 298.429C445.614 298.553 445.49 298.641 445.304 298.627C445.118 298.612 444.941 298.5 444.908 298.376C444.855 298.177 444.744 297.969 444.569 297.763L443.972 297.058C443.871 296.939 443.918 296.814 444.077 296.78ZM434.629 301.669C434.596 301.546 434.72 301.458 434.906 301.472C435.206 301.496 435.501 301.482 435.775 301.423L436.783 301.209C436.942 301.175 437.153 301.245 437.254 301.365C437.356 301.484 437.309 301.609 437.15 301.643L436.142 301.857C435.791 301.932 435.411 301.95 435.024 301.92C434.838 301.905 434.661 301.793 434.629 301.669ZM444.988 299.467C445.143 299.565 445.181 299.707 445.073 299.784C444.847 299.944 444.557 300.068 444.206 300.143L443.198 300.357C443.039 300.391 442.828 300.321 442.726 300.202C442.625 300.082 442.671 299.957 442.831 299.924L443.839 299.709C444.112 299.651 444.338 299.555 444.513 299.43C444.621 299.353 444.834 299.37 444.988 299.467ZM438.694 301.059C438.593 300.939 438.64 300.814 438.799 300.781L440.815 300.352C440.974 300.318 441.185 300.388 441.286 300.508C441.388 300.627 441.341 300.752 441.182 300.786L439.166 301.214C439.007 301.248 438.796 301.178 438.694 301.059Z" fill="#B7B7B7"/>
</g>
<rect width="232" height="30" transform="matrix(0.978148 -0.207912 0.646257 0.76312 253.588 323.773)" fill="black" style="mix-blend-mode:saturation"/>
</g>
<rect width="140.855" height="13.3354" rx="3.33385" transform="matrix(0.978148 -0.207912 0.646257 0.76312 346.644 243.951)" fill="#F5F3F1"/>
<rect width="66.6771" height="13.3354" rx="3.33385" transform="matrix(0.978148 -0.207912 0.646257 0.76312 43.0244 152.379)" fill="#F5F3F1"/>
<rect x="0.33847" y="0.115686" width="76.2619" height="76.2619" transform="matrix(0.978148 -0.207912 0.646257 0.76312 156.668 235.631)" fill="#FAF8F6" stroke="#EFECEB" stroke-width="0.416732"/>
<rect width="56.6755" height="6.66771" rx="3.33385" transform="matrix(0.978148 -0.207912 0.646257 0.76312 172.984 241.086)" fill="#EFECEB"/>
<rect width="37.5058" height="6.66771" rx="3.33385" transform="matrix(0.978148 -0.207912 0.646257 0.76312 181.6 251.263)" fill="#EFECEB"/>
<rect x="0.33847" y="0.115686" width="76.2619" height="76.2619" transform="matrix(0.978148 -0.207912 0.646257 0.76312 72.6963 253.48)" fill="#FAF8F6" stroke="#EFECEB" stroke-width="0.416732"/>
<rect width="56.6755" height="6.66771" rx="3.33385" transform="matrix(0.978148 -0.207912 0.646257 0.76312 89.0121 258.935)" fill="#EFECEB"/>
<rect width="37.5058" height="6.66771" rx="3.33385" transform="matrix(0.978148 -0.207912 0.646257 0.76312 97.6284 269.112)" fill="#EFECEB"/>
<path d="M325.602 182.753L325.194 182.84L325.602 182.753ZM334.93 194.17C335.195 194.26 335.453 194.205 335.507 194.047L336.387 191.472C336.441 191.314 336.271 191.113 336.006 191.022C335.742 190.932 335.484 190.987 335.43 191.145L334.647 193.434L330.818 192.125C330.554 192.035 330.296 192.09 330.242 192.248C330.188 192.406 330.358 192.607 330.622 192.697L334.93 194.17ZM366.656 171.025L367.063 170.938L367.063 170.938L366.656 171.025ZM366.103 172.644L366.372 172.962L366.372 172.962L366.103 172.644ZM326.155 181.135L325.886 180.817L326.155 181.135ZM325.194 182.84L334.621 193.97L335.436 193.797L326.01 182.667L325.194 182.84ZM357.361 160.617L366.248 171.112L367.063 170.938L358.176 160.444L357.361 160.617ZM365.833 172.325L325.886 180.817L326.425 181.453L366.372 172.962L365.833 172.325ZM366.248 171.112C366.694 171.638 366.509 172.182 365.833 172.325L366.372 172.962C367.497 172.722 367.807 171.816 367.063 170.938L366.248 171.112ZM326.01 182.667C325.563 182.14 325.749 181.596 326.425 181.453L325.886 180.817C324.76 181.056 324.451 181.962 325.194 182.84L326.01 182.667Z" fill="#E2DEDB"/>
<path d="M411.74 164.444L411.333 164.53L411.333 164.53L411.74 164.444ZM421.069 175.86C421.333 175.951 421.591 175.896 421.645 175.738L422.525 173.163C422.579 173.004 422.409 172.803 422.145 172.713C421.88 172.622 421.622 172.677 421.568 172.835L420.786 175.124L416.956 173.816C416.692 173.725 416.434 173.78 416.38 173.938C416.326 174.096 416.496 174.298 416.761 174.388L421.069 175.86ZM366.655 171.025L366.248 171.112L366.655 171.025ZM369.363 171.95L369.094 171.632L369.363 171.95ZM409.033 163.518L409.302 163.836L409.033 163.518ZM411.333 164.53L420.759 175.661L421.574 175.488L412.148 164.357L411.333 164.53ZM357.36 160.617L366.248 171.112L367.063 170.938L358.176 160.444L357.36 160.617ZM369.632 172.268L409.302 163.836L408.763 163.2L369.094 171.632L369.632 172.268ZM366.248 171.112C366.991 171.99 368.507 172.508 369.632 172.268L369.094 171.632C368.418 171.776 367.509 171.465 367.063 170.938L366.248 171.112ZM412.148 164.357C411.404 163.479 409.889 162.961 408.763 163.2L409.302 163.836C409.977 163.693 410.887 164.003 411.333 164.53L412.148 164.357Z" fill="#E2DEDB"/>
<path d="M328.674 126.562L328.266 126.648L328.266 126.648L328.674 126.562ZM338.002 137.978C338.267 138.069 338.525 138.014 338.579 137.856L339.459 135.28C339.513 135.122 339.343 134.921 339.078 134.831C338.814 134.74 338.556 134.795 338.502 134.953L337.719 137.242L333.89 135.934C333.626 135.843 333.368 135.898 333.314 136.056C333.26 136.214 333.43 136.415 333.694 136.506L338.002 137.978ZM283.589 133.143L283.181 133.229L283.589 133.143ZM286.297 134.068L286.027 133.75L286.297 134.068ZM325.966 125.636L326.236 125.954L325.966 125.636ZM328.266 126.648L337.693 137.779L338.508 137.605L329.082 126.475L328.266 126.648ZM274.294 122.735L283.181 133.229L283.997 133.056L275.109 122.562L274.294 122.735ZM286.566 134.386L326.236 125.954L325.697 125.318L286.027 133.75L286.566 134.386ZM283.181 133.229C283.925 134.108 285.44 134.626 286.566 134.386L286.027 133.75C285.352 133.894 284.443 133.583 283.997 133.056L283.181 133.229ZM329.082 126.475C328.338 125.597 326.823 125.079 325.697 125.318L326.236 125.954C326.911 125.811 327.82 126.121 328.266 126.648L329.082 126.475Z" fill="#E2DEDB"/>
<path d="M379.305 120.076C379.853 120.723 380.402 121.371 380.951 122.019C381.891 123.13 382.704 123.828 384.565 124.112C385.504 124.256 386.977 124.029 387.56 123.694C388.44 123.188 388.43 122.145 387.911 121.22C387.336 120.192 387.002 119.299 386.109 118.286C385.156 117.205 382.764 117.106 381.631 117.347C380.451 117.597 379.641 117.81 379.143 118.597C378.797 119.145 378.914 119.614 379.457 120.256" stroke="#E2DEDB" stroke-width="1.66693" stroke-linecap="round"/>
<path d="M385.604 113.232C385.98 113.676 386.355 114.119 386.731 114.562C387.418 115.374 387.904 116.123 389.059 116.721C390.437 117.435 391.616 117.635 393.018 117.69" stroke="#E2DEDB" stroke-width="1.66693" stroke-linecap="round"/>
<path d="M388.907 110.472C388.982 111.136 388.985 111.794 388.984 112.443C388.983 113.236 388.906 114.165 389.289 115.005C389.446 115.351 389.928 115.25 390.257 115.24C390.78 115.226 391.238 115.087 391.701 114.989C392.51 114.817 393.347 114.668 394.123 114.458C394.75 114.288 395.314 114.064 395.924 113.882C396.069 113.839 396.151 113.759 396.303 113.727" stroke="#E2DEDB" stroke-width="1.66693" stroke-linecap="round"/>
<path d="M391.003 107.684C391.552 107.657 393.005 108.569 393.391 108.845C393.951 109.244 394.75 109.745 395.144 110.211" stroke="#E2DEDB" stroke-width="1.66693" stroke-linecap="round"/>
<path d="M397.441 112.065L397.747 112.426" stroke="#E2DEDB" stroke-width="1.66693" stroke-linecap="round"/>
</g>
<g filter="url(#filter1_d_5343_192204)">
<path d="M120.32 291.234C120.997 290.971 121.335 290.839 121.43 290.653C121.513 290.492 121.51 290.3 121.424 290.141C121.324 289.958 120.982 289.835 120.299 289.59L102.869 283.333C102.31 283.133 102.031 283.032 101.848 283.096C101.689 283.151 101.564 283.275 101.509 283.434C101.446 283.617 101.546 283.897 101.747 284.456L108.004 301.885C108.249 302.568 108.371 302.91 108.555 303.01C108.714 303.097 108.905 303.099 109.067 303.017C109.253 302.922 109.384 302.583 109.647 301.907L112.496 294.582C112.547 294.449 112.573 294.383 112.613 294.327C112.648 294.278 112.691 294.235 112.741 294.199C112.797 294.16 112.863 294.134 112.996 294.082L120.32 291.234Z" fill="url(#paint1_linear_5343_192204)" stroke="#FEFDFB" stroke-width="0.5" stroke-linecap="round" stroke-linejoin="round"/>
<rect x="121.49" y="303.077" width="37" height="24" rx="2" fill="url(#paint2_linear_5343_192204)"/>
<path d="M129.936 311.706L132.584 311.706L132.584 319.077L133.873 319.077L133.873 311.706L136.51 311.706L136.51 310.592L129.936 310.592L129.936 311.706ZM137.717 319.077L138.971 319.077L138.971 312.713L137.717 312.713L137.717 319.077ZM137.553 310.991C137.559 311.401 137.916 311.735 138.35 311.729C138.777 311.735 139.135 311.401 139.135 310.991C139.135 310.581 138.777 310.252 138.35 310.252C137.916 310.252 137.559 310.581 137.553 310.991ZM140.494 319.077L141.748 319.077L141.748 315.151C141.748 314.295 142.346 313.709 143.049 313.709C143.734 313.709 144.209 314.161 144.209 314.858L144.209 319.077L145.451 319.077L145.451 315.022C145.451 314.26 145.914 313.709 146.717 313.709C147.373 313.709 147.912 314.067 147.912 314.928L147.912 319.077L149.166 319.077L149.166 314.811C149.16 313.352 148.346 312.631 147.197 312.631C146.277 312.631 145.586 313.071 145.287 313.756L145.217 313.756C144.947 313.047 144.355 312.631 143.506 312.631C142.668 312.631 142.041 313.047 141.771 313.756L141.701 313.756L141.701 312.713L140.494 312.713L140.494 319.077Z" fill="#FEFDFB"/>
</g>
<path d="M171.748 171.39L254.133 207.034C259.342 209.288 265.763 208.675 268.475 205.667C269.056 205.021 269.434 204.296 269.592 203.523L281.222 146.529C282.693 139.321 274.438 131.743 262.787 129.604C258.475 128.812 254.102 128.856 250.252 129.73L171.695 147.57C161.291 149.933 157.277 157.635 162.729 164.773C164.746 167.413 167.894 169.722 171.748 171.39Z" fill="#807B78"/>
<path d="M308.907 242.272C313.249 242.821 317.536 242.521 321.188 241.414L403.112 216.563C409.695 214.567 411.589 209.221 407.346 204.622C407.122 204.38 406.884 204.142 406.63 203.91C396.493 194.608 384.151 186.26 370.161 179.244C356.17 172.228 340.749 166.65 324.593 162.764C316.939 160.923 309.392 163.21 307.737 167.874C307.65 168.119 307.58 168.369 307.528 168.623L295.321 228.44C294.777 231.107 295.566 233.952 297.584 236.593L297.461 236.432C298.59 237.91 300.254 239.238 302.295 240.287C304.372 241.302 306.739 241.998 309.171 242.305" fill="#807B78"/>
<path d="M283.095 241.996C283.172 243.799 282.393 245.486 280.86 246.838L281.047 246.673C278.703 248.74 275.293 250.189 271.279 250.822L181.222 265.026C180.841 265.086 180.453 265.135 180.058 265.173C172.59 265.883 164.626 262.437 162.273 257.475C157.303 246.998 155.13 236.343 155.849 225.985C156.567 215.628 160.171 205.731 166.493 196.74C166.651 196.515 166.825 196.297 167.016 196.085C170.632 192.073 179.193 191.257 186.141 194.262L272.61 231.672C276.464 233.34 279.612 235.649 281.629 238.29L281.468 238.08C282.787 239.807 283.32 241.667 282.996 243.417" fill="#807B78"/>
<path d="M171.747 157.018L254.131 192.662C259.34 194.916 265.762 194.304 268.473 191.295C269.054 190.65 269.433 189.924 269.591 189.151L281.221 132.158C282.692 124.949 274.437 117.372 262.785 115.232C258.474 114.441 254.1 114.485 250.251 115.359L171.693 133.199C161.289 135.561 157.275 143.263 162.727 150.401C164.745 153.041 167.893 155.35 171.747 157.018Z" fill="#514C49"/>
<path d="M308.906 227.901C313.249 228.45 317.536 228.15 321.188 227.042L403.112 202.192C409.694 200.195 411.589 194.85 407.346 190.251C407.122 190.009 406.883 189.771 406.63 189.538C396.493 180.236 384.151 171.889 370.161 164.873C356.17 157.857 340.749 152.279 324.592 148.393C316.939 146.552 309.392 148.839 307.737 153.502C307.65 153.748 307.58 153.998 307.528 154.252L295.321 214.068C294.777 216.735 295.566 219.58 297.584 222.221L297.461 222.061C298.59 223.539 300.254 224.867 302.295 225.916C304.371 226.931 306.739 227.626 309.171 227.933" fill="#FDC433"/>
<path d="M283.095 227.624C283.172 229.427 282.393 231.114 280.86 232.466L281.047 232.302C278.703 234.369 275.293 235.817 271.279 236.451L181.223 250.654C180.842 250.715 180.453 250.764 180.059 250.801C172.59 251.512 164.627 248.065 162.273 243.103C157.303 232.627 155.131 221.971 155.849 211.614C156.568 201.256 160.171 191.36 166.493 182.368C166.651 182.144 166.826 181.925 167.016 181.713C170.632 177.701 179.193 176.885 186.141 179.891L272.61 217.3C276.464 218.968 279.612 221.278 281.63 223.919L281.469 223.708C282.788 225.435 283.32 227.295 282.996 229.045" fill="#FDC433"/>
<rect x="366.49" y="318.077" width="16" height="46" rx="4" fill="#FC8539"/>
<rect x="398.49" y="330.077" width="16" height="34" rx="4" fill="#FC8539"/>
<rect x="430.49" y="304.077" width="16" height="60" rx="4" fill="#FC8539"/>
<rect x="462.49" y="278.077" width="16" height="86" rx="4" fill="#FC8539"/>
<rect width="90" height="22" transform="translate(60.4902 37.0769)" fill="#A385FB" fill-opacity="0.24"/>
<path d="M61.584 53.0769H62.8145V48.6609H68.0508V53.0769H69.2949V43.1785H68.0508V47.5808H62.8145V43.1785H61.584V53.0769ZM74.3535 53.2273C76.3701 53.2341 77.7236 51.7029 77.7168 49.3992C77.7236 47.0818 76.3701 45.5574 74.3535 45.5574C72.3301 45.5574 70.9629 47.0818 70.9629 49.3992C70.9629 51.7029 72.3301 53.2341 74.3535 53.2273ZM72.1387 49.3992C72.1455 47.9226 72.8428 46.5964 74.3535 46.5964C75.8506 46.5964 76.541 47.9226 76.541 49.3992C76.541 50.8826 75.8506 52.1882 74.3535 52.1882C72.8428 52.1882 72.1455 50.8826 72.1387 49.3992ZM80.6836 53.0769H81.8594L83.459 47.4167H83.5684L85.1816 53.0769H86.3438L88.5996 45.6531H87.3691L85.7832 51.2859H85.7012L84.1562 45.6531H82.8984L81.3262 51.3132H81.2578L79.6719 45.6531H78.4277L80.6836 53.0769ZM93.4121 53.0769H94.5879V48.4421C94.5879 47.3621 95.3672 46.6101 96.2559 46.6101C97.1104 46.6101 97.7119 47.1707 97.7051 48.0046V53.0769H98.8945V48.2507C98.9014 47.3074 99.4893 46.6101 100.521 46.6101C101.335 46.6101 102.019 47.0339 102.025 48.1277V53.0769H103.201V48.114C103.201 46.364 102.251 45.5574 100.932 45.5574C99.8652 45.5574 99.0791 46.0496 98.7031 46.8152H98.6211C98.2725 46.0222 97.6094 45.5574 96.6387 45.5574C95.668 45.5574 94.9502 46.0222 94.6426 46.8152H94.5469V45.6531H93.4121V53.0769ZM105.088 53.0769H106.264V45.6531H105.088V53.0769ZM104.855 43.6433C104.849 44.074 105.225 44.4226 105.676 44.4226C106.127 44.4226 106.503 44.074 106.51 43.6433C106.503 43.2058 106.127 42.8572 105.676 42.864C105.225 42.8572 104.849 43.2058 104.855 43.6433ZM111.145 56.0164C112.956 56.0164 114.364 55.196 114.371 53.282V45.6531H113.223V46.8289H113.127C112.86 46.4324 112.396 45.5574 110.953 45.5574C109.087 45.5574 107.781 46.9792 107.781 49.2625C107.781 51.6003 109.135 52.9607 110.939 52.9675C112.375 52.9607 112.847 52.1199 113.1 51.7097H113.195V53.2136C113.195 54.4373 112.416 54.991 111.145 54.991C110.092 54.991 109.388 54.615 109.23 53.8562H108C108.13 55.2302 109.347 56.0164 111.145 56.0164ZM108.971 49.3035C108.971 47.8064 109.675 46.6101 111.104 46.6101C112.484 46.6101 113.216 47.7107 113.223 49.3035C113.216 50.9373 112.464 51.9148 111.104 51.9148C109.695 51.9148 108.971 50.8416 108.971 49.3035ZM117.42 48.6199C117.42 47.3347 118.24 46.6101 119.348 46.6101C120.414 46.6101 121.057 47.2732 121.057 48.4421V53.0769H122.232V48.3601C122.232 46.4529 121.221 45.5574 119.703 45.5574C118.527 45.5574 117.864 46.0496 117.516 46.8152H117.42V43.1785H116.244V53.0769H117.42V48.6199ZM127.359 45.6531H125.801V43.8757H124.611V45.6531H123.49V46.6375H124.611V51.2449C124.618 52.5574 125.657 53.1726 126.648 53.1726C126.997 53.1726 127.284 53.1453 127.469 53.1179V52.0242C127.298 52.031 126.983 52.0515 126.771 52.0515C126.272 52.0515 125.794 51.8943 125.801 50.9441V46.6375H127.359V45.6531ZM134.059 53.0769H135.234L136.834 47.4167H136.943L138.557 53.0769H139.719L141.975 45.6531H140.744L139.158 51.2859H139.076L137.531 45.6531H136.273L134.701 51.3132H134.633L133.047 45.6531H131.803L134.059 53.0769ZM146.145 53.2273C147.676 53.2341 148.776 52.4685 149.125 51.3406H147.867C147.594 51.7986 147.033 52.1882 146.145 52.1882C144.825 52.1882 143.909 51.3269 143.848 49.7546H149.234V49.2625C149.241 46.5144 147.594 45.5574 146.035 45.5574C144.019 45.5574 142.672 47.1433 142.672 49.4265C142.672 51.7029 143.998 53.2341 146.145 53.2273ZM143.854 48.7566C143.937 47.6082 144.75 46.5964 146.035 46.5964C147.259 46.5964 148.038 47.5193 148.045 48.7566H143.854Z" fill="#764AF3"/>
<g filter="url(#filter2_d_5343_192204)">
<rect x="150.24" y="37.8269" width="1.5" height="20.5" rx="0.75" fill="url(#paint3_linear_5343_192204)" stroke="#FEFDFB" stroke-width="0.5"/>
<rect x="161.49" y="58.0769" width="41" height="24" rx="2" fill="url(#paint4_linear_5343_192204)"/>
<path d="M169.701 65.5925L172.771 70.7488L172.771 74.0769L174.061 74.0769L174.061 70.7488L177.143 65.5925L175.678 65.5925L173.463 69.4363L173.369 69.4363L171.166 65.5925L169.701 65.5925ZM179.756 74.2058C181.549 74.2058 182.721 72.8933 182.721 70.9246C182.721 68.9441 181.549 67.6316 179.756 67.6316C177.951 67.6316 176.773 68.9441 176.779 70.9246C176.773 72.8933 177.951 74.2058 179.756 74.2058ZM178.033 70.9246C178.033 69.7058 178.59 68.6687 179.756 68.6628C180.904 68.6687 181.455 69.7058 181.455 70.9246C181.455 72.1375 180.904 73.1628 179.756 73.1628C178.59 73.1628 178.033 72.1375 178.033 70.9246ZM183.951 74.0769L185.205 74.0769L185.205 70.198C185.205 69.366 185.85 68.7625 186.717 68.7683C186.975 68.7625 187.268 68.8152 187.373 68.8386L187.373 67.6433C187.244 67.6316 186.998 67.614 186.846 67.6199C186.102 67.614 185.463 68.0417 185.229 68.7214L185.158 68.7214L185.158 67.7136L183.951 67.7136L183.951 74.0769ZM188.311 74.0769L189.564 74.0769L189.564 71.8152L190.168 71.2175L192.33 74.0769L193.865 74.0769L191.117 70.4441L193.689 67.7136L192.189 67.7136L189.67 70.3972L189.564 70.3972L189.564 65.5925L188.311 65.5925L188.311 74.0769Z" fill="#FEFDFB"/>
</g>
<path d="M371.13 107.325C379.121 100.71 389.918 78.6822 399.438 68.4636C408.957 58.245 416.522 59.9408 415.792 66.1804C415.061 72.42 399.366 87.6893 393.882 97.3667C388.397 107.044 394.018 112.762 401.068 105.944C408.118 99.125 419.029 90.2674 420.629 97.7331C422.229 105.199 410.039 110.206 417.891 110.911C425.743 111.616 424.211 114.877 424.726 118.846" stroke="#5AD198" stroke-width="4" stroke-linecap="round"/>
<g filter="url(#filter3_d_5343_192204)">
<g clip-path="url(#clip11_5343_192204)">
<g filter="url(#filter4_d_5343_192204)">
<path d="M425.328 116.049L425.577 116.073L425.328 116.049C425.176 117.667 426.363 119.103 427.981 119.258L428.005 119.01L427.981 119.258C428.516 119.31 429.056 119.246 429.564 119.071L435.026 117.188L435.026 117.188C435.317 117.088 435.587 116.936 435.825 116.74L444.873 109.259C445.461 108.773 445.617 107.937 445.244 107.272C443.981 105.019 442.322 103.012 440.346 101.347C439.763 100.856 438.912 100.852 438.325 101.338L429.276 108.819C429.039 109.015 428.839 109.252 428.685 109.519L425.81 114.529L426.027 114.654L425.81 114.529C425.542 114.996 425.378 115.514 425.328 116.049Z" fill="url(#paint5_linear_5343_192204)" stroke="#FEFDFB" stroke-width="0.5"/>
<path d="M428.472 119.033L428.472 119.033C428.26 119.232 428.122 119.289 427.906 119.378L427.811 119.147L427.906 119.378L427.896 119.382C427.134 119.697 426.55 119.938 426.105 120.087C425.672 120.233 425.314 120.315 425.032 120.252L425.032 120.252C424.329 120.093 423.821 119.479 423.798 118.758L423.798 118.758C423.788 118.469 423.936 118.133 424.161 117.736C424.392 117.327 424.738 116.799 425.19 116.109L425.196 116.1C425.324 115.904 425.406 115.78 425.642 115.609L425.642 115.609C425.781 115.508 426.009 115.431 426.209 115.383C426.408 115.335 426.647 115.301 426.817 115.328C426.938 115.347 427.016 115.362 427.073 115.377L428.472 119.033ZM428.472 119.033C428.597 118.915 428.716 118.705 428.801 118.518C428.885 118.331 428.963 118.104 428.969 117.932C428.973 117.809 428.974 117.729 428.969 117.671C428.963 117.598 428.95 117.557 428.938 117.521C428.812 117.157 428.603 116.745 428.258 116.328M428.472 119.033L428.258 116.328M428.258 116.328C427.914 115.911 427.548 115.628 427.214 115.436L428.258 116.328Z" fill="url(#paint6_linear_5343_192204)" stroke="#FEFDFB" stroke-width="0.5"/>
<path d="M435.145 113.517C434.694 113.89 434.015 113.762 433.731 113.25C433.368 112.594 432.886 112.011 432.31 111.531C431.861 111.156 431.862 110.465 432.313 110.092L439.324 104.296C439.642 104.033 439.801 103.901 439.955 103.818C440.588 103.477 441.365 103.551 441.922 104.005C442.058 104.115 442.189 104.275 442.453 104.593C442.716 104.911 442.847 105.07 442.93 105.224C443.272 105.857 443.198 106.633 442.744 107.191C442.633 107.327 442.474 107.458 442.156 107.721L435.145 113.517Z" fill="#FEFDFB"/>
</g>
</g>
<rect x="443.49" y="121.077" width="38" height="24" rx="2" fill="url(#paint7_linear_5343_192204)"/>
<path d="M453.084 137.077L453.857 134.839L457.162 134.839L457.936 137.077L459.307 137.077L456.248 128.593L454.76 128.593L451.713 137.077L453.084 137.077ZM454.227 133.76L455.475 130.139L455.533 130.139L456.787 133.76L454.227 133.76ZM461.533 128.593L460.279 128.593L460.279 137.077L461.533 137.077L461.533 128.593ZM466.033 130.714L464.732 130.714L464.732 129.19L463.49 129.19L463.49 130.714L462.553 130.714L462.553 131.71L463.49 131.71L463.49 135.46C463.479 136.62 464.363 137.159 465.342 137.159C465.687 137.159 465.957 137.135 466.127 137.112L466.127 136.022C465.951 136.04 465.676 136.057 465.494 136.057C465.09 136.052 464.738 135.923 464.732 135.202L464.732 131.71L466.033 131.71L466.033 130.714ZM469.877 137.206C471.67 137.206 472.842 135.893 472.842 133.925C472.842 131.944 471.67 130.632 469.877 130.632C468.072 130.632 466.895 131.944 466.9 133.925C466.895 135.893 468.072 137.206 469.877 137.206ZM468.154 133.925C468.154 132.706 468.711 131.669 469.877 131.663C471.025 131.669 471.576 132.706 471.576 133.925C471.576 135.137 471.025 136.163 469.877 136.163C468.711 136.163 468.154 135.137 468.154 133.925Z" fill="#FEFDFB"/>
</g>
</g>
<defs>
<filter id="filter0_d_5343_192204" x="327.057" y="313.521" width="16.2803" height="16.2809" filterUnits="userSpaceOnUse" color-interpolation-filters="sRGB">
<feFlood flood-opacity="0" result="BackgroundImageFix"/>
<feColorMatrix in="SourceAlpha" type="matrix" values="0 0 0 0 0 0 0 0 0 0 0 0 0 0 0 0 0 0 127 0" result="hardAlpha"/>
<feMorphology radius="3.33385" operator="erode" in="SourceAlpha" result="effect1_dropShadow_5343_192204"/>
<feOffset dy="3.33385"/>
<feGaussianBlur stdDeviation="1.66693"/>
<feColorMatrix type="matrix" values="0 0 0 0 0 0 0 0 0 0 0 0 0 0 0 0 0 0 0.2 0"/>
<feBlend mode="multiply" in2="BackgroundImageFix" result="effect1_dropShadow_5343_192204"/>
<feBlend mode="normal" in="SourceGraphic" in2="effect1_dropShadow_5343_192204" result="shape"/>
</filter>
<filter id="filter1_d_5343_192204" x="93.2402" y="282.827" width="73.25" height="60.25" filterUnits="userSpaceOnUse" color-interpolation-filters="sRGB">
<feFlood flood-opacity="0" result="BackgroundImageFix"/>
<feColorMatrix in="SourceAlpha" type="matrix" values="0 0 0 0 0 0 0 0 0 0 0 0 0 0 0 0 0 0 127 0" result="hardAlpha"/>
<feOffset dy="8"/>
<feGaussianBlur stdDeviation="4"/>
<feComposite in2="hardAlpha" operator="out"/>
<feColorMatrix type="matrix" values="0 0 0 0 0 0 0 0 0 0 0 0 0 0 0 0 0 0 0.08 0"/>
<feBlend mode="normal" in2="BackgroundImageFix" result="effect1_dropShadow_5343_192204"/>
<feBlend mode="normal" in="SourceGraphic" in2="effect1_dropShadow_5343_192204" result="shape"/>
</filter>
<filter id="filter2_d_5343_192204" x="133.49" y="37.5769" width="77" height="60.5" filterUnits="userSpaceOnUse" color-interpolation-filters="sRGB">
<feFlood flood-opacity="0" result="BackgroundImageFix"/>
<feColorMatrix in="SourceAlpha" type="matrix" values="0 0 0 0 0 0 0 0 0 0 0 0 0 0 0 0 0 0 127 0" result="hardAlpha"/>
<feOffset dy="8"/>
<feGaussianBlur stdDeviation="4"/>
<feComposite in2="hardAlpha" operator="out"/>
<feColorMatrix type="matrix" values="0 0 0 0 0 0 0 0 0 0 0 0 0 0 0 0 0 0 0.08 0"/>
<feBlend mode="normal" in2="BackgroundImageFix" result="effect1_dropShadow_5343_192204"/>
<feBlend mode="normal" in="SourceGraphic" in2="effect1_dropShadow_5343_192204" result="shape"/>
</filter>
<filter id="filter3_d_5343_192204" x="407.834" y="95.2527" width="81.6559" height="65.8242" filterUnits="userSpaceOnUse" color-interpolation-filters="sRGB">
<feFlood flood-opacity="0" result="BackgroundImageFix"/>
<feColorMatrix in="SourceAlpha" type="matrix" values="0 0 0 0 0 0 0 0 0 0 0 0 0 0 0 0 0 0 127 0" result="hardAlpha"/>
<feOffset dy="8"/>
<feGaussianBlur stdDeviation="4"/>
<feComposite in2="hardAlpha" operator="out"/>
<feColorMatrix type="matrix" values="0 0 0 0 0 0 0 0 0 0 0 0 0 0 0 0 0 0 0.08 0"/>
<feBlend mode="normal" in2="BackgroundImageFix" result="effect1_dropShadow_5343_192204"/>
<feBlend mode="normal" in="SourceGraphic" in2="effect1_dropShadow_5343_192204" result="shape"/>
</filter>
<filter id="filter4_d_5343_192204" x="421.547" y="99.7263" width="26.1484" height="23.7971" filterUnits="userSpaceOnUse" color-interpolation-filters="sRGB">
<feFlood flood-opacity="0" result="BackgroundImageFix"/>
<feColorMatrix in="SourceAlpha" type="matrix" values="0 0 0 0 0 0 0 0 0 0 0 0 0 0 0 0 0 0 127 0" result="hardAlpha"/>
<feOffset dy="1"/>
<feGaussianBlur stdDeviation="1"/>
<feComposite in2="hardAlpha" operator="out"/>
<feColorMatrix type="matrix" values="0 0 0 0 0 0 0 0 0 0 0 0 0 0 0 0 0 0 0.4 0"/>
<feBlend mode="normal" in2="BackgroundImageFix" result="effect1_dropShadow_5343_192204"/>
<feBlend mode="normal" in="SourceGraphic" in2="effect1_dropShadow_5343_192204" result="shape"/>
</filter>
<linearGradient id="paint0_linear_5343_192204" x1="333.901" y1="324.103" x2="336.527" y2="321.879" gradientUnits="userSpaceOnUse">
<stop stop-color="#EFEFEF"/>
<stop offset="0.526042" stop-color="#E6E6E6"/>
<stop offset="1" stop-color="#EFEFEF"/>
</linearGradient>
<linearGradient id="paint1_linear_5343_192204" x1="111.49" y1="283.077" x2="111.49" y2="303.077" gradientUnits="userSpaceOnUse">
<stop stop-color="#FC94D8"/>
<stop offset="1" stop-color="#F44954"/>
</linearGradient>
<linearGradient id="paint2_linear_5343_192204" x1="139.99" y1="303.077" x2="139.99" y2="327.077" gradientUnits="userSpaceOnUse">
<stop stop-color="#FC94D8"/>
<stop offset="1" stop-color="#F44954"/>
</linearGradient>
<linearGradient id="paint3_linear_5343_192204" x1="150.99" y1="38.0769" x2="150.99" y2="58.0769" gradientUnits="userSpaceOnUse">
<stop stop-color="#84B5FF"/>
<stop offset="1" stop-color="#855CF9"/>
</linearGradient>
<linearGradient id="paint4_linear_5343_192204" x1="181.99" y1="58.0769" x2="181.99" y2="82.0769" gradientUnits="userSpaceOnUse">
<stop stop-color="#84B5FF"/>
<stop offset="1" stop-color="#855CF9"/>
</linearGradient>
<linearGradient id="paint5_linear_5343_192204" x1="426.183" y1="118.043" x2="442.869" y2="104.248" gradientUnits="userSpaceOnUse">
<stop stop-color="#D7E38B"/>
<stop offset="1" stop-color="#23C176"/>
</linearGradient>
<linearGradient id="paint6_linear_5343_192204" x1="424.353" y1="119.557" x2="428.066" y2="116.487" gradientUnits="userSpaceOnUse">
<stop stop-color="#D7E38B"/>
<stop offset="1" stop-color="#23C176"/>
</linearGradient>
<linearGradient id="paint7_linear_5343_192204" x1="462.49" y1="121.077" x2="462.49" y2="145.077" gradientUnits="userSpaceOnUse">
<stop stop-color="#D7E38B"/>
<stop offset="1" stop-color="#23C176"/>
</linearGradient>
<clipPath id="clip0_5343_192204">
<rect width="538.417" height="350.055" rx="6.66771" transform="matrix(0.978148 -0.207912 0.646257 0.76312 -108 131.943)" fill="white"/>
</clipPath>
<clipPath id="clip1_5343_192204">
<rect width="16.6693" height="16.6693" rx="3.33385" transform="matrix(0.978148 -0.207912 0.646257 0.76312 318.24 313.783)" fill="white"/>
</clipPath>
<clipPath id="clip2_5343_192204">
<rect width="16.6693" height="16.6693" rx="3.33385" transform="matrix(0.978148 -0.207912 0.646257 0.76312 288.893 320.021)" fill="white"/>
</clipPath>
<clipPath id="clip3_5343_192204">
<rect width="10.0016" height="10.0016" fill="white" transform="matrix(0.978148 -0.207912 0.646257 0.76312 294.307 321.873)"/>
</clipPath>
<clipPath id="clip4_5343_192204">
<rect width="16.6693" height="16.6693" rx="3.33385" transform="matrix(0.978148 -0.207912 0.646257 0.76312 262.803 325.567)" fill="white"/>
</clipPath>
<clipPath id="clip5_5343_192204">
<rect width="10.0016" height="10.0016" fill="white" transform="matrix(0.978148 -0.207912 0.646257 0.76312 268.221 327.418)"/>
</clipPath>
<clipPath id="clip6_5343_192204">
<rect width="16.6693" height="16.6693" rx="3.33385" transform="matrix(0.978148 -0.207912 0.646257 0.76312 344.326 308.238)" fill="white"/>
</clipPath>
<clipPath id="clip7_5343_192204">
<rect width="16.6693" height="16.6693" rx="3.33385" transform="matrix(0.978148 -0.207912 0.646257 0.76312 370.414 302.693)" fill="white"/>
</clipPath>
<clipPath id="clip8_5343_192204">
<rect width="16.6693" height="16.6693" rx="3.33385" transform="matrix(0.978148 -0.207912 0.646257 0.76312 396.504 297.148)" fill="white"/>
</clipPath>
<clipPath id="clip9_5343_192204">
<rect width="16.6693" height="16.6693" rx="3.33385" transform="matrix(0.978148 -0.207912 0.646257 0.76312 422.592 291.602)" fill="white"/>
</clipPath>
<clipPath id="clip10_5343_192204">
<rect width="9.42176" height="9.09233" fill="white" transform="matrix(0.978148 -0.207912 0.646257 0.76312 428.407 293.523)"/>
</clipPath>
<clipPath id="clip11_5343_192204">
<rect width="16.8889" height="32" fill="white" transform="translate(426.596 128.659) rotate(-129.582)"/>
</clipPath>
</defs>
</svg>
