<svg width="512" height="380" viewBox="0 0 512 380" fill="none" xmlns="http://www.w3.org/2000/svg">
<g clip-path="url(#clip0_5343_192206)">
<rect width="538.417" height="350.055" rx="6.66771" transform="matrix(0.978148 -0.207912 0.646257 0.76312 -108 111.943)" fill="#FEFDFB"/>
<rect x="0.33847" y="0.115686" width="76.2619" height="76.2619" transform="matrix(0.978148 -0.207912 0.646257 0.76312 99.5774 148.212)" fill="#FAF8F6" stroke="#EFECEB" stroke-width="0.416732"/>
<rect width="40.0062" height="6.66771" rx="3.33385" transform="matrix(0.978148 -0.207912 0.646257 0.76312 115.893 153.667)" fill="#EFECEB"/>
<rect x="0.33847" y="0.115686" width="76.2619" height="76.2619" transform="matrix(0.978148 -0.207912 0.646257 0.76312 15.604 166.06)" fill="#FAF8F6" stroke="#EFECEB" stroke-width="0.416732"/>
<rect width="40.0062" height="6.66771" rx="3.33385" transform="matrix(0.978148 -0.207912 0.646257 0.76312 31.9197 171.516)" fill="#EFECEB"/>
<rect x="0.33847" y="0.115686" width="59.5926" height="27.921" rx="13.9605" transform="matrix(0.978148 -0.207912 0.646257 0.76312 309.222 125.415)" fill="#FAF8F6" stroke="#EFECEB" stroke-width="0.416732"/>
<rect x="0.33847" y="0.115686" width="59.5926" height="27.921" rx="13.9605" transform="matrix(0.978148 -0.207912 0.646257 0.76312 226.156 87.5326)" fill="#FAF8F6" stroke="#EFECEB" stroke-width="0.416732"/>
<rect x="0.33847" y="0.115686" width="66.2603" height="27.921" rx="13.9605" transform="matrix(0.978148 -0.207912 0.646257 0.76312 389.566 164.626)" fill="#FAF8F6" stroke="#EFECEB" stroke-width="0.416732"/>
<rect x="0.33847" y="0.115686" width="66.2603" height="27.921" rx="13.9605" transform="matrix(0.978148 -0.207912 0.646257 0.76312 303.967 182.821)" fill="#FAF8F6" stroke="#EFECEB" stroke-width="0.416732"/>
<g opacity="0.5">
<rect x="0.169235" y="0.0578432" width="193.155" height="24.7955" rx="6.56352" transform="matrix(0.978148 -0.207912 0.646257 0.76312 253.555 303.822)" fill="#FEFDFB" stroke="#514C49" stroke-width="0.208366"/>
<line y1="-0.104183" x2="25.0039" y2="-0.104183" transform="matrix(0.646257 0.76312 -0.978148 0.207912 309.025 291.989)" stroke="#514C49" stroke-width="0.208366"/>
<g clip-path="url(#clip1_5343_192206)">
<g filter="url(#filter0_d_5343_192206)">
<mask id="mask0_5343_192206" style="mask-type:alpha" maskUnits="userSpaceOnUse" x="319" y="290" width="25" height="17">
<rect width="12.2145" height="17.7111" transform="matrix(0.978148 -0.207912 0.646257 0.76312 319.943 292.952)" fill="#D9D9D9"/>
</mask>
<g mask="url(#mask0_5343_192206)">
<path d="M331.562 295.666L331.562 295.666L331.551 295.658C331.21 295.427 330.819 295.235 330.406 295.094L330.382 295.166L330.406 295.094C329.166 294.671 327.956 294.928 327.701 295.669C327.616 295.916 327.621 296.19 327.715 296.473L327.714 296.473L327.719 296.483L329.938 301.002C329.992 301.161 330.086 301.321 330.216 301.474L339.376 312.291C339.693 312.665 340.309 312.914 340.838 312.88C342.743 312.76 344.485 312.39 345.981 311.787C346.397 311.62 346.468 311.225 346.151 310.851L336.991 300.034C336.861 299.881 336.697 299.736 336.506 299.606L331.562 295.666Z" fill="url(#paint0_linear_5343_192206)" stroke="#C2BDBA" stroke-width="0.208366"/>
<path d="M329.837 296.305C329.495 296.378 329.169 296.388 328.889 296.37C328.847 296.367 328.826 296.366 328.63 296.307C328.438 296.249 328.041 296.016 327.924 295.892C327.804 295.766 327.779 295.705 327.728 295.583C327.352 294.677 326.966 293.992 327.076 293.809C327.234 293.545 327.684 293.449 328.172 293.576C328.511 293.663 329.227 294.279 330.266 295.044C330.405 295.146 330.475 295.198 330.573 295.329C330.67 295.457 330.728 295.762 330.678 295.872C330.626 295.983 330.614 295.992 330.589 296.008C330.42 296.122 330.179 296.232 329.837 296.305Z" fill="#01111A"/>
<path d="M332.788 301.874C332.528 301.567 332.689 301.259 333.123 301.233C333.68 301.2 334.188 301.092 334.623 300.915C334.962 300.776 335.515 300.932 335.775 301.239L343.76 310.669C343.944 310.885 344.036 310.993 344.089 311.088C344.308 311.478 344.182 311.846 343.77 312.02C343.67 312.063 343.531 312.092 343.254 312.151C342.976 312.21 342.837 312.24 342.707 312.246C342.171 312.273 341.555 312.063 341.148 311.713C341.049 311.628 340.957 311.52 340.774 311.303L332.788 301.874Z" fill="black"/>
</g>
</g>
</g>
<g clip-path="url(#clip2_5343_192206)">
<g clip-path="url(#clip3_5343_192206)">
<path fill-rule="evenodd" clip-rule="evenodd" d="M300.006 301.787C299.841 301.822 299.806 301.949 299.9 302.06L301.846 304.356C301.994 304.532 301.932 304.713 301.707 304.761C301.482 304.809 301.179 304.705 301.03 304.53L299.384 302.586C299.29 302.475 299.085 302.4 298.92 302.435C298.754 302.47 298.72 302.596 298.814 302.708L301.357 305.711C301.506 305.887 301.444 306.068 301.219 306.116C300.994 306.164 300.691 306.06 300.542 305.884L299.794 305.001C299.7 304.89 299.494 304.815 299.329 304.85C299.164 304.885 299.129 305.011 299.223 305.122L299.822 305.829C300.908 307.111 303.158 307.872 304.854 307.511C306.55 307.151 307.022 305.811 305.936 304.529L304.44 302.763C304.346 302.651 304.14 302.576 303.975 302.611C303.81 302.646 303.775 302.773 303.869 302.884L304.617 303.767C304.766 303.943 304.704 304.124 304.479 304.172C304.254 304.22 303.951 304.116 303.802 303.941L302.156 301.997C302.062 301.886 301.857 301.811 301.691 301.846C301.526 301.881 301.491 302.007 301.586 302.118L303.231 304.062C303.38 304.238 303.318 304.419 303.093 304.467C302.868 304.514 302.565 304.411 302.416 304.235L300.471 301.938C300.377 301.827 300.172 301.752 300.006 301.787ZM300.777 301.371C300.37 301.158 299.87 301.065 299.468 301.151C299.065 301.237 298.85 301.481 298.873 301.775C298.702 301.76 298.534 301.766 298.381 301.799C297.781 301.927 297.597 302.407 297.999 302.881L299.1 304.182C298.993 304.182 298.889 304.193 298.79 304.214C298.19 304.341 298.006 304.821 298.408 305.296L299.007 306.002C300.4 307.647 303.262 308.6 305.393 308.147C307.524 307.694 308.145 306.001 306.751 304.356L305.255 302.589C304.854 302.115 304.037 301.848 303.436 301.975C303.338 301.996 303.251 302.027 303.176 302.065L302.972 301.824C302.57 301.35 301.753 301.082 301.153 301.21C300.999 301.242 300.873 301.298 300.777 301.371Z" fill="black"/>
</g>
</g>
<g clip-path="url(#clip4_5343_192206)">
<rect width="16.6693" height="16.6693" rx="3.33385" transform="matrix(0.978148 -0.207912 0.646257 0.76312 262.803 305.567)" fill="#3C9AF1" fill-opacity="0.32"/>
<g clip-path="url(#clip5_5343_192206)">
<path fill-rule="evenodd" clip-rule="evenodd" d="M270.924 307.827C270.93 307.827 270.935 307.827 270.941 307.828L278.972 308.266C279.114 308.274 279.249 308.281 279.359 308.293C279.452 308.304 279.657 308.329 279.853 308.436C280.066 308.554 280.21 308.72 280.237 308.88C280.262 309.026 280.159 309.12 280.112 309.162C280.056 309.212 279.975 309.268 279.891 309.326L277.882 310.721L278.617 313.053C278.648 313.15 278.677 313.244 278.691 313.318C278.703 313.38 278.727 313.517 278.618 313.617C278.499 313.727 278.283 313.77 278.042 313.733C277.822 313.698 277.644 313.592 277.565 313.544C277.47 313.486 277.358 313.409 277.242 313.329L270.622 308.759C270.618 308.756 270.613 308.753 270.608 308.75C270.515 308.685 270.42 308.619 270.347 308.562C270.279 308.508 270.151 308.403 270.103 308.271C270.047 308.12 270.094 307.981 270.231 307.896C270.35 307.821 270.515 307.816 270.603 307.815C270.695 307.814 270.81 307.821 270.924 307.827ZM277.863 310.657C277.863 310.657 277.863 310.657 277.863 310.657V310.657ZM277.828 310.759C277.828 310.759 277.828 310.759 277.828 310.759V310.759ZM271.374 308.496L277.603 312.796L276.918 310.623C276.918 310.62 276.917 310.617 276.916 310.614C276.906 310.584 276.885 310.521 276.889 310.46C276.892 310.409 276.908 310.361 276.937 310.318C276.972 310.268 277.026 310.231 277.053 310.213C277.056 310.211 277.058 310.209 277.06 310.208L278.932 308.908L271.374 308.496Z" fill="black"/>
</g>
</g>
<g clip-path="url(#clip6_5343_192206)">
<rect width="13.3354" height="11.6685" rx="3.33385" transform="matrix(0.978148 -0.207912 0.646257 0.76312 347.573 289.8)" fill="#F27B2F"/>
</g>
<g clip-path="url(#clip7_5343_192206)">
<path d="M374.074 284.168C373.925 283.992 373.987 283.811 374.212 283.763L385.625 281.337C385.85 281.289 386.154 281.393 386.302 281.568L392.4 288.768C392.473 288.855 392.498 288.948 392.469 289.025L391.627 291.215C391.599 291.288 391.525 291.341 391.42 291.363L382.291 293.303C382.066 293.351 381.763 293.248 381.614 293.072L374.074 284.168Z" fill="#F5B103" fill-opacity="0.4"/>
<path d="M390.233 289.13C390.107 288.776 390.407 288.507 390.911 288.521L392.221 288.554L392.366 288.726C392.515 288.902 392.564 289.09 392.501 289.245L391.758 291.088C391.701 291.231 391.553 291.335 391.346 291.379L391.057 291.44L390.233 289.13Z" fill="#F4D179"/>
</g>
<g clip-path="url(#clip8_5343_192206)">
<path fill-rule="evenodd" clip-rule="evenodd" d="M407.737 277.386L412.919 278.284L410.607 280.775L409.457 279.417C408.708 279.773 408.577 280.541 409.211 281.289L410.801 283.167C411.817 284.367 411.399 285.603 409.868 285.928L408.348 286.251C408.142 286.295 407.863 286.2 407.725 286.037C407.588 285.875 407.644 285.708 407.851 285.664L409.371 285.341C410.488 285.104 410.793 284.202 410.052 283.327L408.461 281.448C407.552 280.375 407.792 279.271 408.95 278.818L407.737 277.386Z" fill="black"/>
<path d="M413.522 277.325C413.413 277.195 413.458 277.062 413.623 277.026C413.789 276.991 414.012 277.068 414.122 277.197L415.315 278.606C415.425 278.736 415.379 278.869 415.214 278.905C415.048 278.94 414.825 278.863 414.715 278.734L413.522 277.325Z" fill="#A6A19E"/>
<path d="M405.407 285.699C405.298 285.57 405.343 285.436 405.508 285.401C405.674 285.366 405.897 285.442 406.007 285.572L407.2 286.981C407.31 287.11 407.264 287.244 407.099 287.279C406.933 287.314 406.71 287.238 406.6 287.108L405.407 285.699Z" fill="#A6A19E"/>
</g>
<g clip-path="url(#clip9_5343_192206)">
<g clip-path="url(#clip10_5343_192206)">
<path fill-rule="evenodd" clip-rule="evenodd" d="M431.817 273.822L435.682 273C435.85 272.965 435.995 272.934 436.121 272.914C436.253 272.894 436.392 272.881 436.55 272.894C436.907 272.922 437.274 273.043 437.571 273.231C437.703 273.314 437.802 273.405 437.892 273.499C437.977 273.588 438.069 273.697 438.177 273.824L438.185 273.833C438.32 273.993 438.257 274.159 438.045 274.204C437.833 274.249 437.552 274.156 437.417 273.996C437.299 273.858 437.223 273.768 437.159 273.701C437.097 273.636 437.066 273.613 437.049 273.603C436.95 273.54 436.827 273.5 436.709 273.49C436.688 273.489 436.648 273.488 436.557 273.502C436.462 273.517 436.343 273.542 436.159 273.581L434.623 273.908L438.051 277.955L438.819 277.792C439.031 277.747 439.312 277.84 439.447 277.999C439.583 278.159 439.52 278.325 439.308 278.37L437.004 278.86C436.792 278.905 436.511 278.812 436.375 278.652C436.24 278.493 436.303 278.327 436.515 278.282L437.283 278.118L433.855 274.071L432.319 274.397C432.135 274.437 432.016 274.462 431.929 274.486C431.845 274.509 431.818 274.524 431.807 274.532C431.737 274.582 431.71 274.654 431.731 274.733C431.735 274.746 431.746 274.774 431.796 274.841C431.848 274.911 431.923 275 432.041 275.139C432.176 275.299 432.114 275.465 431.901 275.51C431.689 275.555 431.408 275.462 431.273 275.302L431.265 275.293C431.157 275.166 431.065 275.057 430.996 274.964C430.924 274.867 430.862 274.768 430.834 274.663C430.771 274.425 430.853 274.209 431.06 274.061C431.152 273.995 431.267 273.954 431.388 273.92C431.503 273.889 431.649 273.858 431.817 273.822Z" fill="black"/>
</g>
<path fill-rule="evenodd" clip-rule="evenodd" d="M428.43 272.75C428.156 272.808 427.93 272.905 427.756 273.029C427.647 273.106 427.434 273.09 427.28 272.992C427.125 272.894 427.088 272.753 427.196 272.676C427.421 272.515 427.712 272.391 428.062 272.316L429.07 272.102C429.229 272.068 429.441 272.138 429.542 272.258C429.643 272.378 429.597 272.502 429.438 272.536L428.43 272.75ZM430.982 271.952C430.881 271.832 430.927 271.708 431.086 271.674L433.102 271.245C433.261 271.211 433.473 271.281 433.574 271.401C433.675 271.521 433.629 271.645 433.47 271.679L431.454 272.107C431.295 272.141 431.083 272.072 430.982 271.952ZM435.014 271.095C434.913 270.975 434.959 270.851 435.118 270.817L436.126 270.602C436.477 270.528 436.857 270.509 437.244 270.54C437.43 270.554 437.607 270.666 437.64 270.79C437.672 270.914 437.548 271.002 437.363 270.987C437.063 270.964 436.767 270.978 436.494 271.036L435.486 271.25C435.327 271.284 435.115 271.215 435.014 271.095ZM426.964 273.833C427.15 273.847 427.327 273.959 427.36 274.083C427.413 274.283 427.524 274.49 427.699 274.696L428.296 275.401C428.397 275.521 428.351 275.645 428.191 275.679C428.032 275.713 427.821 275.643 427.72 275.524L427.123 274.819C426.899 274.555 426.755 274.287 426.687 274.03C426.654 273.906 426.779 273.818 426.964 273.833ZM439.066 271.261C439.174 271.183 439.387 271.2 439.541 271.298C439.863 271.501 440.147 271.739 440.371 272.003L440.968 272.708C441.069 272.827 441.022 272.952 440.863 272.986C440.704 273.02 440.493 272.95 440.392 272.83L439.795 272.125C439.62 271.919 439.4 271.735 439.15 271.577C438.995 271.479 438.958 271.338 439.066 271.261ZM429.018 276.655C429.177 276.621 429.388 276.691 429.489 276.811L430.683 278.22C430.784 278.34 430.738 278.464 430.579 278.498C430.42 278.532 430.208 278.462 430.107 278.342L428.913 276.933C428.812 276.813 428.859 276.689 429.018 276.655ZM441.69 273.961C441.849 273.928 442.06 273.997 442.161 274.117L443.355 275.526C443.456 275.646 443.409 275.771 443.25 275.805C443.091 275.838 442.88 275.769 442.779 275.649L441.585 274.239C441.484 274.12 441.531 273.995 441.69 273.961ZM431.405 279.474C431.564 279.44 431.775 279.51 431.877 279.629L432.473 280.334C432.648 280.54 432.868 280.725 433.118 280.882C433.273 280.98 433.31 281.122 433.202 281.199C433.094 281.276 432.881 281.259 432.727 281.162C432.405 280.958 432.121 280.721 431.897 280.456L431.301 279.752C431.199 279.632 431.246 279.508 431.405 279.474ZM444.077 276.78C444.236 276.746 444.447 276.816 444.548 276.936L445.145 277.641C445.369 277.905 445.513 278.172 445.581 278.429C445.614 278.553 445.49 278.641 445.304 278.627C445.118 278.612 444.941 278.5 444.908 278.376C444.855 278.177 444.744 277.969 444.569 277.763L443.972 277.058C443.871 276.939 443.918 276.814 444.077 276.78ZM434.629 281.669C434.596 281.546 434.72 281.458 434.906 281.472C435.206 281.496 435.501 281.482 435.775 281.423L436.783 281.209C436.942 281.175 437.153 281.245 437.254 281.365C437.356 281.484 437.309 281.609 437.15 281.643L436.142 281.857C435.791 281.932 435.411 281.95 435.024 281.92C434.838 281.905 434.661 281.793 434.629 281.669ZM444.988 279.467C445.143 279.565 445.181 279.707 445.073 279.784C444.847 279.944 444.557 280.068 444.206 280.143L443.198 280.357C443.039 280.391 442.828 280.321 442.726 280.202C442.625 280.082 442.671 279.957 442.831 279.924L443.839 279.709C444.112 279.651 444.338 279.555 444.513 279.43C444.621 279.353 444.834 279.37 444.988 279.467ZM438.694 281.059C438.593 280.939 438.64 280.814 438.799 280.781L440.815 280.352C440.974 280.318 441.185 280.388 441.286 280.508C441.388 280.627 441.341 280.752 441.182 280.786L439.166 281.214C439.007 281.248 438.796 281.178 438.694 281.059Z" fill="#B7B7B7"/>
</g>
<rect width="193.193" height="25.2663" rx="8" transform="matrix(0.978148 -0.207912 0.646257 0.76312 253.588 303.773)" fill="black" style="mix-blend-mode:saturation"/>
</g>
<rect width="140.855" height="13.3354" rx="3.33385" transform="matrix(0.978148 -0.207912 0.646257 0.76312 346.644 223.951)" fill="#F5F3F1"/>
<rect width="66.6771" height="13.3354" rx="3.33385" transform="matrix(0.978148 -0.207912 0.646257 0.76312 43.0244 132.379)" fill="#F5F3F1"/>
<rect x="0.33847" y="0.115686" width="76.2619" height="76.2619" transform="matrix(0.978148 -0.207912 0.646257 0.76312 156.668 215.631)" fill="#FAF8F6" stroke="#EFECEB" stroke-width="0.416732"/>
<rect width="56.6755" height="6.66771" rx="3.33385" transform="matrix(0.978148 -0.207912 0.646257 0.76312 172.984 221.086)" fill="#EFECEB"/>
<rect width="37.5058" height="6.66771" rx="3.33385" transform="matrix(0.978148 -0.207912 0.646257 0.76312 181.6 231.263)" fill="#EFECEB"/>
<rect x="0.33847" y="0.115686" width="76.2619" height="76.2619" transform="matrix(0.978148 -0.207912 0.646257 0.76312 72.6963 233.48)" fill="#FAF8F6" stroke="#EFECEB" stroke-width="0.416732"/>
<rect width="56.6755" height="6.66771" rx="3.33385" transform="matrix(0.978148 -0.207912 0.646257 0.76312 89.0121 238.935)" fill="#EFECEB"/>
<rect width="37.5058" height="6.66771" rx="3.33385" transform="matrix(0.978148 -0.207912 0.646257 0.76312 97.6284 249.112)" fill="#EFECEB"/>
<path d="M325.602 162.753L325.194 162.84L325.602 162.753ZM334.93 174.17C335.195 174.26 335.453 174.205 335.507 174.047L336.387 171.472C336.441 171.314 336.271 171.113 336.006 171.022C335.742 170.932 335.484 170.987 335.43 171.145L334.647 173.434L330.818 172.125C330.554 172.035 330.296 172.09 330.242 172.248C330.188 172.406 330.358 172.607 330.622 172.697L334.93 174.17ZM366.656 151.025L367.063 150.938L367.063 150.938L366.656 151.025ZM366.103 152.644L366.372 152.962L366.372 152.962L366.103 152.644ZM326.155 161.135L325.886 160.817L326.155 161.135ZM325.194 162.84L334.621 173.97L335.436 173.797L326.01 162.667L325.194 162.84ZM357.361 140.617L366.248 151.112L367.063 150.938L358.176 140.444L357.361 140.617ZM365.833 152.325L325.886 160.817L326.425 161.453L366.372 152.962L365.833 152.325ZM366.248 151.112C366.694 151.638 366.509 152.182 365.833 152.325L366.372 152.962C367.497 152.722 367.807 151.816 367.063 150.938L366.248 151.112ZM326.01 162.667C325.563 162.14 325.749 161.596 326.425 161.453L325.886 160.817C324.76 161.056 324.451 161.962 325.194 162.84L326.01 162.667Z" fill="#E2DEDB"/>
<path d="M411.74 144.444L411.333 144.53L411.333 144.53L411.74 144.444ZM421.069 155.86C421.333 155.951 421.591 155.896 421.645 155.738L422.525 153.163C422.579 153.004 422.409 152.803 422.145 152.713C421.88 152.622 421.622 152.677 421.568 152.835L420.786 155.124L416.956 153.816C416.692 153.725 416.434 153.78 416.38 153.938C416.326 154.096 416.496 154.298 416.761 154.388L421.069 155.86ZM366.655 151.025L366.248 151.112L366.655 151.025ZM369.363 151.95L369.094 151.632L369.363 151.95ZM409.033 143.518L409.302 143.836L409.033 143.518ZM411.333 144.53L420.759 155.661L421.574 155.488L412.148 144.357L411.333 144.53ZM357.36 140.617L366.248 151.112L367.063 150.938L358.176 140.444L357.36 140.617ZM369.632 152.268L409.302 143.836L408.763 143.2L369.094 151.632L369.632 152.268ZM366.248 151.112C366.991 151.99 368.507 152.508 369.632 152.268L369.094 151.632C368.418 151.776 367.509 151.465 367.063 150.938L366.248 151.112ZM412.148 144.357C411.404 143.479 409.889 142.961 408.763 143.2L409.302 143.836C409.977 143.693 410.887 144.003 411.333 144.53L412.148 144.357Z" fill="#E2DEDB"/>
<path d="M328.674 106.562L328.266 106.648L328.266 106.648L328.674 106.562ZM338.002 117.978C338.267 118.069 338.525 118.014 338.579 117.856L339.459 115.28C339.513 115.122 339.343 114.921 339.078 114.831C338.814 114.74 338.556 114.795 338.502 114.953L337.719 117.242L333.89 115.934C333.626 115.843 333.368 115.898 333.314 116.056C333.26 116.214 333.43 116.415 333.694 116.506L338.002 117.978ZM283.589 113.143L283.181 113.229L283.589 113.143ZM286.297 114.068L286.027 113.75L286.297 114.068ZM325.966 105.636L326.236 105.954L325.966 105.636ZM328.266 106.648L337.693 117.779L338.508 117.605L329.082 106.475L328.266 106.648ZM274.294 102.735L283.181 113.229L283.997 113.056L275.109 102.562L274.294 102.735ZM286.566 114.386L326.236 105.954L325.697 105.318L286.027 113.75L286.566 114.386ZM283.181 113.229C283.925 114.108 285.44 114.626 286.566 114.386L286.027 113.75C285.352 113.894 284.443 113.583 283.997 113.056L283.181 113.229ZM329.082 106.475C328.338 105.597 326.823 105.079 325.697 105.318L326.236 105.954C326.911 105.811 327.82 106.121 328.266 106.648L329.082 106.475Z" fill="#E2DEDB"/>
<path d="M379.305 100.076C379.853 100.723 380.402 101.371 380.951 102.019C381.891 103.13 382.704 103.828 384.565 104.112C385.504 104.256 386.977 104.029 387.56 103.694C388.44 103.188 388.43 102.145 387.911 101.22C387.336 100.192 387.002 99.2994 386.109 98.2863C385.156 97.2049 382.764 97.1058 381.631 97.3466C380.451 97.5974 379.641 97.8095 379.143 98.5965C378.797 99.1446 378.914 99.6141 379.457 100.256" stroke="#E2DEDB" stroke-width="1.66693" stroke-linecap="round"/>
<path d="M385.604 93.2325C385.98 93.6758 386.355 94.1191 386.731 94.5624C387.418 95.3735 387.904 96.1234 389.059 96.7212C390.437 97.4346 391.616 97.635 393.018 97.6896" stroke="#E2DEDB" stroke-width="1.66693" stroke-linecap="round"/>
<path d="M388.907 90.4722C388.982 91.1362 388.985 91.7935 388.984 92.4432C388.983 93.2361 388.906 94.1655 389.289 95.0046C389.446 95.3505 389.928 95.2497 390.257 95.2405C390.78 95.2257 391.238 95.087 391.701 94.9886C392.51 94.8167 393.347 94.668 394.123 94.4581C394.75 94.2884 395.314 94.0635 395.924 93.882C396.069 93.8388 396.151 93.7588 396.303 93.7266" stroke="#E2DEDB" stroke-width="1.66693" stroke-linecap="round"/>
<path d="M391.003 87.6843C391.552 87.6569 393.005 88.5691 393.391 88.8447C393.951 89.2441 394.75 89.7448 395.144 90.2109" stroke="#E2DEDB" stroke-width="1.66693" stroke-linecap="round"/>
<path d="M397.441 92.0647L397.747 92.4256" stroke="#E2DEDB" stroke-width="1.66693" stroke-linecap="round"/>
</g>
<g filter="url(#filter1_d_5343_192206)">
<path d="M120.32 271.234C120.997 270.971 121.335 270.839 121.43 270.653C121.513 270.492 121.51 270.3 121.424 270.141C121.324 269.958 120.982 269.835 120.299 269.59L102.869 263.333C102.31 263.133 102.031 263.032 101.848 263.096C101.689 263.151 101.564 263.275 101.509 263.434C101.446 263.617 101.546 263.897 101.747 264.456L108.004 281.885C108.249 282.568 108.371 282.91 108.555 283.01C108.714 283.097 108.905 283.099 109.067 283.017C109.253 282.922 109.384 282.583 109.647 281.907L112.496 274.582C112.547 274.449 112.573 274.383 112.613 274.327C112.648 274.278 112.691 274.235 112.741 274.199C112.797 274.16 112.863 274.134 112.996 274.082L120.32 271.234Z" fill="url(#paint1_linear_5343_192206)" stroke="#FEFDFB" stroke-width="0.5" stroke-linecap="round" stroke-linejoin="round"/>
<rect x="121.49" y="283.077" width="37" height="24" rx="2" fill="url(#paint2_linear_5343_192206)"/>
<path d="M129.936 291.706L132.584 291.706L132.584 299.077L133.873 299.077L133.873 291.706L136.51 291.706L136.51 290.592L129.936 290.592L129.936 291.706ZM137.717 299.077L138.971 299.077L138.971 292.713L137.717 292.713L137.717 299.077ZM137.553 290.991C137.559 291.401 137.916 291.735 138.35 291.729C138.777 291.735 139.135 291.401 139.135 290.991C139.135 290.581 138.777 290.252 138.35 290.252C137.916 290.252 137.559 290.581 137.553 290.991ZM140.494 299.077L141.748 299.077L141.748 295.151C141.748 294.295 142.346 293.709 143.049 293.709C143.734 293.709 144.209 294.161 144.209 294.858L144.209 299.077L145.451 299.077L145.451 295.022C145.451 294.26 145.914 293.709 146.717 293.709C147.373 293.709 147.912 294.067 147.912 294.928L147.912 299.077L149.166 299.077L149.166 294.811C149.16 293.352 148.346 292.631 147.197 292.631C146.277 292.631 145.586 293.071 145.287 293.756L145.217 293.756C144.947 293.047 144.355 292.631 143.506 292.631C142.668 292.631 142.041 293.047 141.771 293.756L141.701 293.756L141.701 292.713L140.494 292.713L140.494 299.077Z" fill="#FEFDFB"/>
</g>
<path d="M171.748 151.39L254.133 187.034C259.342 189.288 265.763 188.675 268.475 185.667C269.056 185.021 269.434 184.296 269.592 183.523L281.222 126.529C282.693 119.321 274.438 111.743 262.787 109.604C258.475 108.812 254.102 108.856 250.252 109.73L171.695 127.57C161.291 129.933 157.277 137.635 162.729 144.773C164.746 147.413 167.894 149.722 171.748 151.39Z" fill="#807B78"/>
<path d="M308.907 222.272C313.249 222.821 317.536 222.521 321.188 221.414L403.112 196.563C409.695 194.567 411.589 189.221 407.346 184.622C407.122 184.38 406.884 184.142 406.63 183.91C396.493 174.608 384.151 166.26 370.161 159.244C356.17 152.228 340.749 146.65 324.593 142.764C316.939 140.923 309.392 143.21 307.737 147.874C307.65 148.119 307.58 148.369 307.528 148.623L295.321 208.44C294.777 211.107 295.566 213.952 297.584 216.593L297.461 216.432C298.59 217.91 300.254 219.238 302.295 220.287C304.372 221.302 306.739 221.998 309.171 222.305" fill="#807B78"/>
<path d="M283.095 221.996C283.172 223.799 282.393 225.486 280.86 226.838L281.047 226.673C278.703 228.74 275.293 230.189 271.279 230.822L181.222 245.026C180.841 245.086 180.453 245.135 180.058 245.173C172.59 245.883 164.626 242.437 162.273 237.475C157.303 226.998 155.13 216.343 155.849 205.985C156.567 195.628 160.171 185.731 166.493 176.74C166.651 176.515 166.825 176.297 167.016 176.085C170.632 172.073 179.193 171.257 186.141 174.262L272.61 211.672C276.464 213.34 279.612 215.649 281.629 218.29L281.468 218.08C282.787 219.807 283.32 221.667 282.996 223.417" fill="#807B78"/>
<path d="M171.747 137.018L254.131 172.662C259.34 174.916 265.762 174.304 268.473 171.295C269.054 170.65 269.433 169.924 269.591 169.151L281.221 112.158C282.692 104.949 274.437 97.3716 262.785 95.2321C258.474 94.4408 254.1 94.4846 250.251 95.3587L171.693 113.199C161.289 115.561 157.275 123.263 162.727 130.401C164.745 133.041 167.893 135.35 171.747 137.018Z" fill="#514C49"/>
<path d="M308.906 207.901C313.249 208.45 317.536 208.15 321.188 207.042L403.112 182.192C409.694 180.195 411.589 174.85 407.346 170.251C407.122 170.009 406.883 169.771 406.63 169.538C396.493 160.236 384.151 151.889 370.161 144.873C356.17 137.857 340.749 132.279 324.592 128.393C316.939 126.552 309.392 128.839 307.737 133.502C307.65 133.748 307.58 133.998 307.528 134.252L295.321 194.068C294.777 196.735 295.566 199.58 297.584 202.221L297.461 202.061C298.59 203.539 300.254 204.867 302.295 205.916C304.371 206.931 306.739 207.626 309.171 207.933" fill="#FDC433"/>
<path d="M283.095 207.624C283.172 209.427 282.393 211.114 280.86 212.466L281.047 212.302C278.703 214.369 275.293 215.817 271.279 216.451L181.223 230.654C180.842 230.715 180.453 230.764 180.059 230.801C172.59 231.512 164.627 228.065 162.273 223.103C157.303 212.627 155.131 201.971 155.849 191.614C156.568 181.256 160.171 171.36 166.493 162.368C166.651 162.144 166.826 161.925 167.016 161.713C170.632 157.701 179.193 156.885 186.141 159.891L272.61 197.3C276.464 198.968 279.612 201.278 281.63 203.919L281.469 203.708C282.788 205.435 283.32 207.295 282.996 209.045" fill="#FDC433"/>
<rect x="366.49" y="298.077" width="16" height="46" rx="4" fill="#FC8539"/>
<rect x="398.49" y="310.077" width="16" height="34" rx="4" fill="#FC8539"/>
<rect x="430.49" y="284.077" width="16" height="60" rx="4" fill="#FC8539"/>
<rect x="462.49" y="258.077" width="16" height="86" rx="4" fill="#FC8539"/>
<rect width="90" height="22" transform="translate(60.4902 17.0769)" fill="#A385FB" fill-opacity="0.24"/>
<path d="M61.584 33.0769H62.8145V28.6609H68.0508V33.0769H69.2949V23.1785H68.0508V27.5808H62.8145V23.1785H61.584V33.0769ZM74.3535 33.2273C76.3701 33.2341 77.7236 31.7029 77.7168 29.3992C77.7236 27.0818 76.3701 25.5574 74.3535 25.5574C72.3301 25.5574 70.9629 27.0818 70.9629 29.3992C70.9629 31.7029 72.3301 33.2341 74.3535 33.2273ZM72.1387 29.3992C72.1455 27.9226 72.8428 26.5964 74.3535 26.5964C75.8506 26.5964 76.541 27.9226 76.541 29.3992C76.541 30.8826 75.8506 32.1882 74.3535 32.1882C72.8428 32.1882 72.1455 30.8826 72.1387 29.3992ZM80.6836 33.0769H81.8594L83.459 27.4167H83.5684L85.1816 33.0769H86.3438L88.5996 25.6531H87.3691L85.7832 31.2859H85.7012L84.1562 25.6531H82.8984L81.3262 31.3132H81.2578L79.6719 25.6531H78.4277L80.6836 33.0769ZM93.4121 33.0769H94.5879V28.4421C94.5879 27.3621 95.3672 26.6101 96.2559 26.6101C97.1104 26.6101 97.7119 27.1707 97.7051 28.0046V33.0769H98.8945V28.2507C98.9014 27.3074 99.4893 26.6101 100.521 26.6101C101.335 26.6101 102.019 27.0339 102.025 28.1277V33.0769H103.201V28.114C103.201 26.364 102.251 25.5574 100.932 25.5574C99.8652 25.5574 99.0791 26.0496 98.7031 26.8152H98.6211C98.2725 26.0222 97.6094 25.5574 96.6387 25.5574C95.668 25.5574 94.9502 26.0222 94.6426 26.8152H94.5469V25.6531H93.4121V33.0769ZM105.088 33.0769H106.264V25.6531H105.088V33.0769ZM104.855 23.6433C104.849 24.074 105.225 24.4226 105.676 24.4226C106.127 24.4226 106.503 24.074 106.51 23.6433C106.503 23.2058 106.127 22.8572 105.676 22.864C105.225 22.8572 104.849 23.2058 104.855 23.6433ZM111.145 36.0164C112.956 36.0164 114.364 35.196 114.371 33.282V25.6531H113.223V26.8289H113.127C112.86 26.4324 112.396 25.5574 110.953 25.5574C109.087 25.5574 107.781 26.9792 107.781 29.2625C107.781 31.6003 109.135 32.9607 110.939 32.9675C112.375 32.9607 112.847 32.1199 113.1 31.7097H113.195V33.2136C113.195 34.4373 112.416 34.991 111.145 34.991C110.092 34.991 109.388 34.615 109.23 33.8562H108C108.13 35.2302 109.347 36.0164 111.145 36.0164ZM108.971 29.3035C108.971 27.8064 109.675 26.6101 111.104 26.6101C112.484 26.6101 113.216 27.7107 113.223 29.3035C113.216 30.9373 112.464 31.9148 111.104 31.9148C109.695 31.9148 108.971 30.8416 108.971 29.3035ZM117.42 28.6199C117.42 27.3347 118.24 26.6101 119.348 26.6101C120.414 26.6101 121.057 27.2732 121.057 28.4421V33.0769H122.232V28.3601C122.232 26.4529 121.221 25.5574 119.703 25.5574C118.527 25.5574 117.864 26.0496 117.516 26.8152H117.42V23.1785H116.244V33.0769H117.42V28.6199ZM127.359 25.6531H125.801V23.8757H124.611V25.6531H123.49V26.6375H124.611V31.2449C124.618 32.5574 125.657 33.1726 126.648 33.1726C126.997 33.1726 127.284 33.1453 127.469 33.1179V32.0242C127.298 32.031 126.983 32.0515 126.771 32.0515C126.272 32.0515 125.794 31.8943 125.801 30.9441V26.6375H127.359V25.6531ZM134.059 33.0769H135.234L136.834 27.4167H136.943L138.557 33.0769H139.719L141.975 25.6531H140.744L139.158 31.2859H139.076L137.531 25.6531H136.273L134.701 31.3132H134.633L133.047 25.6531H131.803L134.059 33.0769ZM146.145 33.2273C147.676 33.2341 148.776 32.4685 149.125 31.3406H147.867C147.594 31.7986 147.033 32.1882 146.145 32.1882C144.825 32.1882 143.909 31.3269 143.848 29.7546H149.234V29.2625C149.241 26.5144 147.594 25.5574 146.035 25.5574C144.019 25.5574 142.672 27.1433 142.672 29.4265C142.672 31.7029 143.998 33.2341 146.145 33.2273ZM143.854 28.7566C143.937 27.6082 144.75 26.5964 146.035 26.5964C147.259 26.5964 148.038 27.5193 148.045 28.7566H143.854Z" fill="#764AF3"/>
<g filter="url(#filter2_d_5343_192206)">
<rect x="150.24" y="17.8269" width="1.5" height="20.5" rx="0.75" fill="url(#paint3_linear_5343_192206)" stroke="#FEFDFB" stroke-width="0.5"/>
<rect x="161.49" y="38.0769" width="41" height="24" rx="2" fill="url(#paint4_linear_5343_192206)"/>
<path d="M169.701 45.5925L172.771 50.7488L172.771 54.0769L174.061 54.0769L174.061 50.7488L177.143 45.5925L175.678 45.5925L173.463 49.4363L173.369 49.4363L171.166 45.5925L169.701 45.5925ZM179.756 54.2058C181.549 54.2058 182.721 52.8933 182.721 50.9246C182.721 48.9441 181.549 47.6316 179.756 47.6316C177.951 47.6316 176.773 48.9441 176.779 50.9246C176.773 52.8933 177.951 54.2058 179.756 54.2058ZM178.033 50.9246C178.033 49.7058 178.59 48.6687 179.756 48.6628C180.904 48.6687 181.455 49.7058 181.455 50.9246C181.455 52.1375 180.904 53.1628 179.756 53.1628C178.59 53.1628 178.033 52.1375 178.033 50.9246ZM183.951 54.0769L185.205 54.0769L185.205 50.198C185.205 49.366 185.85 48.7625 186.717 48.7683C186.975 48.7625 187.268 48.8152 187.373 48.8386L187.373 47.6433C187.244 47.6316 186.998 47.614 186.846 47.6199C186.102 47.614 185.463 48.0417 185.229 48.7214L185.158 48.7214L185.158 47.7136L183.951 47.7136L183.951 54.0769ZM188.311 54.0769L189.564 54.0769L189.564 51.8152L190.168 51.2175L192.33 54.0769L193.865 54.0769L191.117 50.4441L193.689 47.7136L192.189 47.7136L189.67 50.3972L189.564 50.3972L189.564 45.5925L188.311 45.5925L188.311 54.0769Z" fill="#FEFDFB"/>
</g>
<path d="M371.13 87.3248C379.121 80.7103 389.918 58.6822 399.438 48.4636C408.957 38.245 416.522 39.9408 415.792 46.1804C415.061 52.42 399.366 67.6893 393.882 77.3667C388.397 87.044 394.018 92.7625 401.068 85.9437C408.118 79.125 419.029 70.2674 420.629 77.7331C422.229 85.1988 410.039 90.2064 417.891 90.9111C425.743 91.6157 424.211 94.8768 424.726 98.8464" stroke="#5AD198" stroke-width="4" stroke-linecap="round"/>
<g filter="url(#filter3_d_5343_192206)">
<g clip-path="url(#clip11_5343_192206)">
<g filter="url(#filter4_d_5343_192206)">
<path d="M425.328 96.0493L425.577 96.0726L425.328 96.0493C425.176 97.6675 426.363 99.103 427.981 99.2584L428.005 99.0095L427.981 99.2584C428.516 99.3098 429.056 99.2457 429.564 99.0706L435.026 97.1882L435.026 97.1882C435.317 97.0879 435.587 96.9361 435.825 96.7399L444.873 89.2592C445.461 88.7734 445.617 87.937 445.244 87.2721C443.981 85.0188 442.322 83.0117 440.346 81.3473C439.763 80.8561 438.912 80.8522 438.325 81.3379L429.276 88.8186C429.039 89.0148 428.839 89.252 428.685 89.5191L425.81 94.5294L426.027 94.6539L425.81 94.5294C425.542 94.9957 425.378 95.514 425.328 96.0493Z" fill="url(#paint5_linear_5343_192206)" stroke="#FEFDFB" stroke-width="0.5"/>
<path d="M428.472 99.0326L428.472 99.0326C428.26 99.2325 428.122 99.2891 427.906 99.3783L427.811 99.1471L427.906 99.3783L427.896 99.3823C427.134 99.6967 426.55 99.9375 426.105 100.087C425.672 100.233 425.314 100.315 425.032 100.252L425.032 100.252C424.329 100.093 423.821 99.4793 423.798 98.7585L423.798 98.7585C423.788 98.4694 423.936 98.1332 424.161 97.7356C424.392 97.3271 424.738 96.7987 425.19 96.1089L425.196 96.1C425.324 95.9045 425.406 95.7802 425.642 95.6093L425.642 95.6093C425.781 95.5084 426.009 95.4309 426.209 95.3832C426.408 95.3355 426.647 95.3012 426.817 95.328C426.938 95.3471 427.016 95.3617 427.073 95.3772L428.472 99.0326ZM428.472 99.0326C428.597 98.9147 428.716 98.7051 428.801 98.5183C428.885 98.3314 428.963 98.1035 428.969 97.9316C428.973 97.8092 428.974 97.7291 428.969 97.6706C428.963 97.5981 428.95 97.5569 428.938 97.5211C428.812 97.1571 428.603 96.7445 428.258 96.3275M428.472 99.0326L428.258 96.3275M428.258 96.3275C427.914 95.9106 427.548 95.6276 427.214 95.4361L428.258 96.3275Z" fill="url(#paint6_linear_5343_192206)" stroke="#FEFDFB" stroke-width="0.5"/>
<path d="M435.145 93.5174C434.694 93.8904 434.015 93.762 433.731 93.2502C433.368 92.5943 432.886 92.0114 432.31 91.5308C431.861 91.1559 431.862 90.465 432.313 90.0921L439.324 84.2961C439.642 84.0329 439.801 83.9013 439.955 83.8182C440.588 83.477 441.365 83.5506 441.922 84.0047C442.058 84.1153 442.189 84.2745 442.453 84.5928C442.716 84.9112 442.847 85.0703 442.93 85.2244C443.272 85.8573 443.198 86.6335 442.744 87.191C442.633 87.3267 442.474 87.4583 442.156 87.7215L435.145 93.5174Z" fill="#FEFDFB"/>
</g>
</g>
<rect x="443.49" y="101.077" width="38" height="24" rx="2" fill="url(#paint7_linear_5343_192206)"/>
<path d="M453.084 117.077L453.857 114.839L457.162 114.839L457.936 117.077L459.307 117.077L456.248 108.593L454.76 108.593L451.713 117.077L453.084 117.077ZM454.227 113.76L455.475 110.139L455.533 110.139L456.787 113.76L454.227 113.76ZM461.533 108.593L460.279 108.593L460.279 117.077L461.533 117.077L461.533 108.593ZM466.033 110.714L464.732 110.714L464.732 109.19L463.49 109.19L463.49 110.714L462.553 110.714L462.553 111.71L463.49 111.71L463.49 115.46C463.479 116.62 464.363 117.159 465.342 117.159C465.687 117.159 465.957 117.135 466.127 117.112L466.127 116.022C465.951 116.04 465.676 116.057 465.494 116.057C465.09 116.052 464.738 115.923 464.732 115.202L464.732 111.71L466.033 111.71L466.033 110.714ZM469.877 117.206C471.67 117.206 472.842 115.893 472.842 113.925C472.842 111.944 471.67 110.632 469.877 110.632C468.072 110.632 466.895 111.944 466.9 113.925C466.895 115.893 468.072 117.206 469.877 117.206ZM468.154 113.925C468.154 112.706 468.711 111.669 469.877 111.663C471.025 111.669 471.576 112.706 471.576 113.925C471.576 115.137 471.025 116.163 469.877 116.163C468.711 116.163 468.154 115.137 468.154 113.925Z" fill="#FEFDFB"/>
</g>
<defs>
<filter id="filter0_d_5343_192206" x="327.057" y="293.521" width="16.2803" height="16.2809" filterUnits="userSpaceOnUse" color-interpolation-filters="sRGB">
<feFlood flood-opacity="0" result="BackgroundImageFix"/>
<feColorMatrix in="SourceAlpha" type="matrix" values="0 0 0 0 0 0 0 0 0 0 0 0 0 0 0 0 0 0 127 0" result="hardAlpha"/>
<feMorphology radius="3.33385" operator="erode" in="SourceAlpha" result="effect1_dropShadow_5343_192206"/>
<feOffset dy="3.33385"/>
<feGaussianBlur stdDeviation="1.66693"/>
<feColorMatrix type="matrix" values="0 0 0 0 0 0 0 0 0 0 0 0 0 0 0 0 0 0 0.2 0"/>
<feBlend mode="multiply" in2="BackgroundImageFix" result="effect1_dropShadow_5343_192206"/>
<feBlend mode="normal" in="SourceGraphic" in2="effect1_dropShadow_5343_192206" result="shape"/>
</filter>
<filter id="filter1_d_5343_192206" x="93.2402" y="262.827" width="73.25" height="60.25" filterUnits="userSpaceOnUse" color-interpolation-filters="sRGB">
<feFlood flood-opacity="0" result="BackgroundImageFix"/>
<feColorMatrix in="SourceAlpha" type="matrix" values="0 0 0 0 0 0 0 0 0 0 0 0 0 0 0 0 0 0 127 0" result="hardAlpha"/>
<feOffset dy="8"/>
<feGaussianBlur stdDeviation="4"/>
<feComposite in2="hardAlpha" operator="out"/>
<feColorMatrix type="matrix" values="0 0 0 0 0 0 0 0 0 0 0 0 0 0 0 0 0 0 0.08 0"/>
<feBlend mode="normal" in2="BackgroundImageFix" result="effect1_dropShadow_5343_192206"/>
<feBlend mode="normal" in="SourceGraphic" in2="effect1_dropShadow_5343_192206" result="shape"/>
</filter>
<filter id="filter2_d_5343_192206" x="133.49" y="17.5769" width="77" height="60.5" filterUnits="userSpaceOnUse" color-interpolation-filters="sRGB">
<feFlood flood-opacity="0" result="BackgroundImageFix"/>
<feColorMatrix in="SourceAlpha" type="matrix" values="0 0 0 0 0 0 0 0 0 0 0 0 0 0 0 0 0 0 127 0" result="hardAlpha"/>
<feOffset dy="8"/>
<feGaussianBlur stdDeviation="4"/>
<feComposite in2="hardAlpha" operator="out"/>
<feColorMatrix type="matrix" values="0 0 0 0 0 0 0 0 0 0 0 0 0 0 0 0 0 0 0.08 0"/>
<feBlend mode="normal" in2="BackgroundImageFix" result="effect1_dropShadow_5343_192206"/>
<feBlend mode="normal" in="SourceGraphic" in2="effect1_dropShadow_5343_192206" result="shape"/>
</filter>
<filter id="filter3_d_5343_192206" x="407.834" y="75.2527" width="81.6559" height="65.8242" filterUnits="userSpaceOnUse" color-interpolation-filters="sRGB">
<feFlood flood-opacity="0" result="BackgroundImageFix"/>
<feColorMatrix in="SourceAlpha" type="matrix" values="0 0 0 0 0 0 0 0 0 0 0 0 0 0 0 0 0 0 127 0" result="hardAlpha"/>
<feOffset dy="8"/>
<feGaussianBlur stdDeviation="4"/>
<feComposite in2="hardAlpha" operator="out"/>
<feColorMatrix type="matrix" values="0 0 0 0 0 0 0 0 0 0 0 0 0 0 0 0 0 0 0.08 0"/>
<feBlend mode="normal" in2="BackgroundImageFix" result="effect1_dropShadow_5343_192206"/>
<feBlend mode="normal" in="SourceGraphic" in2="effect1_dropShadow_5343_192206" result="shape"/>
</filter>
<filter id="filter4_d_5343_192206" x="421.547" y="79.7263" width="26.1484" height="23.7971" filterUnits="userSpaceOnUse" color-interpolation-filters="sRGB">
<feFlood flood-opacity="0" result="BackgroundImageFix"/>
<feColorMatrix in="SourceAlpha" type="matrix" values="0 0 0 0 0 0 0 0 0 0 0 0 0 0 0 0 0 0 127 0" result="hardAlpha"/>
<feOffset dy="1"/>
<feGaussianBlur stdDeviation="1"/>
<feComposite in2="hardAlpha" operator="out"/>
<feColorMatrix type="matrix" values="0 0 0 0 0 0 0 0 0 0 0 0 0 0 0 0 0 0 0.4 0"/>
<feBlend mode="normal" in2="BackgroundImageFix" result="effect1_dropShadow_5343_192206"/>
<feBlend mode="normal" in="SourceGraphic" in2="effect1_dropShadow_5343_192206" result="shape"/>
</filter>
<linearGradient id="paint0_linear_5343_192206" x1="333.901" y1="304.103" x2="336.527" y2="301.879" gradientUnits="userSpaceOnUse">
<stop stop-color="#EFEFEF"/>
<stop offset="0.526042" stop-color="#E6E6E6"/>
<stop offset="1" stop-color="#EFEFEF"/>
</linearGradient>
<linearGradient id="paint1_linear_5343_192206" x1="111.49" y1="263.077" x2="111.49" y2="283.077" gradientUnits="userSpaceOnUse">
<stop stop-color="#FC94D8"/>
<stop offset="1" stop-color="#F44954"/>
</linearGradient>
<linearGradient id="paint2_linear_5343_192206" x1="139.99" y1="283.077" x2="139.99" y2="307.077" gradientUnits="userSpaceOnUse">
<stop stop-color="#FC94D8"/>
<stop offset="1" stop-color="#F44954"/>
</linearGradient>
<linearGradient id="paint3_linear_5343_192206" x1="150.99" y1="18.0769" x2="150.99" y2="38.0769" gradientUnits="userSpaceOnUse">
<stop stop-color="#84B5FF"/>
<stop offset="1" stop-color="#855CF9"/>
</linearGradient>
<linearGradient id="paint4_linear_5343_192206" x1="181.99" y1="38.0769" x2="181.99" y2="62.0769" gradientUnits="userSpaceOnUse">
<stop stop-color="#84B5FF"/>
<stop offset="1" stop-color="#855CF9"/>
</linearGradient>
<linearGradient id="paint5_linear_5343_192206" x1="426.183" y1="98.0431" x2="442.869" y2="84.2482" gradientUnits="userSpaceOnUse">
<stop stop-color="#D7E38B"/>
<stop offset="1" stop-color="#23C176"/>
</linearGradient>
<linearGradient id="paint6_linear_5343_192206" x1="424.353" y1="99.5567" x2="428.066" y2="96.4868" gradientUnits="userSpaceOnUse">
<stop stop-color="#D7E38B"/>
<stop offset="1" stop-color="#23C176"/>
</linearGradient>
<linearGradient id="paint7_linear_5343_192206" x1="462.49" y1="101.077" x2="462.49" y2="125.077" gradientUnits="userSpaceOnUse">
<stop stop-color="#D7E38B"/>
<stop offset="1" stop-color="#23C176"/>
</linearGradient>
<clipPath id="clip0_5343_192206">
<rect width="538.417" height="350.055" rx="6.66771" transform="matrix(0.978148 -0.207912 0.646257 0.76312 -108 111.943)" fill="white"/>
</clipPath>
<clipPath id="clip1_5343_192206">
<rect width="16.6693" height="16.6693" rx="3.33385" transform="matrix(0.978148 -0.207912 0.646257 0.76312 318.24 293.783)" fill="white"/>
</clipPath>
<clipPath id="clip2_5343_192206">
<rect width="16.6693" height="16.6693" rx="3.33385" transform="matrix(0.978148 -0.207912 0.646257 0.76312 288.893 300.021)" fill="white"/>
</clipPath>
<clipPath id="clip3_5343_192206">
<rect width="10.0016" height="10.0016" fill="white" transform="matrix(0.978148 -0.207912 0.646257 0.76312 294.307 301.873)"/>
</clipPath>
<clipPath id="clip4_5343_192206">
<rect width="16.6693" height="16.6693" rx="3.33385" transform="matrix(0.978148 -0.207912 0.646257 0.76312 262.803 305.567)" fill="white"/>
</clipPath>
<clipPath id="clip5_5343_192206">
<rect width="10.0016" height="10.0016" fill="white" transform="matrix(0.978148 -0.207912 0.646257 0.76312 268.221 307.418)"/>
</clipPath>
<clipPath id="clip6_5343_192206">
<rect width="16.6693" height="16.6693" rx="3.33385" transform="matrix(0.978148 -0.207912 0.646257 0.76312 344.326 288.238)" fill="white"/>
</clipPath>
<clipPath id="clip7_5343_192206">
<rect width="16.6693" height="16.6693" rx="3.33385" transform="matrix(0.978148 -0.207912 0.646257 0.76312 370.414 282.693)" fill="white"/>
</clipPath>
<clipPath id="clip8_5343_192206">
<rect width="16.6693" height="16.6693" rx="3.33385" transform="matrix(0.978148 -0.207912 0.646257 0.76312 396.504 277.148)" fill="white"/>
</clipPath>
<clipPath id="clip9_5343_192206">
<rect width="16.6693" height="16.6693" rx="3.33385" transform="matrix(0.978148 -0.207912 0.646257 0.76312 422.592 271.602)" fill="white"/>
</clipPath>
<clipPath id="clip10_5343_192206">
<rect width="9.42176" height="9.09233" fill="white" transform="matrix(0.978148 -0.207912 0.646257 0.76312 428.407 273.523)"/>
</clipPath>
<clipPath id="clip11_5343_192206">
<rect width="16.8889" height="32" fill="white" transform="translate(426.596 108.659) rotate(-129.582)"/>
</clipPath>
</defs>
</svg>
