<svg width="336" height="192" viewBox="0 0 336 192" fill="none" xmlns="http://www.w3.org/2000/svg">
<g clip-path="url(#clip0_5744_4427)">
<path d="M0 6.38101C0 4.14745 0 3.03067 0.43468 2.17756C0.817036 1.42714 1.42714 0.817036 2.17756 0.43468C3.03067 0 4.14745 0 6.38101 0H329.619C331.853 0 332.969 0 333.822 0.43468C334.573 0.817036 335.183 1.42714 335.565 2.17756C336 3.03067 336 4.14745 336 6.38101V192H0V6.38101Z" fill="white"/>
<g clip-path="url(#clip1_5744_4427)">
<rect x="-26.543" y="-43.2227" width="386.028" height="432.655" rx="8.67479" fill="#FEFDFB"/>
<rect x="63.5936" y="47.9976" width="205.755" height="40.9342" rx="20.4671" fill="#FEFDFB"/>
<circle cx="84.0604" cy="68.4647" r="14.0965" fill="url(#paint0_linear_5744_4427)"/>
<circle cx="79.9943" cy="64.9406" r="1.89761" fill="#FEFDFB"/>
<circle cx="88.1266" cy="64.9406" r="1.89761" fill="#FEFDFB"/>
<path d="M79.1807 69.5491C79.1807 69.5491 80.265 72.2599 84.0602 72.2599C87.8555 72.2599 88.9398 69.5491 88.9398 69.5491" stroke="#FEFDFB" stroke-width="2.71087" stroke-linecap="round"/>
<circle cx="125.266" cy="68.4647" r="14.0965" fill="url(#paint1_linear_5744_4427)"/>
<circle cx="121.2" cy="64.9406" r="1.89761" fill="#FEFDFB"/>
<circle cx="129.332" cy="64.9406" r="1.89761" fill="#FEFDFB"/>
<path d="M120.386 69.5491C120.386 69.5491 121.471 72.2599 125.266 72.2599C129.061 72.2599 130.145 69.5491 130.145 69.5491" stroke="#FEFDFB" stroke-width="2.71087" stroke-linecap="round"/>
<circle cx="166.471" cy="68.4647" r="14.0965" fill="url(#paint2_linear_5744_4427)"/>
<circle cx="162.405" cy="64.9406" r="1.89761" fill="#FEFDFB"/>
<circle cx="170.537" cy="64.9406" r="1.89761" fill="#FEFDFB"/>
<path d="M161.591 69.5491C161.591 69.5491 162.676 72.2599 166.471 72.2599C170.266 72.2599 171.35 69.5491 171.35 69.5491" stroke="#FEFDFB" stroke-width="2.71087" stroke-linecap="round"/>
<circle cx="207.677" cy="68.4647" r="14.0965" fill="url(#paint3_linear_5744_4427)"/>
<circle cx="203.611" cy="64.9406" r="1.89761" fill="#FEFDFB"/>
<circle cx="211.743" cy="64.9406" r="1.89761" fill="#FEFDFB"/>
<path d="M202.797 69.5491C202.797 69.5491 203.881 72.2599 207.676 72.2599C211.472 72.2599 212.556 69.5491 212.556 69.5491" stroke="#FEFDFB" stroke-width="2.71087" stroke-linecap="round"/>
<circle cx="248.882" cy="68.4647" r="14.0062" fill="#F5F3F1" stroke="#C2BDBA" stroke-width="0.180725"/>
<path d="M244.487 70.4188H245.776V68.204H248.003V66.9032H245.776V64.6884H244.487V66.9032H242.272V68.204H244.487V70.4188ZM252.702 71.9071C254.536 71.9071 255.878 70.87 255.866 69.4344C255.878 68.368 255.198 67.6005 254.003 67.4423V67.3719C254.928 67.1786 255.561 66.493 255.55 65.5438C255.561 64.243 254.448 63.1884 252.725 63.1884C251.067 63.1884 249.772 64.1669 249.737 65.5907H251.202C251.231 64.8759 251.917 64.4305 252.714 64.4305C253.54 64.4305 254.079 64.911 254.073 65.6259C254.079 66.3641 253.452 66.868 252.55 66.868H251.788V68.0399H252.55C253.651 68.0458 254.307 68.5907 254.307 69.3524C254.307 70.1083 253.634 70.6239 252.702 70.618C251.817 70.6239 251.137 70.1727 251.096 69.493H249.561C249.596 70.9227 250.891 71.9071 252.702 71.9071Z" fill="#514C49"/>
<rect x="63.5936" y="47.9976" width="205.755" height="40.9342" rx="20.4671" stroke="#C2BDBA" stroke-width="0.271087"/>
<rect x="162.403" y="95.711" width="90.8142" height="71.4403" rx="4.20185" fill="#FEFDFB"/>
<path d="M192.255 110.938V118.016C192.263 119.211 191.412 120.078 190.162 120.078C188.904 120.078 188.052 119.211 188.052 118.016V110.938H185.396V118.235C185.396 120.766 187.294 122.399 190.162 122.406C193.005 122.399 194.927 120.766 194.927 118.235V110.938H192.255ZM201.521 116.391H203.974C203.865 114.696 202.474 113.656 200.193 113.656C197.904 113.656 196.458 114.664 196.474 116.344C196.458 117.641 197.302 118.485 198.974 118.797L200.427 119.063C201.162 119.219 201.49 119.446 201.505 119.828C201.49 120.297 200.998 120.571 200.287 120.578C199.498 120.571 198.982 120.25 198.88 119.641H196.255C196.435 121.328 197.841 122.406 200.271 122.406C202.568 122.406 204.162 121.281 204.177 119.547C204.162 118.313 203.349 117.578 201.662 117.25L200.052 116.938C199.326 116.797 199.076 116.524 199.083 116.203C199.076 115.758 199.583 115.469 200.24 115.469C200.935 115.469 201.451 115.828 201.521 116.391ZM209.427 122.406C211.623 122.406 213.076 121.344 213.396 119.688H210.943C210.732 120.188 210.193 120.5 209.474 120.5C208.404 120.5 207.748 119.789 207.74 118.703V118.656H213.427V117.985C213.427 115.172 211.716 113.656 209.333 113.656C206.787 113.656 205.146 115.414 205.146 118.047C205.146 120.75 206.771 122.406 209.427 122.406ZM207.74 117.11C207.779 116.235 208.466 115.563 209.396 115.563C210.302 115.563 210.958 116.203 210.974 117.11H207.74ZM214.787 122.25H217.427V117.61C217.419 116.586 218.146 115.899 219.13 115.906C219.451 115.899 219.927 115.953 220.177 116.031V113.735C219.958 113.688 219.669 113.649 219.427 113.641C218.49 113.649 217.74 114.188 217.427 115.297H217.349V113.766H214.787V122.25ZM221.068 120.344H226.568V122.25H229.115V120.344H230.49V118.25H229.115V110.938H225.755L221.068 118.266V120.344ZM223.724 118.25V118.156L226.521 113.766H226.615V118.25H223.724Z" fill="#332E2B"/>
<path d="M205.791 95.4399L208.061 91.5091L210.33 95.4399H209.313H208.061H206.809H205.791Z" fill="#FEFDFB" stroke="#C2BDBA" stroke-width="0.271087"/>
<path d="M208.061 91.7803L210.565 96.1177H209.313H208.061H206.809H205.557L208.061 91.7803Z" fill="#FEFDFB"/>
<rect x="170.942" y="132.588" width="73.7357" height="26.0244" rx="2.1687" fill="#FC8539"/>
<path d="M191.513 143.397H193.466C193.435 141.483 191.802 140.131 189.404 140.131C187.021 140.131 185.248 141.459 185.248 143.459C185.248 145.084 186.404 146.022 188.263 146.506L189.544 146.834C190.771 147.147 191.583 147.522 191.591 148.412C191.583 149.381 190.662 150.029 189.326 150.037C188.037 150.029 187.044 149.451 186.951 148.272H184.951C185.037 150.506 186.708 151.772 189.341 151.772C192.052 151.772 193.623 150.412 193.623 148.428C193.623 146.459 191.998 145.568 190.31 145.178L189.248 144.897C188.31 144.678 187.302 144.287 187.31 143.334C187.318 142.483 188.083 141.858 189.373 141.865C190.591 141.858 191.412 142.42 191.513 143.397ZM194.826 149.209C194.826 150.889 196.052 151.772 197.669 151.772C199.005 151.772 199.794 151.147 200.169 150.428H200.232V151.6H202.138V145.928C202.138 143.67 200.279 143.006 198.669 143.006C196.544 143.006 195.248 144.092 195.107 145.537H197.029C197.185 144.928 197.732 144.522 198.623 144.522C199.615 144.522 200.154 145.006 200.154 145.85L200.162 146.529C199.787 146.545 198.576 146.6 197.982 146.647C196.412 146.748 194.826 147.303 194.826 149.209ZM196.748 149.193C196.748 148.451 197.349 148.053 198.294 147.975C198.693 147.943 199.802 147.873 200.162 147.858L200.169 148.553C200.169 149.506 199.396 150.303 198.185 150.303C197.349 150.303 196.748 149.928 196.748 149.193ZM204.904 154.787C206.498 154.779 207.388 153.983 207.873 152.631L211.279 143.115H209.169L207.201 149.522H207.107L205.138 143.115H203.029L206.123 151.772L205.951 152.225C205.607 153.139 205.201 153.17 204.716 153.178C204.451 153.17 204.115 153.17 203.873 153.147V154.74C204.13 154.772 204.505 154.779 204.904 154.787ZM216.419 151.6H218.451V146.787H223.716V151.6H225.763V140.287H223.716V145.084H218.451V140.287H216.419V151.6ZM227.763 151.6H229.763V143.115H227.763V151.6ZM227.623 140.818C227.623 141.42 228.146 141.904 228.779 141.912C229.412 141.904 229.935 141.42 229.935 140.818C229.935 140.225 229.412 139.74 228.779 139.74C228.146 139.74 227.623 140.225 227.623 140.818Z" fill="#FEFDFB"/>
<rect x="162.403" y="95.711" width="90.8142" height="71.4403" rx="4.20185" stroke="#C2BDBA" stroke-width="0.271087"/>
<g filter="url(#filter0_d_5744_4427)">
<path d="M246.076 143.368C246.443 143.225 246.627 143.154 246.678 143.053C246.723 142.966 246.721 142.862 246.675 142.776C246.62 142.676 246.435 142.61 246.065 142.477L236.615 139.084C236.312 138.976 236.16 138.921 236.061 138.956C235.975 138.985 235.907 139.053 235.877 139.139C235.843 139.238 235.897 139.39 236.006 139.693L239.399 149.143C239.532 149.513 239.598 149.699 239.698 149.753C239.784 149.8 239.887 149.801 239.975 149.756C240.076 149.705 240.147 149.521 240.29 149.154L241.834 145.183C241.862 145.111 241.876 145.075 241.898 145.045C241.917 145.018 241.94 144.995 241.967 144.976C241.997 144.954 242.033 144.94 242.105 144.912L246.076 143.368Z" fill="#332E2B" stroke="#FEFDFB" stroke-width="0.271087" stroke-linecap="round" stroke-linejoin="round"/>
</g>
</g>
<rect x="-26.4074" y="-43.0871" width="385.757" height="432.384" rx="8.53925" stroke="#C2BDBA" stroke-width="0.271087"/>
</g>
<path d="M0.249258 6.38101C0.249258 5.26011 0.249452 4.43443 0.302765 3.78191C0.355841 3.1323 0.460319 2.67628 0.656771 2.29072C1.01523 1.5872 1.5872 1.01523 2.29072 0.656771C2.67628 0.460319 3.1323 0.355841 3.78191 0.302765C4.43443 0.249452 5.26011 0.249258 6.38101 0.249258H329.619C330.74 0.249258 331.566 0.249452 332.218 0.302765C332.868 0.355841 333.324 0.460319 333.709 0.656771C334.413 1.01523 334.985 1.5872 335.343 2.29072C335.54 2.67628 335.644 3.1323 335.697 3.78191C335.751 4.43443 335.751 5.26011 335.751 6.38101V191.751H0.249258V6.38101Z" stroke="#C2BDBA" stroke-width="0.498516"/>
<defs>
<filter id="filter0_d_5744_4427" x="227.731" y="138.81" width="27.1147" height="27.1145" filterUnits="userSpaceOnUse" color-interpolation-filters="sRGB">
<feFlood flood-opacity="0" result="BackgroundImageFix"/>
<feColorMatrix in="SourceAlpha" type="matrix" values="0 0 0 0 0 0 0 0 0 0 0 0 0 0 0 0 0 0 127 0" result="hardAlpha"/>
<feOffset dy="8"/>
<feGaussianBlur stdDeviation="4"/>
<feComposite in2="hardAlpha" operator="out"/>
<feColorMatrix type="matrix" values="0 0 0 0 0 0 0 0 0 0 0 0 0 0 0 0 0 0 0.08 0"/>
<feBlend mode="normal" in2="BackgroundImageFix" result="effect1_dropShadow_5744_4427"/>
<feBlend mode="normal" in="SourceGraphic" in2="effect1_dropShadow_5744_4427" result="shape"/>
</filter>
<linearGradient id="paint0_linear_5744_4427" x1="84.0604" y1="54.3682" x2="84.0604" y2="82.5612" gradientUnits="userSpaceOnUse">
<stop stop-color="#FC94D8"/>
<stop offset="1" stop-color="#F44954"/>
</linearGradient>
<linearGradient id="paint1_linear_5744_4427" x1="125.266" y1="54.3682" x2="125.266" y2="82.5612" gradientUnits="userSpaceOnUse">
<stop stop-color="#84B5FF"/>
<stop offset="1" stop-color="#855CF9"/>
</linearGradient>
<linearGradient id="paint2_linear_5744_4427" x1="166.471" y1="54.3682" x2="166.471" y2="82.5612" gradientUnits="userSpaceOnUse">
<stop stop-color="#8DECEC"/>
<stop offset="1" stop-color="#3C9AF1"/>
</linearGradient>
<linearGradient id="paint3_linear_5744_4427" x1="207.677" y1="54.3682" x2="207.677" y2="82.5612" gradientUnits="userSpaceOnUse">
<stop stop-color="#D7E38B"/>
<stop offset="1" stop-color="#23C176"/>
</linearGradient>
<clipPath id="clip0_5744_4427">
<path d="M0 6.38101C0 4.14745 0 3.03067 0.43468 2.17756C0.817036 1.42714 1.42714 0.817036 2.17756 0.43468C3.03067 0 4.14745 0 6.38101 0H329.619C331.853 0 332.969 0 333.822 0.43468C334.573 0.817036 335.183 1.42714 335.565 2.17756C336 3.03067 336 4.14745 336 6.38101V192H0V6.38101Z" fill="white"/>
</clipPath>
<clipPath id="clip1_5744_4427">
<rect x="-26.543" y="-43.2227" width="386.028" height="432.655" rx="8.67479" fill="white"/>
</clipPath>
</defs>
</svg>
