<svg width="328" height="206" viewBox="0 0 328 206" fill="none" xmlns="http://www.w3.org/2000/svg">
<g clip-path="url(#clip0_6004_261432)">
<path d="M0 4C0 1.79087 1.79086 0 4 0H323.999C326.208 0 327.999 1.79086 327.999 4V205.714H0V4Z" fill="white"/>
<path d="M32.6017 65.9291C36.6616 63.8412 39.5243 60.4766 43.0807 57.6823C43.6347 57.247 50.5691 52.7367 50.6144 53.2799C50.7393 54.7792 48.766 57.0255 47.9481 58.0234C43.8531 63.0193 39.1236 67.5478 34.8339 72.3777C32.6787 74.8043 28.4185 78.4799 27.1142 81.7405C26.5166 83.2346 28.4531 81.4617 28.5713 81.3685C39.9472 72.4016 51.0472 63.4148 63.0465 55.2021C67.4415 52.194 72.1822 48.3657 77.1218 46.1493C78.4641 45.547 77.1077 46.9536 76.9978 47.0794C75.0023 49.3634 72.7157 51.3792 70.7042 53.652C62.4756 62.9492 55.9799 73.7862 49.2192 84.1588C42.3912 94.6347 58.8165 82.7229 60.2562 81.8955C65.6546 78.7933 73.3645 74.134 79.261 71.5406C83.5335 69.6615 86.3023 69.2942 83.7564 73.9278C81.6873 77.6936 79.0161 81.1307 76.9358 84.9028C75.5632 87.3916 72.9523 91.2493 72.9054 94.2037C72.8885 95.2688 77.3516 91.8599 77.3698 91.8474C82.3877 88.4231 87.5227 85.1808 92.7472 82.0816C93.5484 81.6063 95.6861 80.2708 95.3824 81.1515C94.1559 84.7084 91.9331 88.146 90.267 91.5064C87.3489 97.3921 84.2747 103.182 81.1521 108.961C78.9412 113.053 77.1985 115.969 82.0202 111.937C86.2317 108.416 90.4478 104.889 95.1034 101.954C97.8922 100.196 96.7776 104.176 96.7776 106.14C96.7776 111.669 101.275 105.263 103.04 103.474C105.387 101.095 108.099 98.8535 110.202 96.2499C110.738 95.5859 110.612 95.2851 111.287 94.9477" stroke="black" stroke-width="1.78106" stroke-linecap="round"/>
<path d="M32.6017 65.9291C36.6616 63.8412 39.5243 60.4766 43.0807 57.6823C43.6347 57.247 50.5691 52.7367 50.6144 53.2799C50.7393 54.7792 48.766 57.0255 47.9481 58.0234C43.8531 63.0193 39.1236 67.5478 34.8339 72.3777C32.6787 74.8043 28.4185 78.4799 27.1142 81.7405C26.5166 83.2346 28.4531 81.4617 28.5713 81.3685C39.9472 72.4016 51.0472 63.4148 63.0465 55.2021C67.4415 52.194 72.1822 48.3657 77.1218 46.1493C78.4641 45.547 77.1077 46.9536 76.9978 47.0794C75.0023 49.3634 72.7157 51.3792 70.7042 53.652C62.4756 62.9492 55.9799 73.7862 49.2192 84.1588C42.3912 94.6347 58.8165 82.7229 60.2562 81.8955C65.6546 78.7933 73.3645 74.134 79.261 71.5406C83.5335 69.6615 86.3023 69.2942 83.7564 73.9278C81.6873 77.6936 79.0161 81.1307 76.9358 84.9028C75.5632 87.3916 72.9523 91.2493 72.9054 94.2037C72.8885 95.2688 77.3516 91.8599 77.3698 91.8474C82.3877 88.4231 87.5227 85.1808 92.7472 82.0816C93.5484 81.6063 95.6861 80.2708 95.3824 81.1515C94.1559 84.7084 91.9331 88.146 90.267 91.5064C87.3489 97.3921 84.2747 103.182 81.1521 108.961C78.9412 113.053 77.1985 115.969 82.0202 111.937C86.2317 108.416 90.4478 104.889 95.1034 101.954C97.8922 100.196 96.7776 104.176 96.7776 106.14C96.7776 111.669 101.275 105.263 103.04 103.474C105.387 101.095 108.099 98.8535 110.202 96.2499C110.738 95.5859 110.612 95.2851 111.287 94.9477" stroke="url(#paint0_linear_6004_261432)" stroke-width="1.78106" stroke-linecap="round"/>
<path d="M98.0249 105.337C98.106 105.126 98.1465 105.021 98.1994 104.922C98.2464 104.835 98.3007 104.751 98.3616 104.673C98.4302 104.584 98.51 104.505 98.6696 104.345L105.366 97.6483C106.022 96.9926 107.085 96.9926 107.741 97.6483C108.397 98.3041 108.397 99.3673 107.741 100.023L101.044 106.72C100.885 106.879 100.805 106.959 100.717 107.028C100.638 107.089 100.555 107.143 100.467 107.19C100.368 107.243 100.263 107.283 100.052 107.364L96.7578 108.632L98.0249 105.337Z" fill="white"/>
<path d="M97.9797 105.455C98.0671 105.227 98.1108 105.114 98.1858 105.062C98.2514 105.016 98.3324 104.999 98.4108 105.014C98.5005 105.031 98.5866 105.117 98.7588 105.289L100.1 106.631C100.272 106.803 100.358 106.889 100.375 106.979C100.39 107.057 100.373 107.138 100.328 107.204C100.276 107.279 100.162 107.322 99.9347 107.41L96.7578 108.632L97.9797 105.455Z" fill="white"/>
<path d="M96.7578 108.632L100.052 107.364C100.263 107.283 100.368 107.243 100.467 107.19C100.555 107.143 100.638 107.089 100.717 107.028C100.805 106.959 100.885 106.879 101.044 106.72L107.741 100.023C108.397 99.3673 108.397 98.3041 107.741 97.6483C107.085 96.9926 106.022 96.9926 105.366 97.6483L98.6696 104.345C98.51 104.505 98.4302 104.584 98.3616 104.673C98.3007 104.751 98.2464 104.835 98.1994 104.922C98.1465 105.021 98.106 105.126 98.0249 105.337L96.7578 108.632ZM96.7578 108.632L97.9797 105.455C98.0671 105.227 98.1108 105.114 98.1858 105.062C98.2514 105.016 98.3324 104.999 98.4108 105.014C98.5005 105.031 98.5866 105.117 98.7588 105.289L100.1 106.631C100.272 106.803 100.358 106.889 100.375 106.979C100.39 107.057 100.373 107.138 100.328 107.204C100.276 107.279 100.162 107.322 99.9347 107.41L96.7578 108.632Z" stroke="#514C49" stroke-width="0.296843" stroke-linecap="round" stroke-linejoin="round"/>
<path d="M145.452 88.3781C145.452 91.329 143.06 93.7213 140.109 93.7213C139.398 93.7213 138.72 93.5825 138.099 93.3306C137.981 93.2824 137.921 93.2583 137.873 93.2475C137.826 93.237 137.792 93.2331 137.744 93.2331C137.694 93.2331 137.641 93.2421 137.534 93.2599L135.422 93.612C135.2 93.6488 135.09 93.6673 135.01 93.6329C134.94 93.6029 134.884 93.5471 134.854 93.4772C134.82 93.3972 134.838 93.2866 134.875 93.0654L135.227 90.9531C135.245 90.846 135.254 90.7924 135.254 90.7433C135.254 90.6952 135.25 90.6604 135.239 90.6135C135.229 90.5655 135.205 90.5061 135.156 90.3874C134.904 89.7671 134.766 89.0888 134.766 88.3781C134.766 85.4271 137.158 83.0349 140.109 83.0349C143.06 83.0349 145.452 85.4271 145.452 88.3781Z" fill="#6DB4F5" stroke="#514C49" stroke-width="0.296843" stroke-linecap="round" stroke-linejoin="round"/>
<rect x="137.137" y="93.3984" width="165.935" height="48.137" rx="2.22632" fill="#FEFDFB"/>
<path fill-rule="evenodd" clip-rule="evenodd" d="M149.768 98.9069C149.922 98.7524 150.173 98.7524 150.327 98.9069C150.482 99.0615 150.482 99.3121 150.327 99.4667L148.232 101.562H149.652C149.87 101.562 150.047 101.739 150.047 101.957C150.047 102.176 149.87 102.353 149.652 102.353H147.277C147.058 102.353 146.881 102.176 146.881 101.957V99.5826C146.881 99.364 147.058 99.1868 147.277 99.1868C147.495 99.1868 147.673 99.364 147.673 99.5826V101.002L149.768 98.9069ZM142.923 103.541C142.923 103.322 143.1 103.145 143.319 103.145H145.694C145.912 103.145 146.089 103.322 146.089 103.541V105.915C146.089 106.134 145.912 106.311 145.694 106.311C145.475 106.311 145.298 106.134 145.298 105.915V104.496L143.203 106.591C143.048 106.745 142.798 106.745 142.643 106.591C142.489 106.436 142.489 106.186 142.643 106.031L144.738 103.936H143.319C143.1 103.936 142.923 103.759 142.923 103.541Z" fill="#A6A19E"/>
<rect x="141.887" y="113.584" width="132.689" height="23.2021" rx="2.22632" fill="#FEFDFB"/>
<path d="M147.397 127.185L147.986 125.529H150.348L150.936 127.185H151.707L149.556 121.308H148.785L146.634 127.185H147.397ZM148.209 124.888L149.142 122.258H149.191L150.125 124.888H148.209ZM154.069 127.274C154.909 127.278 155.198 126.755 155.352 126.511H155.425V127.185H156.107V121.308H155.401V123.475H155.352C155.202 123.24 154.934 122.721 154.077 122.721C152.97 122.721 152.194 123.597 152.194 124.993C152.194 126.393 152.97 127.278 154.069 127.274ZM152.901 124.977C152.901 124.056 153.319 123.346 154.167 123.346C154.987 123.346 155.421 123.999 155.425 124.977C155.421 125.967 154.974 126.649 154.167 126.649C153.331 126.649 152.901 125.915 152.901 124.977ZM158.98 127.274C159.82 127.278 160.108 126.755 160.263 126.511H160.336V127.185H161.017V121.308H160.311V123.475H160.263C160.112 123.24 159.844 122.721 158.988 122.721C157.88 122.721 157.105 123.597 157.105 124.993C157.105 126.393 157.88 127.278 158.98 127.274ZM157.811 124.977C157.811 124.056 158.229 123.346 159.077 123.346C159.897 123.346 160.331 123.999 160.336 124.977C160.331 125.967 159.885 126.649 159.077 126.649C158.241 126.649 157.811 125.915 157.811 124.977ZM164.102 125.935C164.102 126.795 164.767 127.286 165.603 127.29C166.37 127.286 166.772 126.88 166.918 126.584H166.951V127.185H167.641V124.279C167.645 122.891 166.561 122.721 165.985 122.721C165.011 122.721 164.321 123.212 164.232 123.922H164.962C165.06 123.585 165.396 123.329 165.952 123.329C166.618 123.329 166.951 123.654 166.951 124.214V124.571C166.752 124.575 166.042 124.616 165.758 124.636C164.995 124.693 164.102 124.924 164.102 125.935ZM164.8 125.967C164.804 125.484 165.206 125.261 165.839 125.221C166.05 125.208 166.744 125.156 166.951 125.143V125.586C166.951 126.142 166.512 126.669 165.725 126.665C165.189 126.669 164.804 126.434 164.8 125.967ZM172.649 127.274C173.627 127.278 174.276 126.673 174.386 125.886H173.688C173.566 126.369 173.168 126.649 172.649 126.649C171.849 126.649 171.338 125.996 171.334 124.977C171.338 123.987 171.861 123.337 172.649 123.337C173.237 123.337 173.586 123.707 173.688 124.109H174.386C174.276 123.277 173.57 122.721 172.633 122.721C171.435 122.721 170.636 123.662 170.636 125.001C170.636 126.324 171.399 127.278 172.649 127.274ZM177.048 127.274C178.245 127.278 179.049 126.369 179.045 125.001C179.049 123.626 178.245 122.721 177.048 122.721C175.847 122.721 175.035 123.626 175.035 125.001C175.035 126.369 175.847 127.278 177.048 127.274ZM175.733 125.001C175.737 124.125 176.151 123.337 177.048 123.337C177.937 123.337 178.347 124.125 178.347 125.001C178.347 125.882 177.937 126.657 177.048 126.657C176.151 126.657 175.737 125.882 175.733 125.001ZM179.962 127.185H180.66V124.433C180.66 123.792 181.123 123.346 181.65 123.346C182.158 123.346 182.515 123.678 182.511 124.173V127.185H183.217V124.32C183.221 123.76 183.57 123.346 184.183 123.346C184.666 123.346 185.072 123.597 185.076 124.247V127.185H185.774V124.238C185.774 123.199 185.21 122.721 184.426 122.721C183.793 122.721 183.326 123.013 183.103 123.467H183.054C182.848 122.997 182.454 122.721 181.878 122.721C181.301 122.721 180.875 122.997 180.693 123.467H180.636V122.777H179.962V127.185ZM186.894 127.185H187.592V124.433C187.592 123.792 188.054 123.346 188.582 123.346C189.089 123.346 189.446 123.678 189.442 124.173V127.185H190.149V124.32C190.153 123.76 190.502 123.346 191.114 123.346C191.597 123.346 192.003 123.597 192.007 124.247V127.185H192.705V124.238C192.705 123.199 192.141 122.721 191.358 122.721C190.725 122.721 190.258 123.013 190.035 123.467H189.986C189.779 122.997 189.386 122.721 188.809 122.721C188.233 122.721 187.807 122.997 187.624 123.467H187.567V122.777H186.894V127.185ZM195.676 127.274C196.585 127.278 197.239 126.824 197.446 126.154H196.699C196.537 126.426 196.204 126.657 195.676 126.657C194.893 126.657 194.349 126.146 194.313 125.212H197.511V124.92C197.515 123.289 196.537 122.721 195.611 122.721C194.414 122.721 193.614 123.662 193.614 125.018C193.614 126.369 194.402 127.278 195.676 127.274ZM194.317 124.62C194.365 123.938 194.848 123.337 195.611 123.337C196.338 123.337 196.8 123.885 196.804 124.62H194.317ZM199.118 124.539C199.118 123.776 199.588 123.346 200.23 123.346C200.855 123.346 201.228 123.751 201.228 124.433V127.185H201.926V124.385C201.93 123.264 201.334 122.721 200.441 122.721C199.771 122.721 199.357 123.017 199.15 123.467H199.093V122.777H198.42V127.185H199.118V124.539ZM204.97 122.777H204.045V121.722H203.338V122.777H202.673V123.362H203.338V126.097C203.342 126.876 203.959 127.242 204.548 127.242C204.755 127.242 204.925 127.225 205.035 127.209V126.56C204.933 126.564 204.747 126.576 204.621 126.576C204.325 126.576 204.04 126.483 204.045 125.919V123.362H204.97V122.777Z" fill="#A6A19E"/>
<rect x="141.887" y="113.584" width="132.689" height="23.2021" rx="2.22632" stroke="#C2BDBA" stroke-width="0.296843"/>
<rect x="279.473" y="116.155" width="18.998" height="18.998" rx="2.37475" fill="#6DB4F5" fill-opacity="0.24"/>
<g clip-path="url(#clip1_6004_261432)">
<path fill-rule="evenodd" clip-rule="evenodd" d="M287.519 121.301C287.524 121.301 287.53 121.301 287.535 121.301L290.429 121.301C290.572 121.301 290.705 121.301 290.814 121.31C290.928 121.321 291.071 121.345 291.202 121.432C291.376 121.548 291.497 121.727 291.539 121.931C291.571 122.085 291.541 122.226 291.509 122.336C291.478 122.441 291.428 122.564 291.375 122.697L290.97 123.709C290.961 123.732 290.957 123.743 290.954 123.751C290.954 123.751 290.954 123.751 290.953 123.752C290.953 123.752 290.953 123.752 290.953 123.752C290.953 123.761 290.953 123.773 290.953 123.797V124.641C290.953 124.685 290.953 124.707 290.954 124.722C290.954 124.723 290.954 124.723 290.954 124.724C290.954 124.724 290.954 124.724 290.955 124.724C290.964 124.737 290.978 124.754 291.005 124.789L291.638 125.579C291.76 125.732 291.868 125.868 291.944 125.982C292.018 126.094 292.108 126.253 292.109 126.445C292.109 126.686 291.999 126.914 291.811 127.064C291.661 127.184 291.481 127.213 291.347 127.225C291.21 127.237 291.036 127.237 290.841 127.237L289.37 127.237L289.37 129.612C289.37 129.831 289.193 130.008 288.974 130.008C288.756 130.008 288.578 129.831 288.578 129.612V127.237L287.108 127.237C286.912 127.237 286.739 127.237 286.602 127.225C286.468 127.213 286.287 127.184 286.138 127.064C285.949 126.914 285.84 126.686 285.84 126.445C285.84 126.253 285.93 126.094 286.004 125.982C286.08 125.868 286.189 125.732 286.311 125.579L286.943 124.789C286.971 124.754 286.984 124.737 286.994 124.724C286.994 124.724 286.994 124.724 286.995 124.724C286.995 124.723 286.995 124.723 286.995 124.722C286.995 124.707 286.995 124.685 286.995 124.641V123.797C286.995 123.773 286.995 123.761 286.995 123.752C286.995 123.752 286.995 123.752 286.995 123.752C286.995 123.751 286.995 123.751 286.995 123.751C286.992 123.743 286.987 123.732 286.978 123.709L286.579 122.712C286.577 122.707 286.576 122.702 286.574 122.697C286.52 122.564 286.471 122.441 286.44 122.336C286.407 122.226 286.377 122.085 286.409 121.931C286.452 121.727 286.573 121.548 286.747 121.432C286.878 121.345 287.02 121.321 287.134 121.31C287.243 121.301 287.376 121.301 287.519 121.301ZM290.823 126.446C291.042 126.446 291.178 126.445 291.275 126.437C291.282 126.436 291.288 126.435 291.294 126.435C291.291 126.43 291.288 126.425 291.284 126.419C291.23 126.338 291.145 126.231 291.008 126.06L290.387 125.283C290.384 125.279 290.38 125.275 290.376 125.27C290.336 125.22 290.286 125.157 290.248 125.084C290.216 125.02 290.192 124.953 290.178 124.883C290.161 124.802 290.161 124.722 290.162 124.658C290.162 124.652 290.162 124.646 290.162 124.641V123.797C290.162 123.794 290.162 123.791 290.162 123.788C290.162 123.752 290.162 123.707 290.167 123.661C290.171 123.621 290.179 123.582 290.19 123.543C290.202 123.499 290.218 123.457 290.232 123.424C290.233 123.421 290.234 123.418 290.235 123.415L290.634 122.418C290.695 122.265 290.731 122.176 290.75 122.11C290.751 122.106 290.752 122.103 290.753 122.1C290.75 122.099 290.747 122.099 290.743 122.099C290.674 122.093 290.578 122.092 290.414 122.092H287.535C287.371 122.092 287.274 122.093 287.206 122.099C287.202 122.099 287.199 122.099 287.195 122.1C287.196 122.103 287.197 122.106 287.198 122.11C287.218 122.176 287.253 122.265 287.314 122.418L287.713 123.415C287.714 123.418 287.716 123.421 287.717 123.424C287.73 123.457 287.747 123.499 287.759 123.543C287.77 123.582 287.777 123.621 287.782 123.661C287.787 123.707 287.787 123.752 287.787 123.788C287.787 123.791 287.787 123.794 287.787 123.797V124.641C287.787 124.646 287.787 124.652 287.787 124.658C287.787 124.722 287.787 124.802 287.771 124.883C287.756 124.953 287.733 125.02 287.7 125.084C287.663 125.157 287.612 125.22 287.572 125.27C287.568 125.275 287.565 125.279 287.561 125.283L286.94 126.06C286.803 126.231 286.718 126.338 286.665 126.419C286.661 126.425 286.658 126.43 286.654 126.435C286.66 126.435 286.666 126.436 286.673 126.437C286.77 126.445 286.907 126.446 287.126 126.446H290.823Z" fill="#3C9AF1"/>
</g>
<rect x="137.137" y="93.3984" width="165.935" height="48.137" rx="2.22632" stroke="#C2BDBA" stroke-width="0.296843"/>
</g>
<path d="M0.25 4C0.25 1.92894 1.92893 0.25 4 0.25H323.999C326.07 0.25 327.749 1.92893 327.749 4V205.464H0.25V4Z" stroke="#C2BDBA" stroke-width="0.5"/>
<defs>
<linearGradient id="paint0_linear_6004_261432" x1="98.5392" y1="107.15" x2="42.4358" y2="57.28" gradientUnits="userSpaceOnUse">
<stop stop-color="white"/>
<stop offset="0.0392127" stop-color="white" stop-opacity="0.441616"/>
<stop offset="1" stop-color="white" stop-opacity="0"/>
</linearGradient>
<clipPath id="clip0_6004_261432">
<path d="M0 4C0 1.79087 1.79086 0 4 0H323.999C326.208 0 327.999 1.79086 327.999 4V205.714H0V4Z" fill="white"/>
</clipPath>
<clipPath id="clip1_6004_261432">
<rect width="9.49898" height="9.49898" fill="white" transform="translate(284.223 120.905)"/>
</clipPath>
</defs>
</svg>
