<svg width="328" height="206" viewBox="0 0 328 206" fill="none" xmlns="http://www.w3.org/2000/svg">
<g clip-path="url(#clip0_6004_261520)">
<path d="M0 6.38101C0 4.14745 0 3.03067 0.43468 2.17756C0.817036 1.42714 1.42714 0.817036 2.17756 0.43468C3.03067 0 4.14745 0 6.38101 0H321.618C323.852 0 324.969 0 325.822 0.43468C326.572 0.817036 327.182 1.42714 327.565 2.17756C327.999 3.03067 327.999 4.14745 327.999 6.38101V205.714H0V6.38101Z" fill="white"/>
<g clip-path="url(#clip1_6004_261520)">
<rect x="-26.543" y="-43.2227" width="386.028" height="432.655" rx="8.67479" fill="#FEFDFB"/>
<rect x="63.5926" y="47.9976" width="205.755" height="40.9342" rx="20.4671" fill="#FEFDFB"/>
<circle cx="84.0614" cy="68.4647" r="14.0965" fill="url(#paint0_linear_6004_261520)"/>
<circle cx="79.9953" cy="64.9406" r="1.89761" fill="#FEFDFB"/>
<circle cx="88.1281" cy="64.9406" r="1.89761" fill="#FEFDFB"/>
<path d="M79.1836 69.5491C79.1836 69.5491 80.2679 72.2599 84.0632 72.2599C87.8584 72.2599 88.9427 69.5491 88.9427 69.5491" stroke="#FEFDFB" stroke-width="2.71087" stroke-linecap="round"/>
<circle cx="125.265" cy="68.4647" r="14.0965" fill="url(#paint1_linear_6004_261520)"/>
<circle cx="121.198" cy="64.9406" r="1.89761" fill="#FEFDFB"/>
<circle cx="129.331" cy="64.9406" r="1.89761" fill="#FEFDFB"/>
<path d="M120.387 69.5491C120.387 69.5491 121.471 72.2599 125.266 72.2599C129.062 72.2599 130.146 69.5491 130.146 69.5491" stroke="#FEFDFB" stroke-width="2.71087" stroke-linecap="round"/>
<circle cx="166.472" cy="68.4647" r="14.0965" fill="url(#paint2_linear_6004_261520)"/>
<circle cx="162.405" cy="64.9406" r="1.89761" fill="#FEFDFB"/>
<circle cx="170.538" cy="64.9406" r="1.89761" fill="#FEFDFB"/>
<path d="M161.594 69.5491C161.594 69.5491 162.678 72.2599 166.473 72.2599C170.269 72.2599 171.353 69.5491 171.353 69.5491" stroke="#FEFDFB" stroke-width="2.71087" stroke-linecap="round"/>
<circle cx="207.675" cy="68.4647" r="14.0965" fill="url(#paint3_linear_6004_261520)"/>
<circle cx="203.609" cy="64.9406" r="1.89761" fill="#FEFDFB"/>
<circle cx="211.741" cy="64.9406" r="1.89761" fill="#FEFDFB"/>
<path d="M202.797 69.5491C202.797 69.5491 203.881 72.2599 207.676 72.2599C211.472 72.2599 212.556 69.5491 212.556 69.5491" stroke="#FEFDFB" stroke-width="2.71087" stroke-linecap="round"/>
<circle cx="248.882" cy="68.4647" r="14.0062" fill="#F5F3F1" stroke="#C2BDBA" stroke-width="0.180725"/>
<path d="M244.117 71.3031H245.515V68.9014H247.93V67.4909H245.515V65.0892H244.117V67.4909H241.716V68.9014H244.117V71.3031ZM253.025 72.9169C255.014 72.9169 256.469 71.7923 256.456 70.2356C256.469 69.0793 255.732 68.247 254.436 68.0754V67.9992C255.439 67.7895 256.126 67.0461 256.113 66.0168C256.126 64.6063 254.918 63.4627 253.051 63.4627C251.252 63.4627 249.848 64.5238 249.81 66.0677H251.399C251.43 65.2925 252.174 64.8097 253.038 64.8097C253.934 64.8097 254.518 65.3307 254.512 66.1058C254.518 66.9064 253.838 67.4528 252.86 67.4528H252.034V68.7235H252.86C254.054 68.7298 254.766 69.3207 254.766 70.1467C254.766 70.9663 254.035 71.5254 253.025 71.5191C252.066 71.5254 251.329 71.0362 251.284 70.2992H249.62C249.658 71.8495 251.062 72.9169 253.025 72.9169Z" fill="#514C49"/>
<rect x="63.5926" y="47.9976" width="205.755" height="40.9342" rx="20.4671" stroke="#C2BDBA" stroke-width="0.271087"/>
<rect x="162.401" y="95.711" width="90.8142" height="61.4403" rx="4.20185" fill="#FEFDFB"/>
<path d="M199.375 108.117V111.954C199.379 112.603 198.918 113.073 198.24 113.073C197.558 113.073 197.096 112.603 197.096 111.954V108.117H195.656V112.073C195.656 113.445 196.686 114.331 198.24 114.335C199.782 114.331 200.824 113.445 200.824 112.073V108.117H199.375ZM204.399 111.073H205.729C205.67 110.154 204.916 109.591 203.679 109.591C202.438 109.591 201.654 110.137 201.663 111.048C201.654 111.751 202.112 112.209 203.018 112.378L203.806 112.522C204.204 112.607 204.382 112.73 204.39 112.937C204.382 113.191 204.115 113.34 203.73 113.344C203.302 113.34 203.022 113.166 202.967 112.836H201.544C201.641 113.75 202.404 114.335 203.721 114.335C204.966 114.335 205.831 113.725 205.839 112.785C205.831 112.115 205.39 111.717 204.475 111.539L203.603 111.37C203.209 111.294 203.073 111.145 203.077 110.972C203.073 110.73 203.348 110.574 203.704 110.574C204.081 110.574 204.361 110.768 204.399 111.073ZM208.685 114.335C209.876 114.335 210.663 113.759 210.837 112.861H209.507C209.393 113.132 209.1 113.301 208.711 113.301C208.131 113.301 207.775 112.916 207.77 112.327V112.302H210.854V111.938C210.854 110.413 209.926 109.591 208.635 109.591C207.254 109.591 206.364 110.544 206.364 111.971C206.364 113.437 207.245 114.335 208.685 114.335ZM207.77 111.463C207.792 110.989 208.164 110.624 208.668 110.624C209.16 110.624 209.516 110.972 209.524 111.463H207.77ZM211.591 114.25H213.023V111.734C213.019 111.179 213.412 110.807 213.946 110.811C214.12 110.807 214.378 110.836 214.514 110.879V109.633C214.395 109.608 214.238 109.587 214.107 109.582C213.599 109.587 213.192 109.879 213.023 110.48H212.98V109.65H211.591V114.25ZM214.997 113.217H217.979V114.25H219.359V113.217H220.105V112.082H219.359V108.117H217.538L214.997 112.09V113.217ZM216.437 112.082V112.031L217.953 109.65H218.004V112.082H216.437Z" fill="#332E2B"/>
<path d="M205.789 95.4399L208.059 91.5091L210.328 95.4399H209.311H208.059H206.807H205.789Z" fill="#FEFDFB" stroke="#C2BDBA" stroke-width="0.271087"/>
<path d="M208.059 91.7803L210.563 96.1177H209.311H208.059H206.807H205.555L208.059 91.7803Z" fill="#FEFDFB"/>
<rect x="170.941" y="122.588" width="73.7357" height="26.0244" rx="2.1687" fill="#FC8539"/>
<path d="M198.714 134.152H199.773C199.756 133.115 198.871 132.382 197.57 132.382C196.278 132.382 195.317 133.102 195.317 134.186C195.317 135.067 195.944 135.576 196.952 135.838L197.647 136.016C198.312 136.185 198.752 136.389 198.756 136.872C198.752 137.397 198.252 137.748 197.528 137.753C196.829 137.748 196.291 137.435 196.24 136.795H195.156C195.203 138.007 196.109 138.693 197.536 138.693C199.006 138.693 199.858 137.956 199.858 136.88C199.858 135.813 198.977 135.33 198.062 135.118L197.486 134.966C196.977 134.847 196.431 134.635 196.435 134.118C196.439 133.657 196.854 133.318 197.553 133.322C198.214 133.318 198.659 133.623 198.714 134.152ZM200.51 137.304C200.51 138.214 201.175 138.693 202.052 138.693C202.776 138.693 203.204 138.354 203.407 137.964H203.441V138.6H204.475V135.525C204.475 134.301 203.466 133.941 202.594 133.941C201.442 133.941 200.739 134.529 200.662 135.313H201.704C201.789 134.983 202.086 134.762 202.568 134.762C203.106 134.762 203.399 135.025 203.399 135.482L203.403 135.851C203.2 135.859 202.543 135.889 202.221 135.914C201.37 135.969 200.51 136.27 200.51 137.304ZM201.552 137.295C201.552 136.893 201.878 136.677 202.391 136.634C202.607 136.618 203.208 136.579 203.403 136.571L203.407 136.948C203.407 137.465 202.988 137.897 202.331 137.897C201.878 137.897 201.552 137.693 201.552 137.295ZM205.974 140.328C206.838 140.324 207.321 139.892 207.584 139.159L209.43 134H208.287L207.219 137.473H207.168L206.101 134H204.957L206.635 138.693L206.542 138.939C206.355 139.434 206.135 139.451 205.872 139.455C205.728 139.451 205.546 139.451 205.415 139.439V140.303C205.555 140.32 205.758 140.324 205.974 140.328ZM212.217 138.6H213.319V135.991H216.174V138.6H217.283V132.467H216.174V135.067H213.319V132.467H212.217V138.6ZM218.368 138.6H219.452V134H218.368V138.6ZM218.292 132.755C218.292 133.081 218.575 133.343 218.918 133.348C219.262 133.343 219.545 133.081 219.545 132.755C219.545 132.433 219.262 132.17 218.918 132.17C218.575 132.17 218.292 132.433 218.292 132.755Z" fill="#FEFDFB"/>
<rect x="162.401" y="95.711" width="90.8142" height="61.4403" rx="4.20185" stroke="#C2BDBA" stroke-width="0.271087"/>
<g filter="url(#filter0_d_6004_261520)">
<path d="M246.076 143.368C246.443 143.225 246.627 143.154 246.678 143.053C246.723 142.966 246.721 142.862 246.675 142.776C246.62 142.676 246.435 142.61 246.065 142.477L236.615 139.084C236.312 138.976 236.16 138.921 236.061 138.956C235.975 138.985 235.907 139.053 235.877 139.139C235.843 139.238 235.897 139.39 236.006 139.693L239.399 149.143C239.532 149.513 239.598 149.699 239.698 149.753C239.784 149.8 239.887 149.801 239.975 149.756C240.076 149.705 240.147 149.521 240.29 149.154L241.834 145.183C241.862 145.111 241.876 145.075 241.898 145.045C241.917 145.018 241.94 144.995 241.967 144.976C241.997 144.954 242.033 144.94 242.105 144.912L246.076 143.368Z" fill="#332E2B" stroke="#FEFDFB" stroke-width="0.271087" stroke-linecap="round" stroke-linejoin="round"/>
</g>
</g>
<rect x="-26.4074" y="-43.0871" width="385.757" height="432.384" rx="8.53925" stroke="#C2BDBA" stroke-width="0.271087"/>
</g>
<path d="M0.249258 6.38101C0.249258 5.26011 0.249452 4.43443 0.302765 3.78191C0.355841 3.1323 0.460319 2.67628 0.656771 2.29072C1.01523 1.5872 1.5872 1.01523 2.29072 0.656771C2.67628 0.460319 3.1323 0.355841 3.78191 0.302765C4.43443 0.249452 5.26011 0.249258 6.38101 0.249258H321.618C322.739 0.249258 323.565 0.249452 324.217 0.302765C324.867 0.355841 325.323 0.460319 325.709 0.656771C326.412 1.01523 326.984 1.5872 327.343 2.29072C327.539 2.67628 327.644 3.1323 327.697 3.78191C327.75 4.43444 327.75 5.26011 327.75 6.38101V205.465H0.249258V6.38101Z" stroke="#C2BDBA" stroke-width="0.498516"/>
<defs>
<filter id="filter0_d_6004_261520" x="227.73" y="138.81" width="27.1172" height="27.1145" filterUnits="userSpaceOnUse" color-interpolation-filters="sRGB">
<feFlood flood-opacity="0" result="BackgroundImageFix"/>
<feColorMatrix in="SourceAlpha" type="matrix" values="0 0 0 0 0 0 0 0 0 0 0 0 0 0 0 0 0 0 127 0" result="hardAlpha"/>
<feOffset dy="8"/>
<feGaussianBlur stdDeviation="4"/>
<feComposite in2="hardAlpha" operator="out"/>
<feColorMatrix type="matrix" values="0 0 0 0 0 0 0 0 0 0 0 0 0 0 0 0 0 0 0.08 0"/>
<feBlend mode="normal" in2="BackgroundImageFix" result="effect1_dropShadow_6004_261520"/>
<feBlend mode="normal" in="SourceGraphic" in2="effect1_dropShadow_6004_261520" result="shape"/>
</filter>
<linearGradient id="paint0_linear_6004_261520" x1="84.0614" y1="54.3682" x2="84.0614" y2="82.5612" gradientUnits="userSpaceOnUse">
<stop stop-color="#FC94D8"/>
<stop offset="1" stop-color="#F44954"/>
</linearGradient>
<linearGradient id="paint1_linear_6004_261520" x1="125.265" y1="54.3682" x2="125.265" y2="82.5612" gradientUnits="userSpaceOnUse">
<stop stop-color="#84B5FF"/>
<stop offset="1" stop-color="#855CF9"/>
</linearGradient>
<linearGradient id="paint2_linear_6004_261520" x1="166.472" y1="54.3682" x2="166.472" y2="82.5612" gradientUnits="userSpaceOnUse">
<stop stop-color="#8DECEC"/>
<stop offset="1" stop-color="#3C9AF1"/>
</linearGradient>
<linearGradient id="paint3_linear_6004_261520" x1="207.675" y1="54.3682" x2="207.675" y2="82.5612" gradientUnits="userSpaceOnUse">
<stop stop-color="#D7E38B"/>
<stop offset="1" stop-color="#23C176"/>
</linearGradient>
<clipPath id="clip0_6004_261520">
<path d="M0 6.38101C0 4.14745 0 3.03067 0.43468 2.17756C0.817036 1.42714 1.42714 0.817036 2.17756 0.43468C3.03067 0 4.14745 0 6.38101 0H321.618C323.852 0 324.969 0 325.822 0.43468C326.572 0.817036 327.182 1.42714 327.565 2.17756C327.999 3.03067 327.999 4.14745 327.999 6.38101V205.714H0V6.38101Z" fill="white"/>
</clipPath>
<clipPath id="clip1_6004_261520">
<rect x="-26.543" y="-43.2227" width="386.028" height="432.655" rx="8.67479" fill="white"/>
</clipPath>
</defs>
</svg>
