<svg width="336" height="192" viewBox="0 0 336 192" fill="none" xmlns="http://www.w3.org/2000/svg">
<g clip-path="url(#clip0_5744_4218)">
<path d="M0 4C0 1.79086 1.79086 0 4 0H332C334.209 0 336 1.79086 336 4V192H0V4Z" fill="white"/>
<path d="M36.6017 58.9291C40.6616 56.8412 43.5243 53.4766 47.0807 50.6823C47.6347 50.247 54.5691 45.7367 54.6144 46.2799C54.7393 47.7792 52.766 50.0255 51.9481 51.0234C47.8531 56.0193 43.1236 60.5478 38.8339 65.3777C36.6787 67.8043 32.4185 71.4799 31.1142 74.7405C30.5166 76.2346 32.4531 74.4617 32.5713 74.3685C43.9472 65.4016 55.0472 56.4148 67.0465 48.2021C71.4415 45.194 76.1822 41.3657 81.1218 39.1493C82.4641 38.547 81.1077 39.9536 80.9978 40.0794C79.0023 42.3634 76.7157 44.3792 74.7042 46.652C66.4756 55.9492 59.9799 66.7862 53.2192 77.1588C46.3912 87.6347 62.8165 75.7229 64.2562 74.8955C69.6546 71.7933 77.3645 67.134 83.261 64.5406C87.5335 62.6615 90.3023 62.2942 87.7564 66.9278C85.6873 70.6936 83.0161 74.1307 80.9358 77.9028C79.5632 80.3916 76.9523 84.2493 76.9054 87.2037C76.8885 88.2688 81.3516 84.8599 81.3698 84.8474C86.3877 81.4231 91.5227 78.1808 96.7472 75.0816C97.5484 74.6063 99.6861 73.2708 99.3824 74.1515C98.1559 77.7084 95.9331 81.146 94.267 84.5064C91.3489 90.3921 88.2747 96.1819 85.1521 101.961C82.9412 106.053 81.1985 108.969 86.0202 104.937C90.2317 101.416 94.4478 97.8895 99.1034 94.9544C101.892 93.1962 100.778 97.1757 100.778 99.1398C100.778 104.669 105.275 98.2629 107.04 96.4735C109.387 94.0953 112.099 91.8535 114.202 89.2499C114.738 88.5859 114.612 88.2851 115.287 87.9477" stroke="black" stroke-width="1.78106" stroke-linecap="round"/>
<path d="M36.6017 58.9291C40.6616 56.8412 43.5243 53.4766 47.0807 50.6823C47.6347 50.247 54.5691 45.7367 54.6144 46.2799C54.7393 47.7792 52.766 50.0255 51.9481 51.0234C47.8531 56.0193 43.1236 60.5478 38.8339 65.3777C36.6787 67.8043 32.4185 71.4799 31.1142 74.7405C30.5166 76.2346 32.4531 74.4617 32.5713 74.3685C43.9472 65.4016 55.0472 56.4148 67.0465 48.2021C71.4415 45.194 76.1822 41.3657 81.1218 39.1493C82.4641 38.547 81.1077 39.9536 80.9978 40.0794C79.0023 42.3634 76.7157 44.3792 74.7042 46.652C66.4756 55.9492 59.9799 66.7862 53.2192 77.1588C46.3912 87.6347 62.8165 75.7229 64.2562 74.8955C69.6546 71.7933 77.3645 67.134 83.261 64.5406C87.5335 62.6615 90.3023 62.2942 87.7564 66.9278C85.6873 70.6936 83.0161 74.1307 80.9358 77.9028C79.5632 80.3916 76.9523 84.2493 76.9054 87.2037C76.8885 88.2688 81.3516 84.8599 81.3698 84.8474C86.3877 81.4231 91.5227 78.1808 96.7472 75.0816C97.5484 74.6063 99.6861 73.2708 99.3824 74.1515C98.1559 77.7084 95.9331 81.146 94.267 84.5064C91.3489 90.3921 88.2747 96.1819 85.1521 101.961C82.9412 106.053 81.1985 108.969 86.0202 104.937C90.2317 101.416 94.4478 97.8895 99.1034 94.9544C101.892 93.1962 100.778 97.1757 100.778 99.1398C100.778 104.669 105.275 98.2629 107.04 96.4735C109.387 94.0953 112.099 91.8535 114.202 89.2499C114.738 88.5859 114.612 88.2851 115.287 87.9477" stroke="url(#paint0_linear_5744_4218)" stroke-width="1.78106" stroke-linecap="round"/>
<path d="M102.025 98.337C102.106 98.1263 102.147 98.0209 102.199 97.9223C102.246 97.8348 102.301 97.7513 102.362 97.6728C102.43 97.5844 102.51 97.5046 102.67 97.3449L109.366 90.6483C110.022 89.9926 111.085 89.9926 111.741 90.6483C112.397 91.3041 112.397 92.3673 111.741 93.0231L105.044 99.7197C104.885 99.8793 104.805 99.9592 104.717 100.028C104.638 100.089 104.555 100.143 104.467 100.19C104.368 100.243 104.263 100.283 104.052 100.364L100.758 101.632L102.025 98.337Z" fill="white"/>
<path d="M101.98 98.4547C102.067 98.2273 102.111 98.1137 102.186 98.0616C102.251 98.0161 102.332 97.9989 102.411 98.0139C102.5 98.031 102.587 98.1171 102.759 98.2893L104.1 99.6305C104.272 99.8028 104.358 99.8889 104.375 99.9785C104.39 100.057 104.373 100.138 104.328 100.204C104.276 100.279 104.162 100.322 103.935 100.41L100.758 101.632L101.98 98.4547Z" fill="white"/>
<path d="M100.758 101.632L104.052 100.364C104.263 100.283 104.368 100.243 104.467 100.19C104.555 100.143 104.638 100.089 104.717 100.028C104.805 99.9592 104.885 99.8793 105.044 99.7197L111.741 93.0231C112.397 92.3673 112.397 91.3041 111.741 90.6483C111.085 89.9926 110.022 89.9926 109.366 90.6483L102.67 97.3449C102.51 97.5046 102.43 97.5844 102.362 97.6728C102.301 97.7513 102.246 97.8348 102.199 97.9223C102.147 98.0209 102.106 98.1263 102.025 98.337L100.758 101.632ZM100.758 101.632L101.98 98.4547C102.067 98.2273 102.111 98.1137 102.186 98.0616C102.251 98.0161 102.332 97.9989 102.411 98.0139C102.5 98.031 102.587 98.1171 102.759 98.2893L104.1 99.6305C104.272 99.8028 104.358 99.8889 104.375 99.9785C104.39 100.057 104.373 100.138 104.328 100.204C104.276 100.279 104.162 100.322 103.935 100.41L100.758 101.632Z" stroke="#514C49" stroke-width="0.296843" stroke-linecap="round" stroke-linejoin="round"/>
<path d="M149.452 81.3781C149.452 84.329 147.06 86.7213 144.109 86.7213C143.398 86.7213 142.72 86.5825 142.099 86.3306C141.981 86.2824 141.921 86.2583 141.873 86.2475C141.826 86.237 141.792 86.2331 141.744 86.2331C141.694 86.2331 141.641 86.2421 141.534 86.2599L139.422 86.612C139.2 86.6488 139.09 86.6673 139.01 86.6329C138.94 86.6029 138.884 86.5471 138.854 86.4772C138.82 86.3972 138.838 86.2866 138.875 86.0654L139.227 83.9531C139.245 83.846 139.254 83.7924 139.254 83.7433C139.254 83.6952 139.25 83.6604 139.239 83.6135C139.229 83.5655 139.205 83.5061 139.156 83.3874C138.904 82.7671 138.766 82.0888 138.766 81.3781C138.766 78.4271 141.158 76.0349 144.109 76.0349C147.06 76.0349 149.452 78.4271 149.452 81.3781Z" fill="#6DB4F5" stroke="#514C49" stroke-width="0.296843" stroke-linecap="round" stroke-linejoin="round"/>
<rect x="137.137" y="93.3984" width="165.935" height="56.137" rx="2.22632" fill="#FEFDFB"/>
<path fill-rule="evenodd" clip-rule="evenodd" d="M149.769 98.9069C149.924 98.7524 150.175 98.7524 150.329 98.9069C150.484 99.0615 150.484 99.3121 150.329 99.4667L148.234 101.562H149.654C149.872 101.562 150.049 101.739 150.049 101.957C150.049 102.176 149.872 102.353 149.654 102.353H147.279C147.06 102.353 146.883 102.176 146.883 101.957V99.5826C146.883 99.364 147.06 99.1868 147.279 99.1868C147.497 99.1868 147.675 99.364 147.675 99.5826V101.002L149.769 98.9069ZM142.925 103.541C142.925 103.322 143.102 103.145 143.321 103.145H145.696C145.914 103.145 146.091 103.322 146.091 103.541V105.915C146.091 106.134 145.914 106.311 145.696 106.311C145.477 106.311 145.3 106.134 145.3 105.915V104.496L143.205 106.591C143.05 106.745 142.8 106.745 142.645 106.591C142.491 106.436 142.491 106.186 142.645 106.031L144.74 103.936H143.321C143.102 103.936 142.925 103.759 142.925 103.541Z" fill="#A6A19E"/>
<rect x="141.886" y="113.584" width="132.689" height="31.2021" rx="2.22632" fill="#FEFDFB"/>
<path d="M148.019 134.185L149.01 131.396H152.988L153.979 134.185H155.278L151.655 124.286H150.356L146.733 134.185H148.019ZM149.386 130.316L150.958 125.886H151.04L152.612 130.316H149.386ZM159.257 134.335C160.672 134.342 161.157 133.46 161.417 133.05H161.54V134.185H162.688V124.286H161.499V127.937H161.417C161.164 127.54 160.713 126.665 159.271 126.665C157.404 126.665 156.099 128.142 156.099 130.493C156.099 132.852 157.404 134.342 159.257 134.335ZM157.288 130.466C157.288 128.914 157.992 127.718 159.421 127.718C160.802 127.718 161.533 128.819 161.54 130.466C161.533 132.134 160.781 133.282 159.421 133.282C158.013 133.282 157.288 132.045 157.288 130.466ZM167.528 134.335C168.943 134.342 169.429 133.46 169.688 133.05H169.812V134.185H170.96V124.286H169.771V127.937H169.688C169.436 127.54 168.984 126.665 167.542 126.665C165.676 126.665 164.37 128.142 164.37 130.493C164.37 132.852 165.676 134.342 167.528 134.335ZM165.56 130.466C165.56 128.914 166.264 127.718 167.692 127.718C169.073 127.718 169.805 128.819 169.812 130.466C169.805 132.134 169.053 133.282 167.692 133.282C166.284 133.282 165.56 132.045 165.56 130.466ZM176.155 132.079C176.155 133.529 177.276 134.356 178.685 134.363C179.977 134.356 180.653 133.672 180.899 133.173H180.954V134.185H182.116V129.29C182.123 126.952 180.298 126.665 179.327 126.665C177.687 126.665 176.524 127.492 176.374 128.689H177.604C177.769 128.121 178.336 127.691 179.272 127.691C180.394 127.691 180.954 128.238 180.954 129.181V129.782C180.619 129.789 179.423 129.858 178.944 129.892C177.659 129.988 176.155 130.377 176.155 132.079ZM177.331 132.134C177.338 131.321 178.015 130.945 179.081 130.876C179.437 130.856 180.605 130.767 180.954 130.746V131.491C180.954 132.428 180.216 133.317 178.89 133.31C177.987 133.317 177.338 132.92 177.331 132.134ZM190.552 134.335C192.199 134.342 193.293 133.323 193.478 131.997H192.302C192.097 132.811 191.427 133.282 190.552 133.282C189.205 133.282 188.344 132.182 188.337 130.466C188.344 128.798 189.226 127.704 190.552 127.704C191.543 127.704 192.131 128.326 192.302 129.003H193.478C193.293 127.602 192.104 126.665 190.524 126.665C188.508 126.665 187.161 128.251 187.161 130.507C187.161 132.736 188.446 134.342 190.552 134.335ZM197.962 134.335C199.979 134.342 201.332 132.811 201.325 130.507C201.332 128.19 199.979 126.665 197.962 126.665C195.938 126.665 194.571 128.19 194.571 130.507C194.571 132.811 195.938 134.342 197.962 134.335ZM195.747 130.507C195.754 129.031 196.451 127.704 197.962 127.704C199.459 127.704 200.149 129.031 200.149 130.507C200.149 131.99 199.459 133.296 197.962 133.296C196.451 133.296 195.754 131.99 195.747 130.507ZM202.87 134.185H204.046V129.55C204.046 128.47 204.825 127.718 205.714 127.718C206.568 127.718 207.17 128.279 207.163 129.113V134.185H208.353V129.359C208.359 128.415 208.947 127.718 209.979 127.718C210.793 127.718 211.477 128.142 211.483 129.236V134.185H212.659V129.222C212.659 127.472 211.709 126.665 210.39 126.665C209.323 126.665 208.537 127.157 208.161 127.923H208.079C207.73 127.13 207.067 126.665 206.097 126.665C205.126 126.665 204.408 127.13 204.101 127.923H204.005V126.761H202.87V134.185ZM214.546 134.185H215.722V129.55C215.722 128.47 216.501 127.718 217.39 127.718C218.244 127.718 218.846 128.279 218.839 129.113V134.185H220.028V129.359C220.035 128.415 220.623 127.718 221.655 127.718C222.469 127.718 223.152 128.142 223.159 129.236V134.185H224.335V129.222C224.335 127.472 223.385 126.665 222.065 126.665C220.999 126.665 220.213 127.157 219.837 127.923H219.755C219.406 127.13 218.743 126.665 217.772 126.665C216.802 126.665 216.084 127.13 215.776 127.923H215.681V126.761H214.546V134.185ZM229.339 134.335C230.87 134.342 231.971 133.576 232.319 132.448H231.062C230.788 132.906 230.228 133.296 229.339 133.296C228.02 133.296 227.104 132.435 227.042 130.863H232.429V130.37C232.436 127.622 230.788 126.665 229.229 126.665C227.213 126.665 225.866 128.251 225.866 130.534C225.866 132.811 227.192 134.342 229.339 134.335ZM227.049 129.865C227.131 128.716 227.944 127.704 229.229 127.704C230.453 127.704 231.232 128.627 231.239 129.865H227.049ZM235.136 129.728C235.136 128.443 235.929 127.718 237.009 127.718C238.062 127.718 238.69 128.402 238.69 129.55V134.185H239.866V129.468C239.873 127.581 238.868 126.665 237.364 126.665C236.236 126.665 235.539 127.164 235.19 127.923H235.095V126.761H233.96V134.185H235.136V129.728ZM244.993 126.761H243.435V124.984H242.245V126.761H241.124V127.745H242.245V132.353C242.252 133.665 243.291 134.281 244.282 134.281C244.631 134.281 244.918 134.253 245.103 134.226V133.132C244.932 133.139 244.617 133.159 244.405 133.159C243.906 133.159 243.428 133.002 243.435 132.052V127.745H244.993V126.761Z" fill="#A6A19E"/>
<rect x="141.886" y="113.584" width="132.689" height="31.2021" rx="2.22632" stroke="#C2BDBA" stroke-width="0.296843"/>
<rect x="279.473" y="124.155" width="18.998" height="18.998" rx="2.37475" fill="#6DB4F5" fill-opacity="0.24"/>
<g clip-path="url(#clip1_5744_4218)">
<path fill-rule="evenodd" clip-rule="evenodd" d="M287.517 129.301C287.522 129.301 287.528 129.301 287.533 129.301L290.427 129.301C290.571 129.301 290.704 129.301 290.812 129.31C290.926 129.321 291.069 129.345 291.2 129.432C291.374 129.548 291.495 129.727 291.537 129.931C291.57 130.085 291.54 130.226 291.507 130.336C291.476 130.441 291.426 130.564 291.373 130.697L290.968 131.709C290.959 131.732 290.955 131.743 290.952 131.751C290.952 131.751 290.952 131.751 290.951 131.752C290.951 131.752 290.951 131.752 290.951 131.752C290.951 131.761 290.951 131.773 290.951 131.797V132.641C290.951 132.685 290.951 132.707 290.952 132.722C290.952 132.723 290.952 132.723 290.952 132.724C290.952 132.724 290.952 132.724 290.953 132.724C290.962 132.737 290.976 132.754 291.003 132.789L291.636 133.579C291.758 133.732 291.866 133.868 291.942 133.982C292.016 134.094 292.107 134.253 292.107 134.445C292.107 134.686 291.997 134.914 291.809 135.064C291.659 135.184 291.479 135.213 291.345 135.225C291.208 135.237 291.034 135.237 290.839 135.237L289.368 135.237L289.368 137.612C289.368 137.831 289.191 138.008 288.972 138.008C288.754 138.008 288.577 137.831 288.577 137.612V135.237L287.106 135.237C286.91 135.237 286.737 135.237 286.6 135.225C286.466 135.213 286.286 135.184 286.136 135.064C285.947 134.914 285.838 134.686 285.838 134.445C285.838 134.253 285.928 134.094 286.002 133.982C286.078 133.868 286.187 133.732 286.309 133.579L286.941 132.789C286.969 132.754 286.982 132.737 286.992 132.724C286.992 132.724 286.992 132.724 286.993 132.724C286.993 132.723 286.993 132.723 286.993 132.722C286.993 132.707 286.993 132.685 286.993 132.641V131.797C286.993 131.773 286.993 131.761 286.993 131.752C286.993 131.752 286.993 131.752 286.993 131.752C286.993 131.751 286.993 131.751 286.993 131.751C286.99 131.743 286.985 131.732 286.976 131.709L286.577 130.712C286.576 130.707 286.574 130.702 286.572 130.697C286.518 130.564 286.469 130.441 286.438 130.336C286.405 130.226 286.375 130.085 286.407 129.931C286.45 129.727 286.571 129.548 286.745 129.432C286.876 129.345 287.018 129.321 287.132 129.31C287.241 129.301 287.374 129.301 287.517 129.301ZM290.821 134.446C291.04 134.446 291.177 134.445 291.273 134.437C291.28 134.436 291.286 134.435 291.292 134.435C291.289 134.43 291.286 134.425 291.282 134.419C291.228 134.338 291.143 134.231 291.006 134.06L290.385 133.283C290.382 133.279 290.378 133.275 290.374 133.27C290.334 133.22 290.284 133.157 290.246 133.084C290.214 133.02 290.19 132.953 290.176 132.883C290.159 132.802 290.16 132.722 290.16 132.658C290.16 132.652 290.16 132.646 290.16 132.641V131.797C290.16 131.794 290.16 131.791 290.16 131.788C290.16 131.752 290.16 131.707 290.165 131.661C290.169 131.621 290.177 131.582 290.188 131.543C290.2 131.499 290.216 131.457 290.23 131.424C290.231 131.421 290.232 131.418 290.233 131.415L290.632 130.418C290.693 130.265 290.729 130.176 290.748 130.11C290.749 130.106 290.75 130.103 290.751 130.1C290.748 130.099 290.745 130.099 290.741 130.099C290.672 130.093 290.576 130.092 290.412 130.092H287.533C287.369 130.092 287.272 130.093 287.204 130.099C287.2 130.099 287.197 130.099 287.193 130.1C287.194 130.103 287.195 130.106 287.196 130.11C287.216 130.176 287.251 130.265 287.312 130.418L287.711 131.415C287.712 131.418 287.714 131.421 287.715 131.424C287.728 131.457 287.745 131.499 287.757 131.543C287.768 131.582 287.775 131.621 287.78 131.661C287.785 131.707 287.785 131.752 287.785 131.788C287.785 131.791 287.785 131.794 287.785 131.797V132.641C287.785 132.646 287.785 132.652 287.785 132.658C287.785 132.722 287.785 132.802 287.769 132.883C287.754 132.953 287.731 133.02 287.698 133.084C287.661 133.157 287.61 133.22 287.57 133.27C287.566 133.275 287.563 133.279 287.559 133.283L286.938 134.06C286.801 134.231 286.716 134.338 286.663 134.419C286.659 134.425 286.656 134.43 286.653 134.435C286.658 134.435 286.665 134.436 286.671 134.437C286.768 134.445 286.905 134.446 287.124 134.446H290.821Z" fill="#3C9AF1"/>
</g>
<rect x="137.137" y="93.3984" width="165.935" height="56.137" rx="2.22632" stroke="#C2BDBA" stroke-width="0.296843"/>
</g>
<defs>
<linearGradient id="paint0_linear_5744_4218" x1="102.539" y1="100.15" x2="46.4358" y2="50.28" gradientUnits="userSpaceOnUse">
<stop stop-color="white"/>
<stop offset="0.0392127" stop-color="white" stop-opacity="0.441616"/>
<stop offset="1" stop-color="white" stop-opacity="0"/>
</linearGradient>
<clipPath id="clip0_5744_4218">
<path d="M0 4C0 1.79086 1.79086 0 4 0H332C334.209 0 336 1.79086 336 4V192H0V4Z" fill="white"/>
</clipPath>
<clipPath id="clip1_5744_4218">
<rect width="9.49898" height="9.49898" fill="white" transform="translate(284.223 128.905)"/>
</clipPath>
</defs>
</svg>
