<svg width="328" height="206" viewBox="0 0 328 206" fill="none" xmlns="http://www.w3.org/2000/svg">
<g clip-path="url(#clip0_6004_261564)">
<path d="M0 4C0 1.79087 1.79086 0 4 0H323.999C326.208 0 327.999 1.79086 327.999 4V205.714H0V4Z" fill="white"/>
<rect x="136.938" y="-159.162" width="340.764" height="497.271" fill="white"/>
<rect x="-206.047" y="-144.73" width="215.336" height="482.841" fill="#FFF1D1"/>
<rect x="36.4844" y="-144.73" width="99.3432" height="482.841" fill="#FFF1D1"/>
<rect x="164.129" y="114.449" width="66.5988" height="154.842" transform="rotate(-90 164.129 114.449)" fill="#EDF5FF"/>
<rect x="164.129" y="192.146" width="66.5988" height="154.842" transform="rotate(-90 164.129 192.146)" fill="#EDF5FF"/>
<rect x="164.129" y="36.75" width="44.3992" height="154.842" transform="rotate(-90 164.129 36.75)" fill="#EDF5FF"/>
<rect x="135.824" y="-176.92" width="1.10998" height="515.031" fill="#A6A19E"/>
<rect x="114.324" y="65.1992" width="72.9724" height="75.8913" stroke="#0D99FF" stroke-width="0.832485"/>
<path d="M150.812 65.2009L152.544 80.4491L156.566 65.6681L155.964 81.0079L162.177 67.0581L159.257 82.1119L167.509 69.3367L162.342 83.7338L172.43 72.4478L165.143 85.8337L176.818 76.3147L167.592 88.3599L180.566 80.8424L169.627 91.2501L183.581 85.9192L171.199 94.4333L185.79 91.4202L172.269 97.831L187.137 97.2099L172.811 101.36L187.59 103.146L172.811 104.932L187.137 109.082L172.269 108.461L185.79 114.871L171.199 111.858L183.581 120.372L169.627 115.041L180.566 125.449L167.592 117.932L176.818 129.977L165.143 120.458L172.43 133.844L162.342 122.558L167.509 136.955L159.257 124.18L162.177 139.234L155.964 125.284L156.566 140.624L152.544 125.843L150.812 141.091L149.081 125.843L145.059 140.624L145.661 125.284L139.448 139.234L142.368 124.18L134.116 136.955L139.283 122.558L129.195 133.844L136.482 120.458L124.807 129.977L134.033 117.932L121.059 125.449L131.998 115.041L118.044 120.372L130.426 111.858L115.835 114.871L129.356 108.461L114.488 109.082L128.814 104.932L114.035 103.146L128.814 101.36L114.488 97.2099L129.356 97.831L115.835 91.4202L130.426 94.4333L118.044 85.9192L131.998 91.2501L121.059 80.8424L134.033 88.3599L124.807 76.3147L136.482 85.8337L129.195 72.4478L139.283 83.7338L134.116 69.3367L142.368 82.1119L139.448 67.0581L145.661 81.0079L145.059 65.6681L149.081 80.4491L150.812 65.2009Z" fill="#A385FB"/>
<rect x="111.406" y="62.2812" width="5.83629" height="5.83778" fill="white" stroke="#0D99FF" stroke-width="0.832485"/>
<rect x="184.379" y="62.2812" width="5.83629" height="5.83778" fill="white" stroke="#0D99FF" stroke-width="0.832485"/>
<rect x="111.406" y="138.174" width="5.83629" height="5.83778" fill="white" stroke="#0D99FF" stroke-width="0.832485"/>
<rect x="184.379" y="138.174" width="5.83629" height="5.83778" fill="white" stroke="#0D99FF" stroke-width="0.832485"/>
<g filter="url(#filter0_d_6004_261564)">
<path d="M154.931 108.035C155.306 107.889 155.494 107.816 155.547 107.713C155.593 107.623 155.591 107.517 155.543 107.429C155.488 107.327 155.298 107.259 154.919 107.123L145.246 103.65C144.936 103.539 144.78 103.483 144.679 103.518C144.591 103.549 144.521 103.618 144.491 103.706C144.456 103.808 144.511 103.963 144.623 104.273L148.095 113.946C148.231 114.326 148.299 114.515 148.401 114.571C148.49 114.619 148.596 114.62 148.685 114.574C148.788 114.522 148.861 114.334 149.008 113.958L150.588 109.893C150.617 109.82 150.631 109.783 150.653 109.752C150.673 109.724 150.697 109.7 150.724 109.681C150.755 109.659 150.792 109.644 150.866 109.616L154.931 108.035Z" fill="#332E2B" stroke="#FEFDFB" stroke-width="0.277495" stroke-linecap="round" stroke-linejoin="round"/>
</g>
<rect opacity="0.6" x="-205.492" y="-153.611" width="340.764" height="490.611" fill="white"/>
</g>
<path d="M0.25 4C0.25 1.92894 1.92893 0.25 4 0.25H323.999C326.07 0.25 327.749 1.92893 327.749 4V205.464H0.25V4Z" stroke="#C2BDBA" stroke-width="0.5"/>
<defs>
<filter id="filter0_d_6004_261564" x="136.34" y="103.369" width="27.3789" height="27.3772" filterUnits="userSpaceOnUse" color-interpolation-filters="sRGB">
<feFlood flood-opacity="0" result="BackgroundImageFix"/>
<feColorMatrix in="SourceAlpha" type="matrix" values="0 0 0 0 0 0 0 0 0 0 0 0 0 0 0 0 0 0 127 0" result="hardAlpha"/>
<feOffset dy="8"/>
<feGaussianBlur stdDeviation="4"/>
<feComposite in2="hardAlpha" operator="out"/>
<feColorMatrix type="matrix" values="0 0 0 0 0 0 0 0 0 0 0 0 0 0 0 0 0 0 0.08 0"/>
<feBlend mode="normal" in2="BackgroundImageFix" result="effect1_dropShadow_6004_261564"/>
<feBlend mode="normal" in="SourceGraphic" in2="effect1_dropShadow_6004_261564" result="shape"/>
</filter>
<clipPath id="clip0_6004_261564">
<path d="M0 4C0 1.79087 1.79086 0 4 0H323.999C326.208 0 327.999 1.79086 327.999 4V205.714H0V4Z" fill="white"/>
</clipPath>
</defs>
</svg>
