<svg width="328" height="206" viewBox="0 0 328 206" fill="none" xmlns="http://www.w3.org/2000/svg">
<g clip-path="url(#clip0_6004_261744)">
<path d="M0 4C0 1.79087 1.79086 0 4 0H323.999C326.208 0 327.999 1.79086 327.999 4V205.714H0V4Z" fill="white"/>
<rect x="46.2" y="88.6414" width="15.2975" height="15.2975" rx="2.94184" fill="url(#paint0_linear_6004_261744)"/>
<path fill-rule="evenodd" clip-rule="evenodd" d="M57.2658 93.6594C57.419 93.8126 57.419 94.061 57.2658 94.2142L52.9511 98.5289C52.798 98.682 52.5496 98.682 52.3964 98.5289L50.4352 96.5676C50.282 96.4144 50.282 96.1661 50.4352 96.0129C50.5884 95.8597 50.8367 95.8597 50.9899 96.0129L52.6738 97.6968L56.7111 93.6594C56.8643 93.5063 57.1127 93.5063 57.2658 93.6594Z" fill="#FEFDFB"/>
<rect x="46.2" y="88.6414" width="15.2975" height="15.2975" rx="2.94184" stroke="url(#paint1_linear_6004_261744)" stroke-width="0.392245"/>
<path d="M72.8841 93.2537H75.3081V100H76.4879V93.2537H78.9011V92.2348H72.8841V93.2537ZM81.1534 96.5464C81.1534 95.6187 81.738 95.0877 82.5478 95.0877C83.32 95.0877 83.7812 95.5811 83.7812 96.4392V100H84.9288V96.2997C84.9288 94.8411 84.1298 94.101 82.9339 94.101C82.0276 94.101 81.4806 94.4978 81.2071 95.1306H81.132V92.2348H80.0058V100H81.1534V96.5464ZM86.3124 100H87.46V94.1761H86.3124V100ZM86.1622 92.5994C86.1676 92.9748 86.4947 93.2805 86.8916 93.2751C87.283 93.2805 87.6102 92.9748 87.6102 92.5994C87.6102 92.2241 87.283 91.9237 86.8916 91.9237C86.4947 91.9237 86.1676 92.2241 86.1622 92.5994ZM90.0019 96.5464C90.0019 95.6187 90.565 95.0877 91.3533 95.0877C92.1256 95.0877 92.5814 95.5918 92.5868 96.4392V100H93.7237V96.2997C93.729 94.8572 92.9353 94.101 91.7395 94.101C90.8707 94.101 90.2969 94.5032 90.0234 95.1306H89.959V94.1761H88.8543V100H90.0019V96.5464ZM97.5634 102.306C99.0649 102.306 100.196 101.625 100.191 100.129V94.1761H99.0757V95.1199H99.0006C98.7861 94.7553 98.3892 94.101 97.306 94.101C95.9063 94.101 94.8606 95.1682 94.8606 97.0291C94.8606 98.8899 95.9224 99.9142 97.2952 99.9142C98.3678 99.9142 98.7861 99.3136 98.9899 98.9382H99.0649V100.086C99.0596 100.992 98.4858 101.389 97.5741 101.384C96.818 101.389 96.3031 101.121 96.1905 100.568H95.0214C95.1233 101.657 96.094 102.306 97.5634 102.306ZM96.0296 97.0505C96.0243 95.9351 96.5391 95.0717 97.5526 95.077C98.5394 95.0717 99.0757 95.8707 99.0757 97.0505C99.0757 98.2518 98.5287 98.965 97.5526 98.9704C96.5498 98.965 96.0243 98.1928 96.0296 97.0505ZM104.857 95.7635H105.961C105.849 94.7606 105.039 94.101 103.741 94.101C102.39 94.101 101.489 94.8142 101.489 95.8493C101.489 96.6537 102.036 97.2167 103.087 97.4473L103.999 97.6404C104.615 97.7852 104.894 98.0265 104.9 98.4019C104.894 98.8899 104.417 99.201 103.677 99.1956C102.985 99.201 102.588 98.9382 102.486 98.4126H101.317C101.462 99.4959 102.288 100.118 103.688 100.118C105.173 100.118 106.063 99.3672 106.069 98.3161C106.063 97.4902 105.543 96.9808 104.471 96.7395L103.548 96.525C102.905 96.3748 102.631 96.1281 102.637 95.7849C102.631 95.3398 103.098 95.0019 103.752 95.0019C104.385 95.0019 104.749 95.3023 104.857 95.7635ZM112.59 94.1761H111.399V92.7818H110.262V94.1761H109.404V95.0877H110.262V98.5199C110.252 99.5817 111.061 100.075 111.957 100.075C112.273 100.075 112.52 100.054 112.676 100.032V99.0347C112.515 99.0508 112.263 99.0669 112.096 99.0669C111.726 99.0615 111.405 98.9435 111.399 98.2839V95.0877H112.59V94.1761ZM116.108 100.118C117.749 100.118 118.821 98.9167 118.821 97.1149C118.821 95.3023 117.749 94.101 116.108 94.101C114.456 94.101 113.378 95.3023 113.383 97.1149C113.378 98.9167 114.456 100.118 116.108 100.118ZM114.531 97.1149C114.531 95.9994 115.04 95.0502 116.108 95.0448C117.159 95.0502 117.663 95.9994 117.663 97.1149C117.663 98.2249 117.159 99.1634 116.108 99.1634C115.04 99.1634 114.531 98.2249 114.531 97.1149ZM124.806 100.118C125.868 100.113 126.286 99.4691 126.501 99.0883H126.586V100H127.702V92.2348H126.554V95.1199H126.501C126.291 94.7553 125.9 94.101 124.817 94.101C123.417 94.101 122.371 95.2057 122.371 97.1041C122.371 98.9811 123.401 100.113 124.806 100.118ZM123.54 97.0827C123.535 95.9351 124.05 95.0717 125.063 95.077C126.05 95.0717 126.586 95.8707 126.586 97.0827C126.586 98.3054 126.039 99.1366 125.063 99.142C124.061 99.1366 123.535 98.2518 123.54 97.0827ZM131.66 100.118C133.301 100.118 134.373 98.9167 134.373 97.1149C134.373 95.3023 133.301 94.101 131.66 94.101C130.008 94.101 128.93 95.3023 128.935 97.1149C128.93 98.9167 130.008 100.118 131.66 100.118ZM130.083 97.1149C130.083 95.9994 130.592 95.0502 131.66 95.0448C132.711 95.0502 133.215 95.9994 133.215 97.1149C133.215 98.2249 132.711 99.1634 131.66 99.1634C130.592 99.1634 130.083 98.2249 130.083 97.1149ZM138.17 100H143.393V98.9918H139.811V98.9275L141.388 97.3294C142.846 95.8975 143.254 95.2057 143.264 94.337C143.254 93.0767 142.219 92.1275 140.723 92.1275C139.242 92.1275 138.159 93.066 138.17 94.4871H139.285C139.291 93.6613 139.838 93.1143 140.701 93.1143C141.516 93.1143 142.138 93.6023 142.138 94.3691C142.138 95.0502 141.715 95.5436 140.862 96.4284L138.17 99.142V100Z" fill="#A6A19E"/>
<line x1="73" y1="95.6078" x2="146" y2="95.6078" stroke="#A6A19E" stroke-width="0.78449"/>
<rect x="46.2" y="126.298" width="15.2975" height="15.2975" rx="2.94184" fill="url(#paint2_linear_6004_261744)"/>
<path fill-rule="evenodd" clip-rule="evenodd" d="M57.2658 131.316C57.419 131.469 57.419 131.717 57.2658 131.87L52.9511 136.185C52.798 136.338 52.5496 136.338 52.3964 136.185L50.4352 134.224C50.282 134.071 50.282 133.822 50.4352 133.669C50.5884 133.516 50.8367 133.516 50.9899 133.669L52.6738 135.353L56.7111 131.316C56.8643 131.163 57.1127 131.163 57.2658 131.316Z" fill="#FEFDFB"/>
<rect x="46.2" y="126.298" width="15.2975" height="15.2975" rx="2.94184" stroke="url(#paint3_linear_6004_261744)" stroke-width="0.392245"/>
<path d="M72.4076 130.254H74.8315V137H76.0113V130.254H78.4245V129.235H72.4076V130.254ZM80.6769 133.546C80.6769 132.619 81.2614 132.088 82.0712 132.088C82.8434 132.088 83.3046 132.581 83.3046 133.439V137H84.4522V133.3C84.4522 131.841 83.6532 131.101 82.4573 131.101C81.551 131.101 81.004 131.498 80.7305 132.131H80.6554V129.235H79.5293V137H80.6769V133.546ZM85.8358 137H86.9834V131.176H85.8358V137ZM85.6857 129.599C85.691 129.975 86.0182 130.281 86.415 130.275C86.8065 130.281 87.1336 129.975 87.1336 129.599C87.1336 129.224 86.8065 128.924 86.415 128.924C86.0182 128.924 85.691 129.224 85.6857 129.599ZM89.5254 133.546C89.5254 132.619 90.0885 132.088 90.8768 132.088C91.649 132.088 92.1048 132.592 92.1102 133.439V137H93.2471V133.3C93.2525 131.857 92.4588 131.101 91.2629 131.101C90.3941 131.101 89.8203 131.503 89.5468 132.131H89.4825V131.176H88.3778V137H89.5254V133.546ZM97.0868 139.306C98.5884 139.306 99.7199 138.625 99.7145 137.129V131.176H98.5991V132.12H98.524C98.3095 131.755 97.9127 131.101 96.8294 131.101C95.4297 131.101 94.384 132.168 94.384 134.029C94.384 135.89 95.4458 136.914 96.8187 136.914C97.8912 136.914 98.3095 136.314 98.5133 135.938H98.5884V137.086C98.583 137.992 98.0092 138.389 97.0975 138.384C96.3414 138.389 95.8266 138.121 95.714 137.568H94.5449C94.6468 138.657 95.6174 139.306 97.0868 139.306ZM95.5531 134.051C95.5477 132.935 96.0625 132.072 97.0761 132.077C98.0628 132.072 98.5991 132.871 98.5991 134.051C98.5991 135.252 98.0521 135.965 97.0761 135.97C96.0733 135.965 95.5477 135.193 95.5531 134.051ZM104.38 132.763H105.485C105.372 131.761 104.562 131.101 103.265 131.101C101.913 131.101 101.012 131.814 101.012 132.849C101.012 133.654 101.559 134.217 102.61 134.447L103.522 134.64C104.139 134.785 104.418 135.027 104.423 135.402C104.418 135.89 103.94 136.201 103.2 136.196C102.509 136.201 102.112 135.938 102.01 135.413H100.841C100.986 136.496 101.811 137.118 103.211 137.118C104.697 137.118 105.587 136.367 105.592 135.316C105.587 134.49 105.067 133.981 103.994 133.739L103.072 133.525C102.428 133.375 102.155 133.128 102.16 132.785C102.155 132.34 102.621 132.002 103.275 132.002C103.908 132.002 104.273 132.302 104.38 132.763ZM112.113 131.176H110.923V129.782H109.786V131.176H108.928V132.088H109.786V135.52C109.775 136.582 110.585 137.075 111.48 137.075C111.797 137.075 112.043 137.054 112.199 137.032V136.035C112.038 136.051 111.786 136.067 111.62 136.067C111.25 136.062 110.928 135.944 110.923 135.284V132.088H112.113V131.176ZM115.631 137.118C117.272 137.118 118.345 135.917 118.345 134.115C118.345 132.302 117.272 131.101 115.631 131.101C113.979 131.101 112.901 132.302 112.907 134.115C112.901 135.917 113.979 137.118 115.631 137.118ZM114.054 134.115C114.054 132.999 114.564 132.05 115.631 132.045C116.682 132.05 117.186 132.999 117.186 134.115C117.186 135.225 116.682 136.163 115.631 136.163C114.564 136.163 114.054 135.225 114.054 134.115ZM124.329 137.118C125.391 137.113 125.81 136.469 126.024 136.088H126.11V137H127.225V129.235H126.078V132.12H126.024C125.815 131.755 125.423 131.101 124.34 131.101C122.94 131.101 121.895 132.206 121.895 134.104C121.895 135.981 122.924 137.113 124.329 137.118ZM123.064 134.083C123.058 132.935 123.573 132.072 124.587 132.077C125.574 132.072 126.11 132.871 126.11 134.083C126.11 135.305 125.563 136.137 124.587 136.142C123.584 136.137 123.058 135.252 123.064 134.083ZM131.183 137.118C132.824 137.118 133.897 135.917 133.897 134.115C133.897 132.302 132.824 131.101 131.183 131.101C129.531 131.101 128.453 132.302 128.459 134.115C128.453 135.917 129.531 137.118 131.183 137.118ZM129.606 134.115C129.606 132.999 130.116 132.05 131.183 132.045C132.234 132.05 132.738 132.999 132.738 134.115C132.738 135.225 132.234 136.163 131.183 136.163C130.116 136.163 129.606 135.225 129.606 134.115ZM140.643 129.235H139.484L137.554 130.5V131.627L139.409 130.415H139.452V137H140.643V129.235Z" fill="#A6A19E"/>
<line x1="72.6758" y1="133.553" x2="146.418" y2="133.553" stroke="#A6A19E" stroke-width="0.78449"/>
<path d="M51.7589 61.9453C55.8039 61.9453 58.2033 59.4356 58.2125 55.271C58.2033 51.1249 55.8039 48.6335 51.8324 48.6335H47.2358V61.9453H51.7589ZM49.626 59.8676V50.7112H51.7037C54.4157 50.702 55.8223 52.2189 55.8223 55.271C55.8223 58.3416 54.4157 59.8768 51.6302 59.8676H49.626ZM64.5742 62.1476C67.4977 62.1476 69.3639 60.0791 69.3547 56.9994C69.3639 53.892 67.4977 51.8328 64.5742 51.8328C61.66 51.8328 59.7938 53.892 59.7938 56.9994C59.7938 60.0791 61.66 62.1476 64.5742 62.1476ZM62.1656 56.981C62.1656 55.1515 62.9654 53.6806 64.5926 53.6898C66.1923 53.6806 66.9921 55.1515 66.9829 56.981C66.9921 58.8104 66.1923 60.2721 64.5926 60.2721C62.9654 60.2721 62.1656 58.8104 62.1656 56.981ZM73.5285 56.0984C73.5285 54.6459 74.4018 53.8093 75.6429 53.8185C76.8656 53.8093 77.5919 54.6091 77.5919 55.9513V61.9453H79.9269V55.5836C79.9361 53.1934 78.5755 51.8328 76.5071 51.8328C75.0178 51.8328 73.9973 52.5406 73.5468 53.653H73.4181V51.9615H71.175V61.9453H73.5285V56.0984ZM86.6012 62.1476C88.9179 62.1476 90.5176 61.0076 90.9404 59.2793H88.6421C88.3388 59.8768 87.6493 60.3181 86.6196 60.3089C85.1027 60.3181 84.1007 59.3069 84.0639 57.6061H91.0324V56.8706C91.0324 53.368 88.9179 51.8328 86.4725 51.8328C83.6226 51.8328 81.7472 53.9288 81.7472 57.0177C81.7472 60.1434 83.5951 62.1476 86.6012 62.1476ZM84.0731 56.0065C84.1558 54.7378 85.1027 53.653 86.5093 53.653C87.8607 53.653 88.78 54.6459 88.7892 56.0065H84.0731Z" fill="black"/>
</g>
<path d="M0.25 4C0.25 1.92894 1.92893 0.25 4 0.25H323.999C326.07 0.25 327.749 1.92893 327.749 4V205.464H0.25V4Z" stroke="#C2BDBA" stroke-width="0.5"/>
<defs>
<linearGradient id="paint0_linear_6004_261744" x1="53.8488" y1="88.4453" x2="53.8488" y2="104.135" gradientUnits="userSpaceOnUse">
<stop stop-color="#D7E38B"/>
<stop offset="1" stop-color="#23C176"/>
</linearGradient>
<linearGradient id="paint1_linear_6004_261744" x1="53.8488" y1="88.4453" x2="53.8488" y2="104.135" gradientUnits="userSpaceOnUse">
<stop stop-color="#D7E38B"/>
<stop offset="1" stop-color="#23C176"/>
</linearGradient>
<linearGradient id="paint2_linear_6004_261744" x1="53.8488" y1="126.102" x2="53.8488" y2="141.791" gradientUnits="userSpaceOnUse">
<stop stop-color="#84B5FF"/>
<stop offset="1" stop-color="#855CF9"/>
</linearGradient>
<linearGradient id="paint3_linear_6004_261744" x1="53.8488" y1="126.102" x2="53.8488" y2="141.791" gradientUnits="userSpaceOnUse">
<stop stop-color="#84B5FF"/>
<stop offset="1" stop-color="#855CF9"/>
</linearGradient>
<clipPath id="clip0_6004_261744">
<path d="M0 4C0 1.79087 1.79086 0 4 0H323.999C326.208 0 327.999 1.79086 327.999 4V205.714H0V4Z" fill="white"/>
</clipPath>
</defs>
</svg>
