<svg width="336" height="192" viewBox="0 0 336 192" fill="none" xmlns="http://www.w3.org/2000/svg">
<g clip-path="url(#clip0_5744_4849)">
<path d="M0 4C0 1.79086 1.79086 0 4 0H332C334.209 0 336 1.79086 336 4V192H0V4Z" fill="white"/>
<rect x="46.2" y="88.6414" width="15.2975" height="15.2975" rx="2.94184" fill="url(#paint0_linear_5744_4849)"/>
<path fill-rule="evenodd" clip-rule="evenodd" d="M57.2644 93.6594C57.4175 93.8126 57.4175 94.061 57.2644 94.2142L52.9497 98.5289C52.7965 98.682 52.5481 98.682 52.395 98.5289L50.4337 96.5676C50.2806 96.4144 50.2806 96.1661 50.4337 96.0129C50.5869 95.8597 50.8353 95.8597 50.9885 96.0129L52.6723 97.6968L56.7097 93.6594C56.8628 93.5063 57.1112 93.5063 57.2644 93.6594Z" fill="#FEFDFB"/>
<rect x="46.2" y="88.6414" width="15.2975" height="15.2975" rx="2.94184" stroke="url(#paint1_linear_5744_4849)" stroke-width="0.392245"/>
<path d="M74.6527 93.9139H77.0766V100.66H78.2564V93.9139H80.6697V92.8949H74.6527V93.9139ZM82.922 97.2066C82.922 96.2788 83.5065 95.7479 84.3163 95.7479C85.0885 95.7479 85.5497 96.2413 85.5497 97.0993V100.66H86.6974V96.9599C86.6974 95.5012 85.8983 94.7612 84.7024 94.7612C83.7961 94.7612 83.2491 95.158 82.9756 95.7908H82.9005V92.8949H81.7744V100.66H82.922V97.2066ZM88.0809 100.66H89.2286V94.8362H88.0809V100.66ZM87.9308 93.2596C87.9361 93.635 88.2633 93.9407 88.6601 93.9353C89.0516 93.9407 89.3787 93.635 89.3787 93.2596C89.3787 92.8842 89.0516 92.5839 88.6601 92.5839C88.2633 92.5839 87.9361 92.8842 87.9308 93.2596ZM91.7705 97.2066C91.7705 96.2788 92.3336 95.7479 93.1219 95.7479C93.8941 95.7479 94.35 96.252 94.3553 97.0993V100.66H95.4922V96.9599C95.4976 95.5173 94.7039 94.7612 93.508 94.7612C92.6393 94.7612 92.0654 95.1634 91.7919 95.7908H91.7276V94.8362H90.6229V100.66H91.7705V97.2066ZM99.3319 102.966C100.833 102.966 101.965 102.285 101.96 100.789V94.8362H100.844V95.7801H100.769C100.555 95.4154 100.158 94.7612 99.0745 94.7612C97.6748 94.7612 96.6291 95.8283 96.6291 97.6892C96.6291 99.5501 97.6909 100.574 99.0638 100.574C100.136 100.574 100.555 99.9737 100.758 99.5983H100.833V100.746C100.828 101.652 100.254 102.049 99.3427 102.044C98.5865 102.049 98.0717 101.781 97.9591 101.229H96.79C96.8919 102.317 97.8625 102.966 99.3319 102.966ZM97.7982 97.7107C97.7928 96.5952 98.3076 95.7318 99.3212 95.7372C100.308 95.7318 100.844 96.5309 100.844 97.7107C100.844 98.9119 100.297 99.6252 99.3212 99.6305C98.3184 99.6252 97.7928 98.8529 97.7982 97.7107ZM106.625 96.4236H107.73C107.617 95.4208 106.808 94.7612 105.51 94.7612C104.158 94.7612 103.257 95.4744 103.257 96.5094C103.257 97.3138 103.804 97.8769 104.856 98.1075L105.767 98.3006C106.384 98.4454 106.663 98.6867 106.668 99.0621C106.663 99.5501 106.185 99.8611 105.445 99.8557C104.754 99.8611 104.357 99.5983 104.255 99.0728H103.086C103.231 100.156 104.056 100.778 105.456 100.778C106.942 100.778 107.832 100.027 107.837 98.9763C107.832 98.1504 107.312 97.6409 106.239 97.3996L105.317 97.1851C104.673 97.035 104.4 96.7883 104.405 96.4451C104.4 96 104.866 95.6621 105.521 95.6621C106.153 95.6621 106.518 95.9624 106.625 96.4236ZM114.358 94.8362H113.168V93.4419H112.031V94.8362H111.173V95.7479H112.031V99.18C112.02 100.242 112.83 100.735 113.725 100.735C114.042 100.735 114.289 100.714 114.444 100.692V99.6949C114.283 99.711 114.031 99.727 113.865 99.727C113.495 99.7217 113.173 99.6037 113.168 98.9441V95.7479H114.358V94.8362ZM117.876 100.778C119.517 100.778 120.59 99.5769 120.59 97.775C120.59 95.9624 119.517 94.7612 117.876 94.7612C116.224 94.7612 115.147 95.9624 115.152 97.775C115.147 99.5769 116.224 100.778 117.876 100.778ZM116.3 97.775C116.3 96.6596 116.809 95.7104 117.876 95.705C118.927 95.7104 119.431 96.6596 119.431 97.775C119.431 98.8851 118.927 99.8236 117.876 99.8236C116.809 99.8236 116.3 98.8851 116.3 97.775ZM126.575 100.778C127.636 100.773 128.055 100.129 128.269 99.7485H128.355V100.66H129.47V92.8949H128.323V95.7801H128.269C128.06 95.4154 127.669 94.7612 126.585 94.7612C125.186 94.7612 124.14 95.8659 124.14 97.7643C124.14 99.6412 125.17 100.773 126.575 100.778ZM125.309 97.7428C125.304 96.5952 125.818 95.7318 126.832 95.7372C127.819 95.7318 128.355 96.5309 128.355 97.7428C128.355 98.9655 127.808 99.7968 126.832 99.8021C125.829 99.7968 125.304 98.9119 125.309 97.7428ZM133.428 100.778C135.069 100.778 136.142 99.5769 136.142 97.775C136.142 95.9624 135.069 94.7612 133.428 94.7612C131.776 94.7612 130.698 95.9624 130.704 97.775C130.698 99.5769 131.776 100.778 133.428 100.778ZM131.851 97.775C131.851 96.6596 132.361 95.7104 133.428 95.705C134.479 95.7104 134.983 96.6596 134.983 97.775C134.983 98.8851 134.479 99.8236 133.428 99.8236C132.361 99.8236 131.851 98.8851 131.851 97.775ZM74.9315 117.66H80.1548V116.652H76.5725V116.588L78.1492 114.99C79.6078 113.558 80.0154 112.866 80.0261 111.997C80.0154 110.737 78.9804 109.788 77.4842 109.788C76.0041 109.788 74.9208 110.726 74.9315 112.147H76.047C76.0524 111.321 76.5994 110.774 77.4627 110.774C78.2779 110.774 78.9 111.262 78.9 112.029C78.9 112.71 78.4763 113.204 77.6236 114.089L74.9315 116.802V117.66Z" fill="#A6A19E"/>
<line x1="72.6763" y1="95.8968" x2="147.987" y2="95.8968" stroke="#A6A19E" stroke-width="0.78449"/>
<rect x="46.2" y="126.298" width="15.2975" height="15.2975" rx="2.94184" fill="url(#paint2_linear_5744_4849)"/>
<path fill-rule="evenodd" clip-rule="evenodd" d="M57.2644 131.316C57.4175 131.469 57.4175 131.717 57.2644 131.87L52.9497 136.185C52.7965 136.338 52.5481 136.338 52.395 136.185L50.4337 134.224C50.2806 134.071 50.2806 133.822 50.4337 133.669C50.5869 133.516 50.8353 133.516 50.9885 133.669L52.6723 135.353L56.7097 131.316C56.8628 131.163 57.1112 131.163 57.2644 131.316Z" fill="#FEFDFB"/>
<rect x="46.2" y="126.298" width="15.2975" height="15.2975" rx="2.94184" stroke="url(#paint3_linear_5744_4849)" stroke-width="0.392245"/>
<path d="M74.6527 131.57H77.0766V138.316H78.2564V131.57H80.6697V130.551H74.6527V131.57ZM82.922 134.863C82.922 133.935 83.5065 133.404 84.3163 133.404C85.0885 133.404 85.5497 133.898 85.5497 134.756V138.316H86.6974V134.616C86.6974 133.157 85.8983 132.417 84.7024 132.417C83.7961 132.417 83.2491 132.814 82.9756 133.447H82.9005V130.551H81.7744V138.316H82.922V134.863ZM88.0809 138.316H89.2286V132.492H88.0809V138.316ZM87.9308 130.916C87.9361 131.291 88.2633 131.597 88.6601 131.592C89.0516 131.597 89.3787 131.291 89.3787 130.916C89.3787 130.54 89.0516 130.24 88.6601 130.24C88.2633 130.24 87.9361 130.54 87.9308 130.916ZM91.7705 134.863C91.7705 133.935 92.3336 133.404 93.1219 133.404C93.8941 133.404 94.35 133.908 94.3553 134.756V138.316H95.4922V134.616C95.4976 133.174 94.7039 132.417 93.508 132.417C92.6393 132.417 92.0654 132.82 91.7919 133.447H91.7276V132.492H90.6229V138.316H91.7705V134.863ZM99.3319 140.622C100.833 140.622 101.965 139.941 101.96 138.445V132.492H100.844V133.436H100.769C100.555 133.072 100.158 132.417 99.0745 132.417C97.6748 132.417 96.6291 133.485 96.6291 135.345C96.6291 137.206 97.6909 138.231 99.0638 138.231C100.136 138.231 100.555 137.63 100.758 137.255H100.833V138.402C100.828 139.309 100.254 139.705 99.3427 139.7C98.5865 139.705 98.0717 139.437 97.9591 138.885H96.79C96.8919 139.973 97.8625 140.622 99.3319 140.622ZM97.7982 135.367C97.7928 134.251 98.3076 133.388 99.3212 133.393C100.308 133.388 100.844 134.187 100.844 135.367C100.844 136.568 100.297 137.281 99.3212 137.287C98.3184 137.281 97.7928 136.509 97.7982 135.367ZM106.625 134.08H107.73C107.617 133.077 106.808 132.417 105.51 132.417C104.158 132.417 103.257 133.131 103.257 134.166C103.257 134.97 103.804 135.533 104.856 135.764L105.767 135.957C106.384 136.102 106.663 136.343 106.668 136.718C106.663 137.206 106.185 137.517 105.445 137.512C104.754 137.517 104.357 137.255 104.255 136.729H103.086C103.231 137.812 104.056 138.434 105.456 138.434C106.942 138.434 107.832 137.684 107.837 136.633C107.832 135.807 107.312 135.297 106.239 135.056L105.317 134.841C104.673 134.691 104.4 134.445 104.405 134.101C104.4 133.656 104.866 133.318 105.521 133.318C106.153 133.318 106.518 133.619 106.625 134.08ZM114.358 132.492H113.168V131.098H112.031V132.492H111.173V133.404H112.031V136.836C112.02 137.898 112.83 138.391 113.725 138.391C114.042 138.391 114.289 138.37 114.444 138.349V137.351C114.283 137.367 114.031 137.383 113.865 137.383C113.495 137.378 113.173 137.26 113.168 136.6V133.404H114.358V132.492ZM117.876 138.434C119.517 138.434 120.59 137.233 120.59 135.431C120.59 133.619 119.517 132.417 117.876 132.417C116.224 132.417 115.147 133.619 115.152 135.431C115.147 137.233 116.224 138.434 117.876 138.434ZM116.3 135.431C116.3 134.316 116.809 133.367 117.876 133.361C118.927 133.367 119.431 134.316 119.431 135.431C119.431 136.541 118.927 137.48 117.876 137.48C116.809 137.48 116.3 136.541 116.3 135.431ZM126.575 138.434C127.636 138.429 128.055 137.785 128.269 137.405H128.355V138.316H129.47V130.551H128.323V133.436H128.269C128.06 133.072 127.669 132.417 126.585 132.417C125.186 132.417 124.14 133.522 124.14 135.421C124.14 137.297 125.17 138.429 126.575 138.434ZM125.309 135.399C125.304 134.251 125.818 133.388 126.832 133.393C127.819 133.388 128.355 134.187 128.355 135.399C128.355 136.622 127.808 137.453 126.832 137.458C125.829 137.453 125.304 136.568 125.309 135.399ZM133.428 138.434C135.069 138.434 136.142 137.233 136.142 135.431C136.142 133.619 135.069 132.417 133.428 132.417C131.776 132.417 130.698 133.619 130.704 135.431C130.698 137.233 131.776 138.434 133.428 138.434ZM131.851 135.431C131.851 134.316 132.361 133.367 133.428 133.361C134.479 133.367 134.983 134.316 134.983 135.431C134.983 136.541 134.479 137.48 133.428 137.48C132.361 137.48 131.851 136.541 131.851 135.431ZM142.888 130.551H141.73L139.799 131.817V132.943L141.655 131.731H141.697V138.316H142.888V130.551Z" fill="#A6A19E"/>
<line x1="72.6763" y1="133.553" x2="146.418" y2="133.553" stroke="#A6A19E" stroke-width="0.78449"/>
<path d="M51.7589 61.9453C55.8039 61.9453 58.2033 59.4356 58.2125 55.271C58.2033 51.1249 55.8039 48.6335 51.8324 48.6335H47.2358V61.9453H51.7589ZM49.626 59.8676V50.7112H51.7037C54.4157 50.702 55.8223 52.2189 55.8223 55.271C55.8223 58.3416 54.4157 59.8768 51.6302 59.8676H49.626ZM64.5742 62.1476C67.4977 62.1476 69.3639 60.0791 69.3547 56.9994C69.3639 53.892 67.4977 51.8328 64.5742 51.8328C61.66 51.8328 59.7938 53.892 59.7938 56.9994C59.7938 60.0791 61.66 62.1476 64.5742 62.1476ZM62.1656 56.981C62.1656 55.1515 62.9654 53.6806 64.5926 53.6898C66.1923 53.6806 66.9921 55.1515 66.9829 56.981C66.9921 58.8104 66.1923 60.2721 64.5926 60.2721C62.9654 60.2721 62.1656 58.8104 62.1656 56.981ZM73.5285 56.0984C73.5285 54.6459 74.4018 53.8093 75.6429 53.8185C76.8656 53.8093 77.5919 54.6091 77.5919 55.9513V61.9453H79.9269V55.5836C79.9361 53.1934 78.5755 51.8328 76.5071 51.8328C75.0178 51.8328 73.9973 52.5406 73.5468 53.653H73.4181V51.9615H71.175V61.9453H73.5285V56.0984ZM86.6012 62.1476C88.9179 62.1476 90.5176 61.0076 90.9404 59.2793H88.6421C88.3388 59.8768 87.6493 60.3181 86.6196 60.3089C85.1027 60.3181 84.1007 59.3069 84.0639 57.6061H91.0324V56.8706C91.0324 53.368 88.9179 51.8328 86.4725 51.8328C83.6226 51.8328 81.7472 53.9288 81.7472 57.0177C81.7472 60.1434 83.5951 62.1476 86.6012 62.1476ZM84.0731 56.0065C84.1558 54.7378 85.1027 53.653 86.5093 53.653C87.8607 53.653 88.78 54.6459 88.7892 56.0065H84.0731Z" fill="black"/>
</g>
<defs>
<linearGradient id="paint0_linear_5744_4849" x1="53.8488" y1="88.4453" x2="53.8488" y2="104.135" gradientUnits="userSpaceOnUse">
<stop stop-color="#D7E38B"/>
<stop offset="1" stop-color="#23C176"/>
</linearGradient>
<linearGradient id="paint1_linear_5744_4849" x1="53.8488" y1="88.4453" x2="53.8488" y2="104.135" gradientUnits="userSpaceOnUse">
<stop stop-color="#D7E38B"/>
<stop offset="1" stop-color="#23C176"/>
</linearGradient>
<linearGradient id="paint2_linear_5744_4849" x1="53.8488" y1="126.102" x2="53.8488" y2="141.791" gradientUnits="userSpaceOnUse">
<stop stop-color="#84B5FF"/>
<stop offset="1" stop-color="#855CF9"/>
</linearGradient>
<linearGradient id="paint3_linear_5744_4849" x1="53.8488" y1="126.102" x2="53.8488" y2="141.791" gradientUnits="userSpaceOnUse">
<stop stop-color="#84B5FF"/>
<stop offset="1" stop-color="#855CF9"/>
</linearGradient>
<clipPath id="clip0_5744_4849">
<path d="M0 4C0 1.79086 1.79086 0 4 0H332C334.209 0 336 1.79086 336 4V192H0V4Z" fill="white"/>
</clipPath>
</defs>
</svg>
