
<svg width="12" height="12" viewBox="0 0 12 12" fill="none" xmlns="http://www.w3.org/2000/svg">
<path fill-rule="evenodd" clip-rule="evenodd" d="M4.23044 0.499936C4.23703 0.500001 4.24289 0.500059 4.24793 0.500059H7.12572C7.28971 0.500059 7.44327 0.580474 7.53668 0.715261C7.63009 0.850049 7.65146 1.02207 7.59388 1.17562L6.72222 3.50006L9.57781 3.50006C9.70981 3.50004 9.84035 3.50002 9.94578 3.50941C10.041 3.51789 10.2342 3.5402 10.3963 3.67711C10.5783 3.83079 10.6764 4.06174 10.6607 4.29938C10.6468 4.51108 10.5287 4.66564 10.4687 4.7401C10.4023 4.82251 10.3117 4.91646 10.22 5.01146L4.11064 11.3471C3.95046 11.5132 3.69741 11.5482 3.49824 11.4316C3.29906 11.3151 3.2055 11.0774 3.2718 10.8564L4.5787 6.50006H2.14793C2.14269 6.50006 2.13742 6.50006 2.13213 6.50006C2.03902 6.50009 1.93819 6.50011 1.8532 6.49234C1.76409 6.48418 1.61549 6.46266 1.47537 6.36465C1.30632 6.24641 1.19343 6.06376 1.16328 5.85968C1.13829 5.69052 1.18549 5.54798 1.21805 5.46464C1.2491 5.38514 1.29421 5.29497 1.33587 5.2117C1.33824 5.20697 1.3406 5.20225 1.34295 5.19757L3.44295 0.997566C3.4452 0.993061 3.44777 0.987795 3.45066 0.981867C3.47846 0.924854 3.53614 0.806605 3.63044 0.714245C3.70986 0.636458 3.80558 0.577299 3.91067 0.54105C4.03545 0.49801 4.16701 0.499309 4.23044 0.499936ZM4.30973 1.50006L2.30973 5.50006H5.25072C5.40877 5.50006 5.55752 5.57479 5.65186 5.70159C5.74621 5.8284 5.77505 5.99235 5.72963 6.14373L4.82217 9.1686L9.32398 4.50006H6.00072C5.83673 4.50006 5.68316 4.41964 5.58975 4.28486C5.49635 4.15007 5.47497 3.97805 5.53255 3.8245L6.40422 1.50006H4.30973Z" fill="#807B78"/>
</svg>
