<svg width="12" height="12" viewBox="0 0 12 12" fill="none" xmlns="http://www.w3.org/2000/svg">
<path fill-rule="evenodd" clip-rule="evenodd" d="M3.87936 1H8.12065C8.52315 0.999995 8.85531 0.99999 9.12589 1.0221C9.40697 1.04506 9.66532 1.09434 9.90801 1.21798C10.2843 1.40974 10.5903 1.71569 10.782 2.09202C10.9057 2.33468 10.9549 2.59304 10.9779 2.87408C11 3.14468 11 3.47686 11 3.87934V6.62065C11 7.02313 11 7.35531 10.9779 7.62591C10.9549 7.90695 10.9057 8.16531 10.782 8.40797C10.5903 8.7843 10.2843 9.09025 9.90801 9.28201C9.66532 9.40565 9.40697 9.45493 9.12589 9.47789C8.85531 9.5 8.52315 9.5 8.12067 9.5H4.84188C4.50983 9.5 4.41312 9.50235 4.32514 9.52038C4.23687 9.53853 4.15146 9.56849 4.07123 9.60949C3.99123 9.65035 3.9142 9.70889 3.65496 9.91636L2.44839 10.8816C2.35655 10.9551 2.26294 11.03 2.18064 11.0844C2.10193 11.1365 1.94931 11.2296 1.75081 11.2298C1.52241 11.2301 1.30634 11.1262 1.16384 10.9477C1.04002 10.7926 1.01742 10.6152 1.00888 10.5212C0.999954 10.423 0.999979 10.3031 1 10.1855L1 3.87935C1 3.47686 0.999995 3.14469 1.0221 2.87409C1.04506 2.59304 1.09434 2.33468 1.21799 2.09202C1.40974 1.71569 1.7157 1.40974 2.09203 1.21798C2.33469 1.09434 2.59305 1.04506 2.87409 1.0221C3.14469 0.99999 3.47686 0.999995 3.87936 1ZM2.95553 2.01877C2.73631 2.03668 2.62422 2.06915 2.54602 2.10899C2.35785 2.20486 2.20487 2.35785 2.109 2.54601C2.06916 2.62421 2.03669 2.7363 2.01878 2.95552C2.0004 3.18056 2 3.47171 2 3.9V9.95971L3.03027 9.1355C3.04164 9.12638 3.05285 9.11741 3.06393 9.10857C3.27496 8.93957 3.43449 8.81187 3.61627 8.71897C3.77674 8.63702 3.94757 8.57706 4.12409 8.54085C4.32406 8.49979 4.52842 8.49988 4.79877 8.5C4.81296 8.5 4.82733 8.5 4.84188 8.5H8.1C8.52829 8.5 8.81944 8.4996 9.04448 8.48122C9.2637 8.46331 9.37579 8.43084 9.45398 8.391C9.64215 8.29513 9.79513 8.14215 9.891 7.95398C9.93084 7.87579 9.96331 7.7637 9.98122 7.54448C9.9996 7.31944 10 7.02829 10 6.6V3.9C10 3.47171 9.9996 3.18056 9.98122 2.95552C9.96331 2.7363 9.93084 2.62421 9.891 2.54601C9.79513 2.35785 9.64215 2.20486 9.45398 2.10899C9.37579 2.06915 9.2637 2.03668 9.04448 2.01877C8.81944 2.00039 8.52829 2 8.1 2H3.9C3.47171 2 3.18056 2.00039 2.95553 2.01877Z" fill="#514C49"/>
</svg>

